M48
; DRILL file {KiCad (6.0.1)} date Mon Feb  7 21:51:58 2022
; FORMAT={-:-/ absolute / inch / decimal}
; #@! TF.CreationDate,2022-02-07T21:51:58+01:00
; #@! TF.GenerationSoftware,Kicad,Pcbnew,(6.0.1)
; #@! TF.FileFunction,Plated,1,2,PTH
FMAT,2
INCH
; #@! TA.AperFunction,Plated,PTH,ViaDrill
T1C0.0157
; #@! TA.AperFunction,Plated,PTH,ComponentDrill
T2C0.0315
; #@! TA.AperFunction,Plated,PTH,ComponentDrill
T3C0.0394
%
G90
G05
T1
X4.75Y-3.05
X4.75Y-3.3
X4.75Y-4.25
X5.1Y-3.05
X5.15Y-4.1
X5.3Y-4.25
X5.45Y-3.05
X5.7Y-4.1
X5.8Y-3.05
X5.85Y-4.25
X6.15Y-3.05
X6.25Y-4.1
X6.4Y-4.25
X6.5Y-3.05
X6.6583Y-3.3
T2
X5.0Y-3.55
X5.0Y-3.85
X5.2Y-3.55
X5.2Y-3.85
X5.4Y-3.55
X5.4Y-3.85
X5.6Y-3.55
X5.6Y-3.85
X5.8Y-3.55
X5.8Y-3.85
X6.0Y-3.55
X6.0Y-3.85
X6.2Y-3.55
X6.2Y-3.85
X6.4Y-3.55
X6.4Y-3.85
T3
X4.8006Y-4.0
X4.9006Y-4.0
X4.95Y-3.25
X5.0006Y-4.0
X5.05Y-3.25
X5.15Y-3.25
X5.25Y-3.25
X5.35Y-3.25
X5.3506Y-4.0
X5.45Y-3.25
X5.4506Y-4.0
X5.55Y-3.25
X5.5506Y-4.0
X5.65Y-3.25
X5.75Y-3.25
X5.85Y-3.25
X5.9006Y-4.0
X5.95Y-3.25
X6.0006Y-4.0
X6.05Y-3.25
X6.1006Y-4.0
X6.15Y-3.25
X6.25Y-3.25
X6.35Y-3.25
X6.45Y-3.25
X6.4506Y-4.0
X6.5506Y-4.0
X6.6506Y-4.0
T0
M30
