G04 #@! TF.GenerationSoftware,KiCad,Pcbnew,(6.0.1)*
G04 #@! TF.CreationDate,2022-02-07T21:51:52+01:00*
G04 #@! TF.ProjectId,RC-LightDistribution,52432d4c-6967-4687-9444-697374726962,rev?*
G04 #@! TF.SameCoordinates,Original*
G04 #@! TF.FileFunction,Soldermask,Bot*
G04 #@! TF.FilePolarity,Negative*
%FSLAX46Y46*%
G04 Gerber Fmt 4.6, Leading zero omitted, Abs format (unit mm)*
G04 Created by KiCad (PCBNEW (6.0.1)) date 2022-02-07 21:51:52*
%MOMM*%
%LPD*%
G01*
G04 APERTURE LIST*
%ADD10C,1.600000*%
%ADD11O,1.600000X1.600000*%
%ADD12R,1.700000X1.700000*%
%ADD13O,1.700000X1.700000*%
%ADD14C,2.700000*%
G04 APERTURE END LIST*
D10*
G04 #@! TO.C,R7*
X157480000Y-90170000D03*
D11*
X157480000Y-97790000D03*
G04 #@! TD*
D10*
G04 #@! TO.C,R3*
X137160000Y-90170000D03*
D11*
X137160000Y-97790000D03*
G04 #@! TD*
D12*
G04 #@! TO.C,J1*
X121935000Y-101600000D03*
D13*
X124475000Y-101600000D03*
X127015000Y-101600000D03*
G04 #@! TD*
D10*
G04 #@! TO.C,R1*
X127000000Y-90170000D03*
D11*
X127000000Y-97790000D03*
G04 #@! TD*
D12*
G04 #@! TO.C,J4*
X149875000Y-101600000D03*
D13*
X152415000Y-101600000D03*
X154955000Y-101600000D03*
G04 #@! TD*
D14*
G04 #@! TO.C,H1*
X120650000Y-95250000D03*
G04 #@! TD*
D10*
G04 #@! TO.C,R2*
X132080000Y-90170000D03*
D11*
X132080000Y-97790000D03*
G04 #@! TD*
D12*
G04 #@! TO.C,J2*
X135905000Y-101600000D03*
D13*
X138445000Y-101600000D03*
X140985000Y-101600000D03*
G04 #@! TD*
D10*
G04 #@! TO.C,R8*
X162560000Y-90170000D03*
D11*
X162560000Y-97790000D03*
G04 #@! TD*
D12*
G04 #@! TO.C,J3*
X125730000Y-82550000D03*
D13*
X128270000Y-82550000D03*
X130810000Y-82550000D03*
X133350000Y-82550000D03*
X135890000Y-82550000D03*
X138430000Y-82550000D03*
X140970000Y-82550000D03*
X143510000Y-82550000D03*
X146050000Y-82550000D03*
X148590000Y-82550000D03*
X151130000Y-82550000D03*
X153670000Y-82550000D03*
X156210000Y-82550000D03*
X158750000Y-82550000D03*
X161290000Y-82550000D03*
X163830000Y-82550000D03*
G04 #@! TD*
D10*
G04 #@! TO.C,R4*
X142240000Y-90170000D03*
D11*
X142240000Y-97790000D03*
G04 #@! TD*
D10*
G04 #@! TO.C,R5*
X147320000Y-90170000D03*
D11*
X147320000Y-97790000D03*
G04 #@! TD*
D12*
G04 #@! TO.C,J5*
X163845000Y-101600000D03*
D13*
X166385000Y-101600000D03*
X168925000Y-101600000D03*
G04 #@! TD*
D10*
G04 #@! TO.C,R6*
X152400000Y-90170000D03*
D11*
X152400000Y-97790000D03*
G04 #@! TD*
D14*
G04 #@! TO.C,H2*
X168910000Y-95250000D03*
G04 #@! TD*
M02*
