G04 #@! TF.GenerationSoftware,KiCad,Pcbnew,(6.0.1)*
G04 #@! TF.CreationDate,2022-02-07T21:51:52+01:00*
G04 #@! TF.ProjectId,RC-LightDistribution,52432d4c-6967-4687-9444-697374726962,rev?*
G04 #@! TF.SameCoordinates,Original*
G04 #@! TF.FileFunction,Copper,L2,Bot*
G04 #@! TF.FilePolarity,Positive*
%FSLAX46Y46*%
G04 Gerber Fmt 4.6, Leading zero omitted, Abs format (unit mm)*
G04 Created by KiCad (PCBNEW (6.0.1)) date 2022-02-07 21:51:52*
%MOMM*%
%LPD*%
G01*
G04 APERTURE LIST*
G04 #@! TA.AperFunction,ComponentPad*
%ADD10C,1.600000*%
G04 #@! TD*
G04 #@! TA.AperFunction,ComponentPad*
%ADD11O,1.600000X1.600000*%
G04 #@! TD*
G04 #@! TA.AperFunction,ComponentPad*
%ADD12R,1.700000X1.700000*%
G04 #@! TD*
G04 #@! TA.AperFunction,ComponentPad*
%ADD13O,1.700000X1.700000*%
G04 #@! TD*
G04 #@! TA.AperFunction,ViaPad*
%ADD14C,0.800000*%
G04 #@! TD*
G04 #@! TA.AperFunction,Conductor*
%ADD15C,0.500000*%
G04 #@! TD*
G04 APERTURE END LIST*
D10*
G04 #@! TO.P,R7,1*
G04 #@! TO.N,Net-(J3-Pad14)*
X157480000Y-90170000D03*
D11*
G04 #@! TO.P,R7,2*
G04 #@! TO.N,Net-(J5-Pad2)*
X157480000Y-97790000D03*
G04 #@! TD*
D10*
G04 #@! TO.P,R3,1*
G04 #@! TO.N,Net-(J3-Pad6)*
X137160000Y-90170000D03*
D11*
G04 #@! TO.P,R3,2*
G04 #@! TO.N,Net-(J2-Pad2)*
X137160000Y-97790000D03*
G04 #@! TD*
D12*
G04 #@! TO.P,J1,1,Pin_1*
G04 #@! TO.N,GND*
X121935000Y-101600000D03*
D13*
G04 #@! TO.P,J1,2,Pin_2*
G04 #@! TO.N,Net-(J1-Pad2)*
X124475000Y-101600000D03*
G04 #@! TO.P,J1,3,Pin_3*
G04 #@! TO.N,Net-(J1-Pad3)*
X127015000Y-101600000D03*
G04 #@! TD*
D10*
G04 #@! TO.P,R1,1*
G04 #@! TO.N,Net-(J3-Pad2)*
X127000000Y-90170000D03*
D11*
G04 #@! TO.P,R1,2*
G04 #@! TO.N,Net-(J1-Pad2)*
X127000000Y-97790000D03*
G04 #@! TD*
D12*
G04 #@! TO.P,J4,1,Pin_1*
G04 #@! TO.N,GND*
X149875000Y-101600000D03*
D13*
G04 #@! TO.P,J4,2,Pin_2*
G04 #@! TO.N,Net-(J4-Pad2)*
X152415000Y-101600000D03*
G04 #@! TO.P,J4,3,Pin_3*
G04 #@! TO.N,Net-(J4-Pad3)*
X154955000Y-101600000D03*
G04 #@! TD*
D10*
G04 #@! TO.P,R2,1*
G04 #@! TO.N,Net-(J3-Pad4)*
X132080000Y-90170000D03*
D11*
G04 #@! TO.P,R2,2*
G04 #@! TO.N,Net-(J1-Pad3)*
X132080000Y-97790000D03*
G04 #@! TD*
D12*
G04 #@! TO.P,J2,1,Pin_1*
G04 #@! TO.N,GND*
X135905000Y-101600000D03*
D13*
G04 #@! TO.P,J2,2,Pin_2*
G04 #@! TO.N,Net-(J2-Pad2)*
X138445000Y-101600000D03*
G04 #@! TO.P,J2,3,Pin_3*
G04 #@! TO.N,Net-(J2-Pad3)*
X140985000Y-101600000D03*
G04 #@! TD*
D10*
G04 #@! TO.P,R8,1*
G04 #@! TO.N,Net-(J3-Pad16)*
X162560000Y-90170000D03*
D11*
G04 #@! TO.P,R8,2*
G04 #@! TO.N,Net-(J5-Pad3)*
X162560000Y-97790000D03*
G04 #@! TD*
D12*
G04 #@! TO.P,J3,1,Pin_1*
G04 #@! TO.N,GND*
X125730000Y-82550000D03*
D13*
G04 #@! TO.P,J3,2,Pin_2*
G04 #@! TO.N,Net-(J3-Pad2)*
X128270000Y-82550000D03*
G04 #@! TO.P,J3,3,Pin_3*
G04 #@! TO.N,GND*
X130810000Y-82550000D03*
G04 #@! TO.P,J3,4,Pin_4*
G04 #@! TO.N,Net-(J3-Pad4)*
X133350000Y-82550000D03*
G04 #@! TO.P,J3,5,Pin_5*
G04 #@! TO.N,GND*
X135890000Y-82550000D03*
G04 #@! TO.P,J3,6,Pin_6*
G04 #@! TO.N,Net-(J3-Pad6)*
X138430000Y-82550000D03*
G04 #@! TO.P,J3,7,Pin_7*
G04 #@! TO.N,GND*
X140970000Y-82550000D03*
G04 #@! TO.P,J3,8,Pin_8*
G04 #@! TO.N,Net-(J3-Pad8)*
X143510000Y-82550000D03*
G04 #@! TO.P,J3,9,Pin_9*
G04 #@! TO.N,GND*
X146050000Y-82550000D03*
G04 #@! TO.P,J3,10,Pin_10*
G04 #@! TO.N,Net-(J3-Pad10)*
X148590000Y-82550000D03*
G04 #@! TO.P,J3,11,Pin_11*
G04 #@! TO.N,GND*
X151130000Y-82550000D03*
G04 #@! TO.P,J3,12,Pin_12*
G04 #@! TO.N,Net-(J3-Pad12)*
X153670000Y-82550000D03*
G04 #@! TO.P,J3,13,Pin_13*
G04 #@! TO.N,GND*
X156210000Y-82550000D03*
G04 #@! TO.P,J3,14,Pin_14*
G04 #@! TO.N,Net-(J3-Pad14)*
X158750000Y-82550000D03*
G04 #@! TO.P,J3,15,Pin_15*
G04 #@! TO.N,GND*
X161290000Y-82550000D03*
G04 #@! TO.P,J3,16,Pin_16*
G04 #@! TO.N,Net-(J3-Pad16)*
X163830000Y-82550000D03*
G04 #@! TD*
D10*
G04 #@! TO.P,R4,1*
G04 #@! TO.N,Net-(J3-Pad8)*
X142240000Y-90170000D03*
D11*
G04 #@! TO.P,R4,2*
G04 #@! TO.N,Net-(J2-Pad3)*
X142240000Y-97790000D03*
G04 #@! TD*
D10*
G04 #@! TO.P,R5,1*
G04 #@! TO.N,Net-(J3-Pad10)*
X147320000Y-90170000D03*
D11*
G04 #@! TO.P,R5,2*
G04 #@! TO.N,Net-(J4-Pad2)*
X147320000Y-97790000D03*
G04 #@! TD*
D12*
G04 #@! TO.P,J5,1,Pin_1*
G04 #@! TO.N,GND*
X163845000Y-101600000D03*
D13*
G04 #@! TO.P,J5,2,Pin_2*
G04 #@! TO.N,Net-(J5-Pad2)*
X166385000Y-101600000D03*
G04 #@! TO.P,J5,3,Pin_3*
G04 #@! TO.N,Net-(J5-Pad3)*
X168925000Y-101600000D03*
G04 #@! TD*
D10*
G04 #@! TO.P,R6,1*
G04 #@! TO.N,Net-(J3-Pad12)*
X152400000Y-90170000D03*
D11*
G04 #@! TO.P,R6,2*
G04 #@! TO.N,Net-(J4-Pad3)*
X152400000Y-97790000D03*
G04 #@! TD*
D14*
G04 #@! TO.N,GND*
X120650000Y-83820000D03*
X134620000Y-107950000D03*
X120650000Y-77470000D03*
X120650000Y-107950000D03*
X165100000Y-77470000D03*
X156210000Y-77470000D03*
X147320000Y-77470000D03*
X148590000Y-107950000D03*
X169120000Y-83820000D03*
X129540000Y-77470000D03*
X162560000Y-107950000D03*
X138430000Y-77470000D03*
G04 #@! TO.N,Net-(J1-Pad2)*
X130810000Y-104140000D03*
G04 #@! TO.N,Net-(J2-Pad2)*
X144780000Y-104140000D03*
G04 #@! TO.N,Net-(J4-Pad2)*
X158750000Y-104140000D03*
G04 #@! TD*
D15*
G04 #@! TO.N,Net-(J1-Pad2)*
X125730000Y-104140000D02*
X130810000Y-104140000D01*
X124475000Y-102885000D02*
X125730000Y-104140000D01*
X124475000Y-101600000D02*
X124475000Y-102885000D01*
G04 #@! TO.N,Net-(J2-Pad2)*
X139700000Y-104140000D02*
X144780000Y-104140000D01*
X138445000Y-102885000D02*
X139700000Y-104140000D01*
X138445000Y-101600000D02*
X138445000Y-102885000D01*
G04 #@! TO.N,Net-(J4-Pad2)*
X153670000Y-104140000D02*
X158750000Y-104140000D01*
X152415000Y-102885000D02*
X153670000Y-104140000D01*
X152415000Y-101600000D02*
X152415000Y-102885000D01*
G04 #@! TD*
G04 #@! TA.AperFunction,Conductor*
G04 #@! TO.N,GND*
G36*
X172154121Y-75458002D02*
G01*
X172200614Y-75511658D01*
X172212000Y-75564000D01*
X172212000Y-109856000D01*
X172191998Y-109924121D01*
X172138342Y-109970614D01*
X172086000Y-109982000D01*
X117474000Y-109982000D01*
X117405879Y-109961998D01*
X117359386Y-109908342D01*
X117348000Y-109856000D01*
X117348000Y-102494669D01*
X120577001Y-102494669D01*
X120577371Y-102501490D01*
X120582895Y-102552352D01*
X120586521Y-102567604D01*
X120631676Y-102688054D01*
X120640214Y-102703649D01*
X120716715Y-102805724D01*
X120729276Y-102818285D01*
X120831351Y-102894786D01*
X120846946Y-102903324D01*
X120967394Y-102948478D01*
X120982649Y-102952105D01*
X121033514Y-102957631D01*
X121040328Y-102958000D01*
X121662885Y-102958000D01*
X121678124Y-102953525D01*
X121679329Y-102952135D01*
X121681000Y-102944452D01*
X121681000Y-102939884D01*
X122189000Y-102939884D01*
X122193475Y-102955123D01*
X122194865Y-102956328D01*
X122202548Y-102957999D01*
X122829669Y-102957999D01*
X122836490Y-102957629D01*
X122887352Y-102952105D01*
X122902604Y-102948479D01*
X123023054Y-102903324D01*
X123038649Y-102894786D01*
X123140724Y-102818285D01*
X123153285Y-102805724D01*
X123229786Y-102703649D01*
X123238324Y-102688054D01*
X123279225Y-102578952D01*
X123321867Y-102522188D01*
X123388428Y-102497488D01*
X123457777Y-102512696D01*
X123492444Y-102540684D01*
X123517865Y-102570031D01*
X123517869Y-102570035D01*
X123521250Y-102573938D01*
X123627813Y-102662408D01*
X123670985Y-102698250D01*
X123710620Y-102757152D01*
X123716500Y-102795194D01*
X123716500Y-102817930D01*
X123715067Y-102836880D01*
X123711801Y-102858349D01*
X123712394Y-102865641D01*
X123712394Y-102865644D01*
X123716085Y-102911018D01*
X123716500Y-102921233D01*
X123716500Y-102929293D01*
X123716925Y-102932937D01*
X123719789Y-102957507D01*
X123720222Y-102961882D01*
X123726140Y-103034637D01*
X123728396Y-103041601D01*
X123729587Y-103047560D01*
X123730971Y-103053415D01*
X123731818Y-103060681D01*
X123756735Y-103129327D01*
X123758152Y-103133455D01*
X123780649Y-103202899D01*
X123784445Y-103209154D01*
X123786951Y-103214628D01*
X123789670Y-103220058D01*
X123792167Y-103226937D01*
X123796180Y-103233057D01*
X123796180Y-103233058D01*
X123832186Y-103287976D01*
X123834523Y-103291680D01*
X123872405Y-103354107D01*
X123876121Y-103358315D01*
X123876122Y-103358316D01*
X123879803Y-103362484D01*
X123879776Y-103362508D01*
X123882429Y-103365500D01*
X123885132Y-103368733D01*
X123889144Y-103374852D01*
X123894456Y-103379884D01*
X123945383Y-103428128D01*
X123947825Y-103430506D01*
X125146230Y-104628911D01*
X125158616Y-104643323D01*
X125167149Y-104654918D01*
X125167154Y-104654923D01*
X125171492Y-104660818D01*
X125177070Y-104665557D01*
X125177073Y-104665560D01*
X125211768Y-104695035D01*
X125219284Y-104701965D01*
X125224979Y-104707660D01*
X125227861Y-104709940D01*
X125247251Y-104725281D01*
X125250655Y-104728072D01*
X125300703Y-104770591D01*
X125306285Y-104775333D01*
X125312801Y-104778661D01*
X125317850Y-104782028D01*
X125322979Y-104785195D01*
X125328716Y-104789734D01*
X125394875Y-104820655D01*
X125398769Y-104822558D01*
X125463808Y-104855769D01*
X125470916Y-104857508D01*
X125476559Y-104859607D01*
X125482322Y-104861524D01*
X125488950Y-104864622D01*
X125496112Y-104866112D01*
X125496113Y-104866112D01*
X125560412Y-104879486D01*
X125564696Y-104880456D01*
X125635610Y-104897808D01*
X125641212Y-104898156D01*
X125641215Y-104898156D01*
X125646764Y-104898500D01*
X125646762Y-104898536D01*
X125650755Y-104898775D01*
X125654947Y-104899149D01*
X125662115Y-104900640D01*
X125739520Y-104898546D01*
X125742928Y-104898500D01*
X130267413Y-104898500D01*
X130341472Y-104922563D01*
X130347902Y-104927235D01*
X130347909Y-104927239D01*
X130353248Y-104931118D01*
X130359276Y-104933802D01*
X130359278Y-104933803D01*
X130521681Y-105006109D01*
X130527712Y-105008794D01*
X130621113Y-105028647D01*
X130708056Y-105047128D01*
X130708061Y-105047128D01*
X130714513Y-105048500D01*
X130905487Y-105048500D01*
X130911939Y-105047128D01*
X130911944Y-105047128D01*
X130998888Y-105028647D01*
X131092288Y-105008794D01*
X131098319Y-105006109D01*
X131260722Y-104933803D01*
X131260724Y-104933802D01*
X131266752Y-104931118D01*
X131272097Y-104927235D01*
X131336481Y-104880457D01*
X131421253Y-104818866D01*
X131526511Y-104701965D01*
X131544621Y-104681852D01*
X131544622Y-104681851D01*
X131549040Y-104676944D01*
X131644527Y-104511556D01*
X131703542Y-104329928D01*
X131723504Y-104140000D01*
X131703542Y-103950072D01*
X131644527Y-103768444D01*
X131549040Y-103603056D01*
X131421253Y-103461134D01*
X131309422Y-103379884D01*
X131272094Y-103352763D01*
X131272093Y-103352762D01*
X131266752Y-103348882D01*
X131260724Y-103346198D01*
X131260722Y-103346197D01*
X131098319Y-103273891D01*
X131098318Y-103273891D01*
X131092288Y-103271206D01*
X130998887Y-103251353D01*
X130911944Y-103232872D01*
X130911939Y-103232872D01*
X130905487Y-103231500D01*
X130714513Y-103231500D01*
X130708061Y-103232872D01*
X130708056Y-103232872D01*
X130621113Y-103251353D01*
X130527712Y-103271206D01*
X130521682Y-103273891D01*
X130521681Y-103273891D01*
X130359278Y-103346197D01*
X130359276Y-103346198D01*
X130353248Y-103348882D01*
X130347909Y-103352761D01*
X130347902Y-103352765D01*
X130341472Y-103357437D01*
X130267413Y-103381500D01*
X126096371Y-103381500D01*
X126028250Y-103361498D01*
X126007276Y-103344595D01*
X125418564Y-102755883D01*
X125384538Y-102693571D01*
X125389603Y-102622756D01*
X125418719Y-102577537D01*
X125464242Y-102532173D01*
X125513096Y-102483489D01*
X125643453Y-102302077D01*
X125644776Y-102303028D01*
X125691645Y-102259857D01*
X125761580Y-102247625D01*
X125827026Y-102275144D01*
X125854875Y-102306994D01*
X125914987Y-102405088D01*
X126061250Y-102573938D01*
X126233126Y-102716632D01*
X126426000Y-102829338D01*
X126634692Y-102909030D01*
X126639760Y-102910061D01*
X126639763Y-102910062D01*
X126694671Y-102921233D01*
X126853597Y-102953567D01*
X126858772Y-102953757D01*
X126858774Y-102953757D01*
X127071673Y-102961564D01*
X127071677Y-102961564D01*
X127076837Y-102961753D01*
X127081957Y-102961097D01*
X127081959Y-102961097D01*
X127293288Y-102934025D01*
X127293289Y-102934025D01*
X127298416Y-102933368D01*
X127338864Y-102921233D01*
X127507429Y-102870661D01*
X127507434Y-102870659D01*
X127512384Y-102869174D01*
X127712994Y-102770896D01*
X127894860Y-102641173D01*
X127913342Y-102622756D01*
X127995701Y-102540684D01*
X128041877Y-102494669D01*
X134547001Y-102494669D01*
X134547371Y-102501490D01*
X134552895Y-102552352D01*
X134556521Y-102567604D01*
X134601676Y-102688054D01*
X134610214Y-102703649D01*
X134686715Y-102805724D01*
X134699276Y-102818285D01*
X134801351Y-102894786D01*
X134816946Y-102903324D01*
X134937394Y-102948478D01*
X134952649Y-102952105D01*
X135003514Y-102957631D01*
X135010328Y-102958000D01*
X135632885Y-102958000D01*
X135648124Y-102953525D01*
X135649329Y-102952135D01*
X135651000Y-102944452D01*
X135651000Y-102939884D01*
X136159000Y-102939884D01*
X136163475Y-102955123D01*
X136164865Y-102956328D01*
X136172548Y-102957999D01*
X136799669Y-102957999D01*
X136806490Y-102957629D01*
X136857352Y-102952105D01*
X136872604Y-102948479D01*
X136993054Y-102903324D01*
X137008649Y-102894786D01*
X137110724Y-102818285D01*
X137123285Y-102805724D01*
X137199786Y-102703649D01*
X137208324Y-102688054D01*
X137249225Y-102578952D01*
X137291867Y-102522188D01*
X137358428Y-102497488D01*
X137427777Y-102512696D01*
X137462444Y-102540684D01*
X137487865Y-102570031D01*
X137487869Y-102570035D01*
X137491250Y-102573938D01*
X137597813Y-102662408D01*
X137640985Y-102698250D01*
X137680620Y-102757152D01*
X137686500Y-102795194D01*
X137686500Y-102817930D01*
X137685067Y-102836880D01*
X137681801Y-102858349D01*
X137682394Y-102865641D01*
X137682394Y-102865644D01*
X137686085Y-102911018D01*
X137686500Y-102921233D01*
X137686500Y-102929293D01*
X137686925Y-102932937D01*
X137689789Y-102957507D01*
X137690222Y-102961882D01*
X137696140Y-103034637D01*
X137698396Y-103041601D01*
X137699587Y-103047560D01*
X137700971Y-103053415D01*
X137701818Y-103060681D01*
X137726735Y-103129327D01*
X137728152Y-103133455D01*
X137750649Y-103202899D01*
X137754445Y-103209154D01*
X137756951Y-103214628D01*
X137759670Y-103220058D01*
X137762167Y-103226937D01*
X137766180Y-103233057D01*
X137766180Y-103233058D01*
X137802186Y-103287976D01*
X137804523Y-103291680D01*
X137842405Y-103354107D01*
X137846121Y-103358315D01*
X137846122Y-103358316D01*
X137849803Y-103362484D01*
X137849776Y-103362508D01*
X137852429Y-103365500D01*
X137855132Y-103368733D01*
X137859144Y-103374852D01*
X137864456Y-103379884D01*
X137915383Y-103428128D01*
X137917825Y-103430506D01*
X139116230Y-104628911D01*
X139128616Y-104643323D01*
X139137149Y-104654918D01*
X139137154Y-104654923D01*
X139141492Y-104660818D01*
X139147070Y-104665557D01*
X139147073Y-104665560D01*
X139181768Y-104695035D01*
X139189284Y-104701965D01*
X139194979Y-104707660D01*
X139197861Y-104709940D01*
X139217251Y-104725281D01*
X139220655Y-104728072D01*
X139270703Y-104770591D01*
X139276285Y-104775333D01*
X139282801Y-104778661D01*
X139287850Y-104782028D01*
X139292979Y-104785195D01*
X139298716Y-104789734D01*
X139364875Y-104820655D01*
X139368769Y-104822558D01*
X139433808Y-104855769D01*
X139440916Y-104857508D01*
X139446559Y-104859607D01*
X139452322Y-104861524D01*
X139458950Y-104864622D01*
X139466112Y-104866112D01*
X139466113Y-104866112D01*
X139530412Y-104879486D01*
X139534696Y-104880456D01*
X139605610Y-104897808D01*
X139611212Y-104898156D01*
X139611215Y-104898156D01*
X139616764Y-104898500D01*
X139616762Y-104898536D01*
X139620755Y-104898775D01*
X139624947Y-104899149D01*
X139632115Y-104900640D01*
X139709520Y-104898546D01*
X139712928Y-104898500D01*
X144237413Y-104898500D01*
X144311472Y-104922563D01*
X144317902Y-104927235D01*
X144317909Y-104927239D01*
X144323248Y-104931118D01*
X144329276Y-104933802D01*
X144329278Y-104933803D01*
X144491681Y-105006109D01*
X144497712Y-105008794D01*
X144591113Y-105028647D01*
X144678056Y-105047128D01*
X144678061Y-105047128D01*
X144684513Y-105048500D01*
X144875487Y-105048500D01*
X144881939Y-105047128D01*
X144881944Y-105047128D01*
X144968888Y-105028647D01*
X145062288Y-105008794D01*
X145068319Y-105006109D01*
X145230722Y-104933803D01*
X145230724Y-104933802D01*
X145236752Y-104931118D01*
X145242097Y-104927235D01*
X145306481Y-104880457D01*
X145391253Y-104818866D01*
X145496511Y-104701965D01*
X145514621Y-104681852D01*
X145514622Y-104681851D01*
X145519040Y-104676944D01*
X145614527Y-104511556D01*
X145673542Y-104329928D01*
X145693504Y-104140000D01*
X145673542Y-103950072D01*
X145614527Y-103768444D01*
X145519040Y-103603056D01*
X145391253Y-103461134D01*
X145279422Y-103379884D01*
X145242094Y-103352763D01*
X145242093Y-103352762D01*
X145236752Y-103348882D01*
X145230724Y-103346198D01*
X145230722Y-103346197D01*
X145068319Y-103273891D01*
X145068318Y-103273891D01*
X145062288Y-103271206D01*
X144968887Y-103251353D01*
X144881944Y-103232872D01*
X144881939Y-103232872D01*
X144875487Y-103231500D01*
X144684513Y-103231500D01*
X144678061Y-103232872D01*
X144678056Y-103232872D01*
X144591113Y-103251353D01*
X144497712Y-103271206D01*
X144491682Y-103273891D01*
X144491681Y-103273891D01*
X144329278Y-103346197D01*
X144329276Y-103346198D01*
X144323248Y-103348882D01*
X144317909Y-103352761D01*
X144317902Y-103352765D01*
X144311472Y-103357437D01*
X144237413Y-103381500D01*
X140066371Y-103381500D01*
X139998250Y-103361498D01*
X139977276Y-103344595D01*
X139388564Y-102755883D01*
X139354538Y-102693571D01*
X139359603Y-102622756D01*
X139388719Y-102577537D01*
X139434242Y-102532173D01*
X139483096Y-102483489D01*
X139613453Y-102302077D01*
X139614776Y-102303028D01*
X139661645Y-102259857D01*
X139731580Y-102247625D01*
X139797026Y-102275144D01*
X139824875Y-102306994D01*
X139884987Y-102405088D01*
X140031250Y-102573938D01*
X140203126Y-102716632D01*
X140396000Y-102829338D01*
X140604692Y-102909030D01*
X140609760Y-102910061D01*
X140609763Y-102910062D01*
X140664671Y-102921233D01*
X140823597Y-102953567D01*
X140828772Y-102953757D01*
X140828774Y-102953757D01*
X141041673Y-102961564D01*
X141041677Y-102961564D01*
X141046837Y-102961753D01*
X141051957Y-102961097D01*
X141051959Y-102961097D01*
X141263288Y-102934025D01*
X141263289Y-102934025D01*
X141268416Y-102933368D01*
X141308864Y-102921233D01*
X141477429Y-102870661D01*
X141477434Y-102870659D01*
X141482384Y-102869174D01*
X141682994Y-102770896D01*
X141864860Y-102641173D01*
X141883342Y-102622756D01*
X141965701Y-102540684D01*
X142011877Y-102494669D01*
X148517001Y-102494669D01*
X148517371Y-102501490D01*
X148522895Y-102552352D01*
X148526521Y-102567604D01*
X148571676Y-102688054D01*
X148580214Y-102703649D01*
X148656715Y-102805724D01*
X148669276Y-102818285D01*
X148771351Y-102894786D01*
X148786946Y-102903324D01*
X148907394Y-102948478D01*
X148922649Y-102952105D01*
X148973514Y-102957631D01*
X148980328Y-102958000D01*
X149602885Y-102958000D01*
X149618124Y-102953525D01*
X149619329Y-102952135D01*
X149621000Y-102944452D01*
X149621000Y-102939884D01*
X150129000Y-102939884D01*
X150133475Y-102955123D01*
X150134865Y-102956328D01*
X150142548Y-102957999D01*
X150769669Y-102957999D01*
X150776490Y-102957629D01*
X150827352Y-102952105D01*
X150842604Y-102948479D01*
X150963054Y-102903324D01*
X150978649Y-102894786D01*
X151080724Y-102818285D01*
X151093285Y-102805724D01*
X151169786Y-102703649D01*
X151178324Y-102688054D01*
X151219225Y-102578952D01*
X151261867Y-102522188D01*
X151328428Y-102497488D01*
X151397777Y-102512696D01*
X151432444Y-102540684D01*
X151457865Y-102570031D01*
X151457869Y-102570035D01*
X151461250Y-102573938D01*
X151567813Y-102662408D01*
X151610985Y-102698250D01*
X151650620Y-102757152D01*
X151656500Y-102795194D01*
X151656500Y-102817930D01*
X151655067Y-102836880D01*
X151651801Y-102858349D01*
X151652394Y-102865641D01*
X151652394Y-102865644D01*
X151656085Y-102911018D01*
X151656500Y-102921233D01*
X151656500Y-102929293D01*
X151656925Y-102932937D01*
X151659789Y-102957507D01*
X151660222Y-102961882D01*
X151666140Y-103034637D01*
X151668396Y-103041601D01*
X151669587Y-103047560D01*
X151670971Y-103053415D01*
X151671818Y-103060681D01*
X151696735Y-103129327D01*
X151698152Y-103133455D01*
X151720649Y-103202899D01*
X151724445Y-103209154D01*
X151726951Y-103214628D01*
X151729670Y-103220058D01*
X151732167Y-103226937D01*
X151736180Y-103233057D01*
X151736180Y-103233058D01*
X151772186Y-103287976D01*
X151774523Y-103291680D01*
X151812405Y-103354107D01*
X151816121Y-103358315D01*
X151816122Y-103358316D01*
X151819803Y-103362484D01*
X151819776Y-103362508D01*
X151822429Y-103365500D01*
X151825132Y-103368733D01*
X151829144Y-103374852D01*
X151834456Y-103379884D01*
X151885383Y-103428128D01*
X151887825Y-103430506D01*
X153086230Y-104628911D01*
X153098616Y-104643323D01*
X153107149Y-104654918D01*
X153107154Y-104654923D01*
X153111492Y-104660818D01*
X153117070Y-104665557D01*
X153117073Y-104665560D01*
X153151768Y-104695035D01*
X153159284Y-104701965D01*
X153164979Y-104707660D01*
X153167861Y-104709940D01*
X153187251Y-104725281D01*
X153190655Y-104728072D01*
X153240703Y-104770591D01*
X153246285Y-104775333D01*
X153252801Y-104778661D01*
X153257850Y-104782028D01*
X153262979Y-104785195D01*
X153268716Y-104789734D01*
X153334875Y-104820655D01*
X153338769Y-104822558D01*
X153403808Y-104855769D01*
X153410916Y-104857508D01*
X153416559Y-104859607D01*
X153422322Y-104861524D01*
X153428950Y-104864622D01*
X153436112Y-104866112D01*
X153436113Y-104866112D01*
X153500412Y-104879486D01*
X153504696Y-104880456D01*
X153575610Y-104897808D01*
X153581212Y-104898156D01*
X153581215Y-104898156D01*
X153586764Y-104898500D01*
X153586762Y-104898536D01*
X153590755Y-104898775D01*
X153594947Y-104899149D01*
X153602115Y-104900640D01*
X153679520Y-104898546D01*
X153682928Y-104898500D01*
X158207413Y-104898500D01*
X158281472Y-104922563D01*
X158287902Y-104927235D01*
X158287909Y-104927239D01*
X158293248Y-104931118D01*
X158299276Y-104933802D01*
X158299278Y-104933803D01*
X158461681Y-105006109D01*
X158467712Y-105008794D01*
X158561113Y-105028647D01*
X158648056Y-105047128D01*
X158648061Y-105047128D01*
X158654513Y-105048500D01*
X158845487Y-105048500D01*
X158851939Y-105047128D01*
X158851944Y-105047128D01*
X158938888Y-105028647D01*
X159032288Y-105008794D01*
X159038319Y-105006109D01*
X159200722Y-104933803D01*
X159200724Y-104933802D01*
X159206752Y-104931118D01*
X159212097Y-104927235D01*
X159276481Y-104880457D01*
X159361253Y-104818866D01*
X159466511Y-104701965D01*
X159484621Y-104681852D01*
X159484622Y-104681851D01*
X159489040Y-104676944D01*
X159584527Y-104511556D01*
X159643542Y-104329928D01*
X159663504Y-104140000D01*
X159643542Y-103950072D01*
X159584527Y-103768444D01*
X159489040Y-103603056D01*
X159361253Y-103461134D01*
X159249422Y-103379884D01*
X159212094Y-103352763D01*
X159212093Y-103352762D01*
X159206752Y-103348882D01*
X159200724Y-103346198D01*
X159200722Y-103346197D01*
X159038319Y-103273891D01*
X159038318Y-103273891D01*
X159032288Y-103271206D01*
X158938887Y-103251353D01*
X158851944Y-103232872D01*
X158851939Y-103232872D01*
X158845487Y-103231500D01*
X158654513Y-103231500D01*
X158648061Y-103232872D01*
X158648056Y-103232872D01*
X158561113Y-103251353D01*
X158467712Y-103271206D01*
X158461682Y-103273891D01*
X158461681Y-103273891D01*
X158299278Y-103346197D01*
X158299276Y-103346198D01*
X158293248Y-103348882D01*
X158287909Y-103352761D01*
X158287902Y-103352765D01*
X158281472Y-103357437D01*
X158207413Y-103381500D01*
X154036371Y-103381500D01*
X153968250Y-103361498D01*
X153947276Y-103344595D01*
X153358564Y-102755883D01*
X153324538Y-102693571D01*
X153329603Y-102622756D01*
X153358719Y-102577537D01*
X153404242Y-102532173D01*
X153453096Y-102483489D01*
X153583453Y-102302077D01*
X153584776Y-102303028D01*
X153631645Y-102259857D01*
X153701580Y-102247625D01*
X153767026Y-102275144D01*
X153794875Y-102306994D01*
X153854987Y-102405088D01*
X154001250Y-102573938D01*
X154173126Y-102716632D01*
X154366000Y-102829338D01*
X154574692Y-102909030D01*
X154579760Y-102910061D01*
X154579763Y-102910062D01*
X154634671Y-102921233D01*
X154793597Y-102953567D01*
X154798772Y-102953757D01*
X154798774Y-102953757D01*
X155011673Y-102961564D01*
X155011677Y-102961564D01*
X155016837Y-102961753D01*
X155021957Y-102961097D01*
X155021959Y-102961097D01*
X155233288Y-102934025D01*
X155233289Y-102934025D01*
X155238416Y-102933368D01*
X155278864Y-102921233D01*
X155447429Y-102870661D01*
X155447434Y-102870659D01*
X155452384Y-102869174D01*
X155652994Y-102770896D01*
X155834860Y-102641173D01*
X155853342Y-102622756D01*
X155935701Y-102540684D01*
X155981877Y-102494669D01*
X162487001Y-102494669D01*
X162487371Y-102501490D01*
X162492895Y-102552352D01*
X162496521Y-102567604D01*
X162541676Y-102688054D01*
X162550214Y-102703649D01*
X162626715Y-102805724D01*
X162639276Y-102818285D01*
X162741351Y-102894786D01*
X162756946Y-102903324D01*
X162877394Y-102948478D01*
X162892649Y-102952105D01*
X162943514Y-102957631D01*
X162950328Y-102958000D01*
X163572885Y-102958000D01*
X163588124Y-102953525D01*
X163589329Y-102952135D01*
X163591000Y-102944452D01*
X163591000Y-102939884D01*
X164099000Y-102939884D01*
X164103475Y-102955123D01*
X164104865Y-102956328D01*
X164112548Y-102957999D01*
X164739669Y-102957999D01*
X164746490Y-102957629D01*
X164797352Y-102952105D01*
X164812604Y-102948479D01*
X164933054Y-102903324D01*
X164948649Y-102894786D01*
X165050724Y-102818285D01*
X165063285Y-102805724D01*
X165139786Y-102703649D01*
X165148324Y-102688054D01*
X165189225Y-102578952D01*
X165231867Y-102522188D01*
X165298428Y-102497488D01*
X165367777Y-102512696D01*
X165402444Y-102540684D01*
X165427865Y-102570031D01*
X165427869Y-102570035D01*
X165431250Y-102573938D01*
X165603126Y-102716632D01*
X165796000Y-102829338D01*
X166004692Y-102909030D01*
X166009760Y-102910061D01*
X166009763Y-102910062D01*
X166064671Y-102921233D01*
X166223597Y-102953567D01*
X166228772Y-102953757D01*
X166228774Y-102953757D01*
X166441673Y-102961564D01*
X166441677Y-102961564D01*
X166446837Y-102961753D01*
X166451957Y-102961097D01*
X166451959Y-102961097D01*
X166663288Y-102934025D01*
X166663289Y-102934025D01*
X166668416Y-102933368D01*
X166708864Y-102921233D01*
X166877429Y-102870661D01*
X166877434Y-102870659D01*
X166882384Y-102869174D01*
X167082994Y-102770896D01*
X167264860Y-102641173D01*
X167283342Y-102622756D01*
X167365701Y-102540684D01*
X167423096Y-102483489D01*
X167553453Y-102302077D01*
X167554776Y-102303028D01*
X167601645Y-102259857D01*
X167671580Y-102247625D01*
X167737026Y-102275144D01*
X167764875Y-102306994D01*
X167824987Y-102405088D01*
X167971250Y-102573938D01*
X168143126Y-102716632D01*
X168336000Y-102829338D01*
X168544692Y-102909030D01*
X168549760Y-102910061D01*
X168549763Y-102910062D01*
X168604671Y-102921233D01*
X168763597Y-102953567D01*
X168768772Y-102953757D01*
X168768774Y-102953757D01*
X168981673Y-102961564D01*
X168981677Y-102961564D01*
X168986837Y-102961753D01*
X168991957Y-102961097D01*
X168991959Y-102961097D01*
X169203288Y-102934025D01*
X169203289Y-102934025D01*
X169208416Y-102933368D01*
X169248864Y-102921233D01*
X169417429Y-102870661D01*
X169417434Y-102870659D01*
X169422384Y-102869174D01*
X169622994Y-102770896D01*
X169804860Y-102641173D01*
X169823342Y-102622756D01*
X169905701Y-102540684D01*
X169963096Y-102483489D01*
X170093453Y-102302077D01*
X170114320Y-102259857D01*
X170190136Y-102106453D01*
X170190137Y-102106451D01*
X170192430Y-102101811D01*
X170257370Y-101888069D01*
X170286529Y-101666590D01*
X170288156Y-101600000D01*
X170269852Y-101377361D01*
X170215431Y-101160702D01*
X170126354Y-100955840D01*
X170005014Y-100768277D01*
X169854670Y-100603051D01*
X169850619Y-100599852D01*
X169850615Y-100599848D01*
X169683414Y-100467800D01*
X169683410Y-100467798D01*
X169679359Y-100464598D01*
X169483789Y-100356638D01*
X169478920Y-100354914D01*
X169478916Y-100354912D01*
X169278087Y-100283795D01*
X169278083Y-100283794D01*
X169273212Y-100282069D01*
X169268119Y-100281162D01*
X169268116Y-100281161D01*
X169058373Y-100243800D01*
X169058367Y-100243799D01*
X169053284Y-100242894D01*
X168979452Y-100241992D01*
X168835081Y-100240228D01*
X168835079Y-100240228D01*
X168829911Y-100240165D01*
X168609091Y-100273955D01*
X168396756Y-100343357D01*
X168198607Y-100446507D01*
X168194474Y-100449610D01*
X168194471Y-100449612D01*
X168111450Y-100511946D01*
X168019965Y-100580635D01*
X167865629Y-100742138D01*
X167758201Y-100899621D01*
X167703293Y-100944621D01*
X167632768Y-100952792D01*
X167569021Y-100921538D01*
X167548324Y-100897054D01*
X167467822Y-100772617D01*
X167467820Y-100772614D01*
X167465014Y-100768277D01*
X167314670Y-100603051D01*
X167310619Y-100599852D01*
X167310615Y-100599848D01*
X167143414Y-100467800D01*
X167143410Y-100467798D01*
X167139359Y-100464598D01*
X166943789Y-100356638D01*
X166938920Y-100354914D01*
X166938916Y-100354912D01*
X166738087Y-100283795D01*
X166738083Y-100283794D01*
X166733212Y-100282069D01*
X166728119Y-100281162D01*
X166728116Y-100281161D01*
X166518373Y-100243800D01*
X166518367Y-100243799D01*
X166513284Y-100242894D01*
X166439452Y-100241992D01*
X166295081Y-100240228D01*
X166295079Y-100240228D01*
X166289911Y-100240165D01*
X166069091Y-100273955D01*
X165856756Y-100343357D01*
X165658607Y-100446507D01*
X165654474Y-100449610D01*
X165654471Y-100449612D01*
X165571450Y-100511946D01*
X165479965Y-100580635D01*
X165476393Y-100584373D01*
X165398898Y-100665466D01*
X165337374Y-100700895D01*
X165266462Y-100697438D01*
X165208676Y-100656192D01*
X165189823Y-100622644D01*
X165148324Y-100511946D01*
X165139786Y-100496351D01*
X165063285Y-100394276D01*
X165050724Y-100381715D01*
X164948649Y-100305214D01*
X164933054Y-100296676D01*
X164812606Y-100251522D01*
X164797351Y-100247895D01*
X164746486Y-100242369D01*
X164739672Y-100242000D01*
X164117115Y-100242000D01*
X164101876Y-100246475D01*
X164100671Y-100247865D01*
X164099000Y-100255548D01*
X164099000Y-102939884D01*
X163591000Y-102939884D01*
X163591000Y-101872115D01*
X163586525Y-101856876D01*
X163585135Y-101855671D01*
X163577452Y-101854000D01*
X162505116Y-101854000D01*
X162489877Y-101858475D01*
X162488672Y-101859865D01*
X162487001Y-101867548D01*
X162487001Y-102494669D01*
X155981877Y-102494669D01*
X155993096Y-102483489D01*
X156123453Y-102302077D01*
X156144320Y-102259857D01*
X156220136Y-102106453D01*
X156220137Y-102106451D01*
X156222430Y-102101811D01*
X156287370Y-101888069D01*
X156316529Y-101666590D01*
X156318156Y-101600000D01*
X156299852Y-101377361D01*
X156287424Y-101327885D01*
X162487000Y-101327885D01*
X162491475Y-101343124D01*
X162492865Y-101344329D01*
X162500548Y-101346000D01*
X163572885Y-101346000D01*
X163588124Y-101341525D01*
X163589329Y-101340135D01*
X163591000Y-101332452D01*
X163591000Y-100260116D01*
X163586525Y-100244877D01*
X163585135Y-100243672D01*
X163577452Y-100242001D01*
X162950331Y-100242001D01*
X162943510Y-100242371D01*
X162892648Y-100247895D01*
X162877396Y-100251521D01*
X162756946Y-100296676D01*
X162741351Y-100305214D01*
X162639276Y-100381715D01*
X162626715Y-100394276D01*
X162550214Y-100496351D01*
X162541676Y-100511946D01*
X162496522Y-100632394D01*
X162492895Y-100647649D01*
X162487369Y-100698514D01*
X162487000Y-100705328D01*
X162487000Y-101327885D01*
X156287424Y-101327885D01*
X156245431Y-101160702D01*
X156156354Y-100955840D01*
X156035014Y-100768277D01*
X155884670Y-100603051D01*
X155880619Y-100599852D01*
X155880615Y-100599848D01*
X155713414Y-100467800D01*
X155713410Y-100467798D01*
X155709359Y-100464598D01*
X155513789Y-100356638D01*
X155508920Y-100354914D01*
X155508916Y-100354912D01*
X155308087Y-100283795D01*
X155308083Y-100283794D01*
X155303212Y-100282069D01*
X155298119Y-100281162D01*
X155298116Y-100281161D01*
X155088373Y-100243800D01*
X155088367Y-100243799D01*
X155083284Y-100242894D01*
X155009452Y-100241992D01*
X154865081Y-100240228D01*
X154865079Y-100240228D01*
X154859911Y-100240165D01*
X154639091Y-100273955D01*
X154426756Y-100343357D01*
X154228607Y-100446507D01*
X154224474Y-100449610D01*
X154224471Y-100449612D01*
X154141450Y-100511946D01*
X154049965Y-100580635D01*
X153895629Y-100742138D01*
X153788201Y-100899621D01*
X153733293Y-100944621D01*
X153662768Y-100952792D01*
X153599021Y-100921538D01*
X153578324Y-100897054D01*
X153497822Y-100772617D01*
X153497820Y-100772614D01*
X153495014Y-100768277D01*
X153344670Y-100603051D01*
X153340619Y-100599852D01*
X153340615Y-100599848D01*
X153173414Y-100467800D01*
X153173410Y-100467798D01*
X153169359Y-100464598D01*
X152973789Y-100356638D01*
X152968920Y-100354914D01*
X152968916Y-100354912D01*
X152768087Y-100283795D01*
X152768083Y-100283794D01*
X152763212Y-100282069D01*
X152758119Y-100281162D01*
X152758116Y-100281161D01*
X152548373Y-100243800D01*
X152548367Y-100243799D01*
X152543284Y-100242894D01*
X152469452Y-100241992D01*
X152325081Y-100240228D01*
X152325079Y-100240228D01*
X152319911Y-100240165D01*
X152099091Y-100273955D01*
X151886756Y-100343357D01*
X151688607Y-100446507D01*
X151684474Y-100449610D01*
X151684471Y-100449612D01*
X151601450Y-100511946D01*
X151509965Y-100580635D01*
X151506393Y-100584373D01*
X151428898Y-100665466D01*
X151367374Y-100700895D01*
X151296462Y-100697438D01*
X151238676Y-100656192D01*
X151219823Y-100622644D01*
X151178324Y-100511946D01*
X151169786Y-100496351D01*
X151093285Y-100394276D01*
X151080724Y-100381715D01*
X150978649Y-100305214D01*
X150963054Y-100296676D01*
X150842606Y-100251522D01*
X150827351Y-100247895D01*
X150776486Y-100242369D01*
X150769672Y-100242000D01*
X150147115Y-100242000D01*
X150131876Y-100246475D01*
X150130671Y-100247865D01*
X150129000Y-100255548D01*
X150129000Y-102939884D01*
X149621000Y-102939884D01*
X149621000Y-101872115D01*
X149616525Y-101856876D01*
X149615135Y-101855671D01*
X149607452Y-101854000D01*
X148535116Y-101854000D01*
X148519877Y-101858475D01*
X148518672Y-101859865D01*
X148517001Y-101867548D01*
X148517001Y-102494669D01*
X142011877Y-102494669D01*
X142023096Y-102483489D01*
X142153453Y-102302077D01*
X142174320Y-102259857D01*
X142250136Y-102106453D01*
X142250137Y-102106451D01*
X142252430Y-102101811D01*
X142317370Y-101888069D01*
X142346529Y-101666590D01*
X142348156Y-101600000D01*
X142329852Y-101377361D01*
X142317424Y-101327885D01*
X148517000Y-101327885D01*
X148521475Y-101343124D01*
X148522865Y-101344329D01*
X148530548Y-101346000D01*
X149602885Y-101346000D01*
X149618124Y-101341525D01*
X149619329Y-101340135D01*
X149621000Y-101332452D01*
X149621000Y-100260116D01*
X149616525Y-100244877D01*
X149615135Y-100243672D01*
X149607452Y-100242001D01*
X148980331Y-100242001D01*
X148973510Y-100242371D01*
X148922648Y-100247895D01*
X148907396Y-100251521D01*
X148786946Y-100296676D01*
X148771351Y-100305214D01*
X148669276Y-100381715D01*
X148656715Y-100394276D01*
X148580214Y-100496351D01*
X148571676Y-100511946D01*
X148526522Y-100632394D01*
X148522895Y-100647649D01*
X148517369Y-100698514D01*
X148517000Y-100705328D01*
X148517000Y-101327885D01*
X142317424Y-101327885D01*
X142275431Y-101160702D01*
X142186354Y-100955840D01*
X142065014Y-100768277D01*
X141914670Y-100603051D01*
X141910619Y-100599852D01*
X141910615Y-100599848D01*
X141743414Y-100467800D01*
X141743410Y-100467798D01*
X141739359Y-100464598D01*
X141543789Y-100356638D01*
X141538920Y-100354914D01*
X141538916Y-100354912D01*
X141338087Y-100283795D01*
X141338083Y-100283794D01*
X141333212Y-100282069D01*
X141328119Y-100281162D01*
X141328116Y-100281161D01*
X141118373Y-100243800D01*
X141118367Y-100243799D01*
X141113284Y-100242894D01*
X141039452Y-100241992D01*
X140895081Y-100240228D01*
X140895079Y-100240228D01*
X140889911Y-100240165D01*
X140669091Y-100273955D01*
X140456756Y-100343357D01*
X140258607Y-100446507D01*
X140254474Y-100449610D01*
X140254471Y-100449612D01*
X140171450Y-100511946D01*
X140079965Y-100580635D01*
X139925629Y-100742138D01*
X139818201Y-100899621D01*
X139763293Y-100944621D01*
X139692768Y-100952792D01*
X139629021Y-100921538D01*
X139608324Y-100897054D01*
X139527822Y-100772617D01*
X139527820Y-100772614D01*
X139525014Y-100768277D01*
X139374670Y-100603051D01*
X139370619Y-100599852D01*
X139370615Y-100599848D01*
X139203414Y-100467800D01*
X139203410Y-100467798D01*
X139199359Y-100464598D01*
X139003789Y-100356638D01*
X138998920Y-100354914D01*
X138998916Y-100354912D01*
X138798087Y-100283795D01*
X138798083Y-100283794D01*
X138793212Y-100282069D01*
X138788119Y-100281162D01*
X138788116Y-100281161D01*
X138578373Y-100243800D01*
X138578367Y-100243799D01*
X138573284Y-100242894D01*
X138499452Y-100241992D01*
X138355081Y-100240228D01*
X138355079Y-100240228D01*
X138349911Y-100240165D01*
X138129091Y-100273955D01*
X137916756Y-100343357D01*
X137718607Y-100446507D01*
X137714474Y-100449610D01*
X137714471Y-100449612D01*
X137631450Y-100511946D01*
X137539965Y-100580635D01*
X137536393Y-100584373D01*
X137458898Y-100665466D01*
X137397374Y-100700895D01*
X137326462Y-100697438D01*
X137268676Y-100656192D01*
X137249823Y-100622644D01*
X137208324Y-100511946D01*
X137199786Y-100496351D01*
X137123285Y-100394276D01*
X137110724Y-100381715D01*
X137008649Y-100305214D01*
X136993054Y-100296676D01*
X136872606Y-100251522D01*
X136857351Y-100247895D01*
X136806486Y-100242369D01*
X136799672Y-100242000D01*
X136177115Y-100242000D01*
X136161876Y-100246475D01*
X136160671Y-100247865D01*
X136159000Y-100255548D01*
X136159000Y-102939884D01*
X135651000Y-102939884D01*
X135651000Y-101872115D01*
X135646525Y-101856876D01*
X135645135Y-101855671D01*
X135637452Y-101854000D01*
X134565116Y-101854000D01*
X134549877Y-101858475D01*
X134548672Y-101859865D01*
X134547001Y-101867548D01*
X134547001Y-102494669D01*
X128041877Y-102494669D01*
X128053096Y-102483489D01*
X128183453Y-102302077D01*
X128204320Y-102259857D01*
X128280136Y-102106453D01*
X128280137Y-102106451D01*
X128282430Y-102101811D01*
X128347370Y-101888069D01*
X128376529Y-101666590D01*
X128378156Y-101600000D01*
X128359852Y-101377361D01*
X128347424Y-101327885D01*
X134547000Y-101327885D01*
X134551475Y-101343124D01*
X134552865Y-101344329D01*
X134560548Y-101346000D01*
X135632885Y-101346000D01*
X135648124Y-101341525D01*
X135649329Y-101340135D01*
X135651000Y-101332452D01*
X135651000Y-100260116D01*
X135646525Y-100244877D01*
X135645135Y-100243672D01*
X135637452Y-100242001D01*
X135010331Y-100242001D01*
X135003510Y-100242371D01*
X134952648Y-100247895D01*
X134937396Y-100251521D01*
X134816946Y-100296676D01*
X134801351Y-100305214D01*
X134699276Y-100381715D01*
X134686715Y-100394276D01*
X134610214Y-100496351D01*
X134601676Y-100511946D01*
X134556522Y-100632394D01*
X134552895Y-100647649D01*
X134547369Y-100698514D01*
X134547000Y-100705328D01*
X134547000Y-101327885D01*
X128347424Y-101327885D01*
X128305431Y-101160702D01*
X128216354Y-100955840D01*
X128095014Y-100768277D01*
X127944670Y-100603051D01*
X127940619Y-100599852D01*
X127940615Y-100599848D01*
X127773414Y-100467800D01*
X127773410Y-100467798D01*
X127769359Y-100464598D01*
X127573789Y-100356638D01*
X127568920Y-100354914D01*
X127568916Y-100354912D01*
X127368087Y-100283795D01*
X127368083Y-100283794D01*
X127363212Y-100282069D01*
X127358119Y-100281162D01*
X127358116Y-100281161D01*
X127148373Y-100243800D01*
X127148367Y-100243799D01*
X127143284Y-100242894D01*
X127069452Y-100241992D01*
X126925081Y-100240228D01*
X126925079Y-100240228D01*
X126919911Y-100240165D01*
X126699091Y-100273955D01*
X126486756Y-100343357D01*
X126288607Y-100446507D01*
X126284474Y-100449610D01*
X126284471Y-100449612D01*
X126201450Y-100511946D01*
X126109965Y-100580635D01*
X125955629Y-100742138D01*
X125848201Y-100899621D01*
X125793293Y-100944621D01*
X125722768Y-100952792D01*
X125659021Y-100921538D01*
X125638324Y-100897054D01*
X125557822Y-100772617D01*
X125557820Y-100772614D01*
X125555014Y-100768277D01*
X125404670Y-100603051D01*
X125400619Y-100599852D01*
X125400615Y-100599848D01*
X125233414Y-100467800D01*
X125233410Y-100467798D01*
X125229359Y-100464598D01*
X125033789Y-100356638D01*
X125028920Y-100354914D01*
X125028916Y-100354912D01*
X124828087Y-100283795D01*
X124828083Y-100283794D01*
X124823212Y-100282069D01*
X124818119Y-100281162D01*
X124818116Y-100281161D01*
X124608373Y-100243800D01*
X124608367Y-100243799D01*
X124603284Y-100242894D01*
X124529452Y-100241992D01*
X124385081Y-100240228D01*
X124385079Y-100240228D01*
X124379911Y-100240165D01*
X124159091Y-100273955D01*
X123946756Y-100343357D01*
X123748607Y-100446507D01*
X123744474Y-100449610D01*
X123744471Y-100449612D01*
X123661450Y-100511946D01*
X123569965Y-100580635D01*
X123566393Y-100584373D01*
X123488898Y-100665466D01*
X123427374Y-100700895D01*
X123356462Y-100697438D01*
X123298676Y-100656192D01*
X123279823Y-100622644D01*
X123238324Y-100511946D01*
X123229786Y-100496351D01*
X123153285Y-100394276D01*
X123140724Y-100381715D01*
X123038649Y-100305214D01*
X123023054Y-100296676D01*
X122902606Y-100251522D01*
X122887351Y-100247895D01*
X122836486Y-100242369D01*
X122829672Y-100242000D01*
X122207115Y-100242000D01*
X122191876Y-100246475D01*
X122190671Y-100247865D01*
X122189000Y-100255548D01*
X122189000Y-102939884D01*
X121681000Y-102939884D01*
X121681000Y-101872115D01*
X121676525Y-101856876D01*
X121675135Y-101855671D01*
X121667452Y-101854000D01*
X120595116Y-101854000D01*
X120579877Y-101858475D01*
X120578672Y-101859865D01*
X120577001Y-101867548D01*
X120577001Y-102494669D01*
X117348000Y-102494669D01*
X117348000Y-101327885D01*
X120577000Y-101327885D01*
X120581475Y-101343124D01*
X120582865Y-101344329D01*
X120590548Y-101346000D01*
X121662885Y-101346000D01*
X121678124Y-101341525D01*
X121679329Y-101340135D01*
X121681000Y-101332452D01*
X121681000Y-100260116D01*
X121676525Y-100244877D01*
X121675135Y-100243672D01*
X121667452Y-100242001D01*
X121040331Y-100242001D01*
X121033510Y-100242371D01*
X120982648Y-100247895D01*
X120967396Y-100251521D01*
X120846946Y-100296676D01*
X120831351Y-100305214D01*
X120729276Y-100381715D01*
X120716715Y-100394276D01*
X120640214Y-100496351D01*
X120631676Y-100511946D01*
X120586522Y-100632394D01*
X120582895Y-100647649D01*
X120577369Y-100698514D01*
X120577000Y-100705328D01*
X120577000Y-101327885D01*
X117348000Y-101327885D01*
X117348000Y-97790000D01*
X125686502Y-97790000D01*
X125706457Y-98018087D01*
X125765716Y-98239243D01*
X125768039Y-98244224D01*
X125768039Y-98244225D01*
X125860151Y-98441762D01*
X125860154Y-98441767D01*
X125862477Y-98446749D01*
X125993802Y-98634300D01*
X126155700Y-98796198D01*
X126160208Y-98799355D01*
X126160211Y-98799357D01*
X126238389Y-98854098D01*
X126343251Y-98927523D01*
X126348233Y-98929846D01*
X126348238Y-98929849D01*
X126545775Y-99021961D01*
X126550757Y-99024284D01*
X126556065Y-99025706D01*
X126556067Y-99025707D01*
X126766598Y-99082119D01*
X126766600Y-99082119D01*
X126771913Y-99083543D01*
X127000000Y-99103498D01*
X127228087Y-99083543D01*
X127233400Y-99082119D01*
X127233402Y-99082119D01*
X127443933Y-99025707D01*
X127443935Y-99025706D01*
X127449243Y-99024284D01*
X127454225Y-99021961D01*
X127651762Y-98929849D01*
X127651767Y-98929846D01*
X127656749Y-98927523D01*
X127761611Y-98854098D01*
X127839789Y-98799357D01*
X127839792Y-98799355D01*
X127844300Y-98796198D01*
X128006198Y-98634300D01*
X128137523Y-98446749D01*
X128139846Y-98441767D01*
X128139849Y-98441762D01*
X128231961Y-98244225D01*
X128231961Y-98244224D01*
X128234284Y-98239243D01*
X128293543Y-98018087D01*
X128313498Y-97790000D01*
X130766502Y-97790000D01*
X130786457Y-98018087D01*
X130845716Y-98239243D01*
X130848039Y-98244224D01*
X130848039Y-98244225D01*
X130940151Y-98441762D01*
X130940154Y-98441767D01*
X130942477Y-98446749D01*
X131073802Y-98634300D01*
X131235700Y-98796198D01*
X131240208Y-98799355D01*
X131240211Y-98799357D01*
X131318389Y-98854098D01*
X131423251Y-98927523D01*
X131428233Y-98929846D01*
X131428238Y-98929849D01*
X131625775Y-99021961D01*
X131630757Y-99024284D01*
X131636065Y-99025706D01*
X131636067Y-99025707D01*
X131846598Y-99082119D01*
X131846600Y-99082119D01*
X131851913Y-99083543D01*
X132080000Y-99103498D01*
X132308087Y-99083543D01*
X132313400Y-99082119D01*
X132313402Y-99082119D01*
X132523933Y-99025707D01*
X132523935Y-99025706D01*
X132529243Y-99024284D01*
X132534225Y-99021961D01*
X132731762Y-98929849D01*
X132731767Y-98929846D01*
X132736749Y-98927523D01*
X132841611Y-98854098D01*
X132919789Y-98799357D01*
X132919792Y-98799355D01*
X132924300Y-98796198D01*
X133086198Y-98634300D01*
X133217523Y-98446749D01*
X133219846Y-98441767D01*
X133219849Y-98441762D01*
X133311961Y-98244225D01*
X133311961Y-98244224D01*
X133314284Y-98239243D01*
X133373543Y-98018087D01*
X133393498Y-97790000D01*
X135846502Y-97790000D01*
X135866457Y-98018087D01*
X135925716Y-98239243D01*
X135928039Y-98244224D01*
X135928039Y-98244225D01*
X136020151Y-98441762D01*
X136020154Y-98441767D01*
X136022477Y-98446749D01*
X136153802Y-98634300D01*
X136315700Y-98796198D01*
X136320208Y-98799355D01*
X136320211Y-98799357D01*
X136398389Y-98854098D01*
X136503251Y-98927523D01*
X136508233Y-98929846D01*
X136508238Y-98929849D01*
X136705775Y-99021961D01*
X136710757Y-99024284D01*
X136716065Y-99025706D01*
X136716067Y-99025707D01*
X136926598Y-99082119D01*
X136926600Y-99082119D01*
X136931913Y-99083543D01*
X137160000Y-99103498D01*
X137388087Y-99083543D01*
X137393400Y-99082119D01*
X137393402Y-99082119D01*
X137603933Y-99025707D01*
X137603935Y-99025706D01*
X137609243Y-99024284D01*
X137614225Y-99021961D01*
X137811762Y-98929849D01*
X137811767Y-98929846D01*
X137816749Y-98927523D01*
X137921611Y-98854098D01*
X137999789Y-98799357D01*
X137999792Y-98799355D01*
X138004300Y-98796198D01*
X138166198Y-98634300D01*
X138297523Y-98446749D01*
X138299846Y-98441767D01*
X138299849Y-98441762D01*
X138391961Y-98244225D01*
X138391961Y-98244224D01*
X138394284Y-98239243D01*
X138453543Y-98018087D01*
X138473498Y-97790000D01*
X140926502Y-97790000D01*
X140946457Y-98018087D01*
X141005716Y-98239243D01*
X141008039Y-98244224D01*
X141008039Y-98244225D01*
X141100151Y-98441762D01*
X141100154Y-98441767D01*
X141102477Y-98446749D01*
X141233802Y-98634300D01*
X141395700Y-98796198D01*
X141400208Y-98799355D01*
X141400211Y-98799357D01*
X141478389Y-98854098D01*
X141583251Y-98927523D01*
X141588233Y-98929846D01*
X141588238Y-98929849D01*
X141785775Y-99021961D01*
X141790757Y-99024284D01*
X141796065Y-99025706D01*
X141796067Y-99025707D01*
X142006598Y-99082119D01*
X142006600Y-99082119D01*
X142011913Y-99083543D01*
X142240000Y-99103498D01*
X142468087Y-99083543D01*
X142473400Y-99082119D01*
X142473402Y-99082119D01*
X142683933Y-99025707D01*
X142683935Y-99025706D01*
X142689243Y-99024284D01*
X142694225Y-99021961D01*
X142891762Y-98929849D01*
X142891767Y-98929846D01*
X142896749Y-98927523D01*
X143001611Y-98854098D01*
X143079789Y-98799357D01*
X143079792Y-98799355D01*
X143084300Y-98796198D01*
X143246198Y-98634300D01*
X143377523Y-98446749D01*
X143379846Y-98441767D01*
X143379849Y-98441762D01*
X143471961Y-98244225D01*
X143471961Y-98244224D01*
X143474284Y-98239243D01*
X143533543Y-98018087D01*
X143553498Y-97790000D01*
X146006502Y-97790000D01*
X146026457Y-98018087D01*
X146085716Y-98239243D01*
X146088039Y-98244224D01*
X146088039Y-98244225D01*
X146180151Y-98441762D01*
X146180154Y-98441767D01*
X146182477Y-98446749D01*
X146313802Y-98634300D01*
X146475700Y-98796198D01*
X146480208Y-98799355D01*
X146480211Y-98799357D01*
X146558389Y-98854098D01*
X146663251Y-98927523D01*
X146668233Y-98929846D01*
X146668238Y-98929849D01*
X146865775Y-99021961D01*
X146870757Y-99024284D01*
X146876065Y-99025706D01*
X146876067Y-99025707D01*
X147086598Y-99082119D01*
X147086600Y-99082119D01*
X147091913Y-99083543D01*
X147320000Y-99103498D01*
X147548087Y-99083543D01*
X147553400Y-99082119D01*
X147553402Y-99082119D01*
X147763933Y-99025707D01*
X147763935Y-99025706D01*
X147769243Y-99024284D01*
X147774225Y-99021961D01*
X147971762Y-98929849D01*
X147971767Y-98929846D01*
X147976749Y-98927523D01*
X148081611Y-98854098D01*
X148159789Y-98799357D01*
X148159792Y-98799355D01*
X148164300Y-98796198D01*
X148326198Y-98634300D01*
X148457523Y-98446749D01*
X148459846Y-98441767D01*
X148459849Y-98441762D01*
X148551961Y-98244225D01*
X148551961Y-98244224D01*
X148554284Y-98239243D01*
X148613543Y-98018087D01*
X148633498Y-97790000D01*
X151086502Y-97790000D01*
X151106457Y-98018087D01*
X151165716Y-98239243D01*
X151168039Y-98244224D01*
X151168039Y-98244225D01*
X151260151Y-98441762D01*
X151260154Y-98441767D01*
X151262477Y-98446749D01*
X151393802Y-98634300D01*
X151555700Y-98796198D01*
X151560208Y-98799355D01*
X151560211Y-98799357D01*
X151638389Y-98854098D01*
X151743251Y-98927523D01*
X151748233Y-98929846D01*
X151748238Y-98929849D01*
X151945775Y-99021961D01*
X151950757Y-99024284D01*
X151956065Y-99025706D01*
X151956067Y-99025707D01*
X152166598Y-99082119D01*
X152166600Y-99082119D01*
X152171913Y-99083543D01*
X152400000Y-99103498D01*
X152628087Y-99083543D01*
X152633400Y-99082119D01*
X152633402Y-99082119D01*
X152843933Y-99025707D01*
X152843935Y-99025706D01*
X152849243Y-99024284D01*
X152854225Y-99021961D01*
X153051762Y-98929849D01*
X153051767Y-98929846D01*
X153056749Y-98927523D01*
X153161611Y-98854098D01*
X153239789Y-98799357D01*
X153239792Y-98799355D01*
X153244300Y-98796198D01*
X153406198Y-98634300D01*
X153537523Y-98446749D01*
X153539846Y-98441767D01*
X153539849Y-98441762D01*
X153631961Y-98244225D01*
X153631961Y-98244224D01*
X153634284Y-98239243D01*
X153693543Y-98018087D01*
X153713498Y-97790000D01*
X156166502Y-97790000D01*
X156186457Y-98018087D01*
X156245716Y-98239243D01*
X156248039Y-98244224D01*
X156248039Y-98244225D01*
X156340151Y-98441762D01*
X156340154Y-98441767D01*
X156342477Y-98446749D01*
X156473802Y-98634300D01*
X156635700Y-98796198D01*
X156640208Y-98799355D01*
X156640211Y-98799357D01*
X156718389Y-98854098D01*
X156823251Y-98927523D01*
X156828233Y-98929846D01*
X156828238Y-98929849D01*
X157025775Y-99021961D01*
X157030757Y-99024284D01*
X157036065Y-99025706D01*
X157036067Y-99025707D01*
X157246598Y-99082119D01*
X157246600Y-99082119D01*
X157251913Y-99083543D01*
X157480000Y-99103498D01*
X157708087Y-99083543D01*
X157713400Y-99082119D01*
X157713402Y-99082119D01*
X157923933Y-99025707D01*
X157923935Y-99025706D01*
X157929243Y-99024284D01*
X157934225Y-99021961D01*
X158131762Y-98929849D01*
X158131767Y-98929846D01*
X158136749Y-98927523D01*
X158241611Y-98854098D01*
X158319789Y-98799357D01*
X158319792Y-98799355D01*
X158324300Y-98796198D01*
X158486198Y-98634300D01*
X158617523Y-98446749D01*
X158619846Y-98441767D01*
X158619849Y-98441762D01*
X158711961Y-98244225D01*
X158711961Y-98244224D01*
X158714284Y-98239243D01*
X158773543Y-98018087D01*
X158793498Y-97790000D01*
X161246502Y-97790000D01*
X161266457Y-98018087D01*
X161325716Y-98239243D01*
X161328039Y-98244224D01*
X161328039Y-98244225D01*
X161420151Y-98441762D01*
X161420154Y-98441767D01*
X161422477Y-98446749D01*
X161553802Y-98634300D01*
X161715700Y-98796198D01*
X161720208Y-98799355D01*
X161720211Y-98799357D01*
X161798389Y-98854098D01*
X161903251Y-98927523D01*
X161908233Y-98929846D01*
X161908238Y-98929849D01*
X162105775Y-99021961D01*
X162110757Y-99024284D01*
X162116065Y-99025706D01*
X162116067Y-99025707D01*
X162326598Y-99082119D01*
X162326600Y-99082119D01*
X162331913Y-99083543D01*
X162560000Y-99103498D01*
X162788087Y-99083543D01*
X162793400Y-99082119D01*
X162793402Y-99082119D01*
X163003933Y-99025707D01*
X163003935Y-99025706D01*
X163009243Y-99024284D01*
X163014225Y-99021961D01*
X163211762Y-98929849D01*
X163211767Y-98929846D01*
X163216749Y-98927523D01*
X163321611Y-98854098D01*
X163399789Y-98799357D01*
X163399792Y-98799355D01*
X163404300Y-98796198D01*
X163566198Y-98634300D01*
X163697523Y-98446749D01*
X163699846Y-98441767D01*
X163699849Y-98441762D01*
X163791961Y-98244225D01*
X163791961Y-98244224D01*
X163794284Y-98239243D01*
X163853543Y-98018087D01*
X163873498Y-97790000D01*
X163853543Y-97561913D01*
X163794284Y-97340757D01*
X163791961Y-97335775D01*
X163699849Y-97138238D01*
X163699846Y-97138233D01*
X163697523Y-97133251D01*
X163624098Y-97028389D01*
X163569357Y-96950211D01*
X163569355Y-96950208D01*
X163566198Y-96945700D01*
X163404300Y-96783802D01*
X163399792Y-96780645D01*
X163399789Y-96780643D01*
X163280491Y-96697110D01*
X163216749Y-96652477D01*
X163211767Y-96650154D01*
X163211762Y-96650151D01*
X163014225Y-96558039D01*
X163014224Y-96558039D01*
X163009243Y-96555716D01*
X163003935Y-96554294D01*
X163003933Y-96554293D01*
X162793402Y-96497881D01*
X162793400Y-96497881D01*
X162788087Y-96496457D01*
X162560000Y-96476502D01*
X162331913Y-96496457D01*
X162326600Y-96497881D01*
X162326598Y-96497881D01*
X162116067Y-96554293D01*
X162116065Y-96554294D01*
X162110757Y-96555716D01*
X162105776Y-96558039D01*
X162105775Y-96558039D01*
X161908238Y-96650151D01*
X161908233Y-96650154D01*
X161903251Y-96652477D01*
X161839509Y-96697110D01*
X161720211Y-96780643D01*
X161720208Y-96780645D01*
X161715700Y-96783802D01*
X161553802Y-96945700D01*
X161550645Y-96950208D01*
X161550643Y-96950211D01*
X161495902Y-97028389D01*
X161422477Y-97133251D01*
X161420154Y-97138233D01*
X161420151Y-97138238D01*
X161328039Y-97335775D01*
X161325716Y-97340757D01*
X161266457Y-97561913D01*
X161246502Y-97790000D01*
X158793498Y-97790000D01*
X158773543Y-97561913D01*
X158714284Y-97340757D01*
X158711961Y-97335775D01*
X158619849Y-97138238D01*
X158619846Y-97138233D01*
X158617523Y-97133251D01*
X158544098Y-97028389D01*
X158489357Y-96950211D01*
X158489355Y-96950208D01*
X158486198Y-96945700D01*
X158324300Y-96783802D01*
X158319792Y-96780645D01*
X158319789Y-96780643D01*
X158200491Y-96697110D01*
X158136749Y-96652477D01*
X158131767Y-96650154D01*
X158131762Y-96650151D01*
X157934225Y-96558039D01*
X157934224Y-96558039D01*
X157929243Y-96555716D01*
X157923935Y-96554294D01*
X157923933Y-96554293D01*
X157713402Y-96497881D01*
X157713400Y-96497881D01*
X157708087Y-96496457D01*
X157480000Y-96476502D01*
X157251913Y-96496457D01*
X157246600Y-96497881D01*
X157246598Y-96497881D01*
X157036067Y-96554293D01*
X157036065Y-96554294D01*
X157030757Y-96555716D01*
X157025776Y-96558039D01*
X157025775Y-96558039D01*
X156828238Y-96650151D01*
X156828233Y-96650154D01*
X156823251Y-96652477D01*
X156759509Y-96697110D01*
X156640211Y-96780643D01*
X156640208Y-96780645D01*
X156635700Y-96783802D01*
X156473802Y-96945700D01*
X156470645Y-96950208D01*
X156470643Y-96950211D01*
X156415902Y-97028389D01*
X156342477Y-97133251D01*
X156340154Y-97138233D01*
X156340151Y-97138238D01*
X156248039Y-97335775D01*
X156245716Y-97340757D01*
X156186457Y-97561913D01*
X156166502Y-97790000D01*
X153713498Y-97790000D01*
X153693543Y-97561913D01*
X153634284Y-97340757D01*
X153631961Y-97335775D01*
X153539849Y-97138238D01*
X153539846Y-97138233D01*
X153537523Y-97133251D01*
X153464098Y-97028389D01*
X153409357Y-96950211D01*
X153409355Y-96950208D01*
X153406198Y-96945700D01*
X153244300Y-96783802D01*
X153239792Y-96780645D01*
X153239789Y-96780643D01*
X153120491Y-96697110D01*
X153056749Y-96652477D01*
X153051767Y-96650154D01*
X153051762Y-96650151D01*
X152854225Y-96558039D01*
X152854224Y-96558039D01*
X152849243Y-96555716D01*
X152843935Y-96554294D01*
X152843933Y-96554293D01*
X152633402Y-96497881D01*
X152633400Y-96497881D01*
X152628087Y-96496457D01*
X152400000Y-96476502D01*
X152171913Y-96496457D01*
X152166600Y-96497881D01*
X152166598Y-96497881D01*
X151956067Y-96554293D01*
X151956065Y-96554294D01*
X151950757Y-96555716D01*
X151945776Y-96558039D01*
X151945775Y-96558039D01*
X151748238Y-96650151D01*
X151748233Y-96650154D01*
X151743251Y-96652477D01*
X151679509Y-96697110D01*
X151560211Y-96780643D01*
X151560208Y-96780645D01*
X151555700Y-96783802D01*
X151393802Y-96945700D01*
X151390645Y-96950208D01*
X151390643Y-96950211D01*
X151335902Y-97028389D01*
X151262477Y-97133251D01*
X151260154Y-97138233D01*
X151260151Y-97138238D01*
X151168039Y-97335775D01*
X151165716Y-97340757D01*
X151106457Y-97561913D01*
X151086502Y-97790000D01*
X148633498Y-97790000D01*
X148613543Y-97561913D01*
X148554284Y-97340757D01*
X148551961Y-97335775D01*
X148459849Y-97138238D01*
X148459846Y-97138233D01*
X148457523Y-97133251D01*
X148384098Y-97028389D01*
X148329357Y-96950211D01*
X148329355Y-96950208D01*
X148326198Y-96945700D01*
X148164300Y-96783802D01*
X148159792Y-96780645D01*
X148159789Y-96780643D01*
X148040491Y-96697110D01*
X147976749Y-96652477D01*
X147971767Y-96650154D01*
X147971762Y-96650151D01*
X147774225Y-96558039D01*
X147774224Y-96558039D01*
X147769243Y-96555716D01*
X147763935Y-96554294D01*
X147763933Y-96554293D01*
X147553402Y-96497881D01*
X147553400Y-96497881D01*
X147548087Y-96496457D01*
X147320000Y-96476502D01*
X147091913Y-96496457D01*
X147086600Y-96497881D01*
X147086598Y-96497881D01*
X146876067Y-96554293D01*
X146876065Y-96554294D01*
X146870757Y-96555716D01*
X146865776Y-96558039D01*
X146865775Y-96558039D01*
X146668238Y-96650151D01*
X146668233Y-96650154D01*
X146663251Y-96652477D01*
X146599509Y-96697110D01*
X146480211Y-96780643D01*
X146480208Y-96780645D01*
X146475700Y-96783802D01*
X146313802Y-96945700D01*
X146310645Y-96950208D01*
X146310643Y-96950211D01*
X146255902Y-97028389D01*
X146182477Y-97133251D01*
X146180154Y-97138233D01*
X146180151Y-97138238D01*
X146088039Y-97335775D01*
X146085716Y-97340757D01*
X146026457Y-97561913D01*
X146006502Y-97790000D01*
X143553498Y-97790000D01*
X143533543Y-97561913D01*
X143474284Y-97340757D01*
X143471961Y-97335775D01*
X143379849Y-97138238D01*
X143379846Y-97138233D01*
X143377523Y-97133251D01*
X143304098Y-97028389D01*
X143249357Y-96950211D01*
X143249355Y-96950208D01*
X143246198Y-96945700D01*
X143084300Y-96783802D01*
X143079792Y-96780645D01*
X143079789Y-96780643D01*
X142960491Y-96697110D01*
X142896749Y-96652477D01*
X142891767Y-96650154D01*
X142891762Y-96650151D01*
X142694225Y-96558039D01*
X142694224Y-96558039D01*
X142689243Y-96555716D01*
X142683935Y-96554294D01*
X142683933Y-96554293D01*
X142473402Y-96497881D01*
X142473400Y-96497881D01*
X142468087Y-96496457D01*
X142240000Y-96476502D01*
X142011913Y-96496457D01*
X142006600Y-96497881D01*
X142006598Y-96497881D01*
X141796067Y-96554293D01*
X141796065Y-96554294D01*
X141790757Y-96555716D01*
X141785776Y-96558039D01*
X141785775Y-96558039D01*
X141588238Y-96650151D01*
X141588233Y-96650154D01*
X141583251Y-96652477D01*
X141519509Y-96697110D01*
X141400211Y-96780643D01*
X141400208Y-96780645D01*
X141395700Y-96783802D01*
X141233802Y-96945700D01*
X141230645Y-96950208D01*
X141230643Y-96950211D01*
X141175902Y-97028389D01*
X141102477Y-97133251D01*
X141100154Y-97138233D01*
X141100151Y-97138238D01*
X141008039Y-97335775D01*
X141005716Y-97340757D01*
X140946457Y-97561913D01*
X140926502Y-97790000D01*
X138473498Y-97790000D01*
X138453543Y-97561913D01*
X138394284Y-97340757D01*
X138391961Y-97335775D01*
X138299849Y-97138238D01*
X138299846Y-97138233D01*
X138297523Y-97133251D01*
X138224098Y-97028389D01*
X138169357Y-96950211D01*
X138169355Y-96950208D01*
X138166198Y-96945700D01*
X138004300Y-96783802D01*
X137999792Y-96780645D01*
X137999789Y-96780643D01*
X137880491Y-96697110D01*
X137816749Y-96652477D01*
X137811767Y-96650154D01*
X137811762Y-96650151D01*
X137614225Y-96558039D01*
X137614224Y-96558039D01*
X137609243Y-96555716D01*
X137603935Y-96554294D01*
X137603933Y-96554293D01*
X137393402Y-96497881D01*
X137393400Y-96497881D01*
X137388087Y-96496457D01*
X137160000Y-96476502D01*
X136931913Y-96496457D01*
X136926600Y-96497881D01*
X136926598Y-96497881D01*
X136716067Y-96554293D01*
X136716065Y-96554294D01*
X136710757Y-96555716D01*
X136705776Y-96558039D01*
X136705775Y-96558039D01*
X136508238Y-96650151D01*
X136508233Y-96650154D01*
X136503251Y-96652477D01*
X136439509Y-96697110D01*
X136320211Y-96780643D01*
X136320208Y-96780645D01*
X136315700Y-96783802D01*
X136153802Y-96945700D01*
X136150645Y-96950208D01*
X136150643Y-96950211D01*
X136095902Y-97028389D01*
X136022477Y-97133251D01*
X136020154Y-97138233D01*
X136020151Y-97138238D01*
X135928039Y-97335775D01*
X135925716Y-97340757D01*
X135866457Y-97561913D01*
X135846502Y-97790000D01*
X133393498Y-97790000D01*
X133373543Y-97561913D01*
X133314284Y-97340757D01*
X133311961Y-97335775D01*
X133219849Y-97138238D01*
X133219846Y-97138233D01*
X133217523Y-97133251D01*
X133144098Y-97028389D01*
X133089357Y-96950211D01*
X133089355Y-96950208D01*
X133086198Y-96945700D01*
X132924300Y-96783802D01*
X132919792Y-96780645D01*
X132919789Y-96780643D01*
X132800491Y-96697110D01*
X132736749Y-96652477D01*
X132731767Y-96650154D01*
X132731762Y-96650151D01*
X132534225Y-96558039D01*
X132534224Y-96558039D01*
X132529243Y-96555716D01*
X132523935Y-96554294D01*
X132523933Y-96554293D01*
X132313402Y-96497881D01*
X132313400Y-96497881D01*
X132308087Y-96496457D01*
X132080000Y-96476502D01*
X131851913Y-96496457D01*
X131846600Y-96497881D01*
X131846598Y-96497881D01*
X131636067Y-96554293D01*
X131636065Y-96554294D01*
X131630757Y-96555716D01*
X131625776Y-96558039D01*
X131625775Y-96558039D01*
X131428238Y-96650151D01*
X131428233Y-96650154D01*
X131423251Y-96652477D01*
X131359509Y-96697110D01*
X131240211Y-96780643D01*
X131240208Y-96780645D01*
X131235700Y-96783802D01*
X131073802Y-96945700D01*
X131070645Y-96950208D01*
X131070643Y-96950211D01*
X131015902Y-97028389D01*
X130942477Y-97133251D01*
X130940154Y-97138233D01*
X130940151Y-97138238D01*
X130848039Y-97335775D01*
X130845716Y-97340757D01*
X130786457Y-97561913D01*
X130766502Y-97790000D01*
X128313498Y-97790000D01*
X128293543Y-97561913D01*
X128234284Y-97340757D01*
X128231961Y-97335775D01*
X128139849Y-97138238D01*
X128139846Y-97138233D01*
X128137523Y-97133251D01*
X128064098Y-97028389D01*
X128009357Y-96950211D01*
X128009355Y-96950208D01*
X128006198Y-96945700D01*
X127844300Y-96783802D01*
X127839792Y-96780645D01*
X127839789Y-96780643D01*
X127720491Y-96697110D01*
X127656749Y-96652477D01*
X127651767Y-96650154D01*
X127651762Y-96650151D01*
X127454225Y-96558039D01*
X127454224Y-96558039D01*
X127449243Y-96555716D01*
X127443935Y-96554294D01*
X127443933Y-96554293D01*
X127233402Y-96497881D01*
X127233400Y-96497881D01*
X127228087Y-96496457D01*
X127000000Y-96476502D01*
X126771913Y-96496457D01*
X126766600Y-96497881D01*
X126766598Y-96497881D01*
X126556067Y-96554293D01*
X126556065Y-96554294D01*
X126550757Y-96555716D01*
X126545776Y-96558039D01*
X126545775Y-96558039D01*
X126348238Y-96650151D01*
X126348233Y-96650154D01*
X126343251Y-96652477D01*
X126279509Y-96697110D01*
X126160211Y-96780643D01*
X126160208Y-96780645D01*
X126155700Y-96783802D01*
X125993802Y-96945700D01*
X125990645Y-96950208D01*
X125990643Y-96950211D01*
X125935902Y-97028389D01*
X125862477Y-97133251D01*
X125860154Y-97138233D01*
X125860151Y-97138238D01*
X125768039Y-97335775D01*
X125765716Y-97340757D01*
X125706457Y-97561913D01*
X125686502Y-97790000D01*
X117348000Y-97790000D01*
X117348000Y-95292277D01*
X118787009Y-95292277D01*
X118812625Y-95560769D01*
X118813710Y-95565203D01*
X118813711Y-95565209D01*
X118875645Y-95818312D01*
X118876731Y-95822750D01*
X118977985Y-96072733D01*
X119114265Y-96305482D01*
X119117118Y-96309049D01*
X119234686Y-96456060D01*
X119282716Y-96516119D01*
X119479809Y-96700234D01*
X119701416Y-96853968D01*
X119705499Y-96855999D01*
X119705502Y-96856001D01*
X119821013Y-96913466D01*
X119942894Y-96974101D01*
X119947228Y-96975522D01*
X119947231Y-96975523D01*
X120194853Y-97056698D01*
X120194859Y-97056699D01*
X120199186Y-97058118D01*
X120203677Y-97058898D01*
X120203678Y-97058898D01*
X120461140Y-97103601D01*
X120461148Y-97103602D01*
X120464921Y-97104257D01*
X120468758Y-97104448D01*
X120548578Y-97108422D01*
X120548586Y-97108422D01*
X120550149Y-97108500D01*
X120718512Y-97108500D01*
X120720780Y-97108335D01*
X120720792Y-97108335D01*
X120851884Y-97098823D01*
X120919004Y-97093953D01*
X120923459Y-97092969D01*
X120923462Y-97092969D01*
X121177912Y-97036791D01*
X121177916Y-97036790D01*
X121182372Y-97035806D01*
X121308480Y-96988028D01*
X121430318Y-96941868D01*
X121430321Y-96941867D01*
X121434588Y-96940250D01*
X121670368Y-96809286D01*
X121875837Y-96652477D01*
X121881141Y-96648429D01*
X121881142Y-96648428D01*
X121884773Y-96645657D01*
X122073312Y-96452792D01*
X122232034Y-96234730D01*
X122315190Y-96076676D01*
X122355490Y-96000079D01*
X122355493Y-96000073D01*
X122357615Y-95996039D01*
X122420378Y-95818312D01*
X122445902Y-95746033D01*
X122445902Y-95746032D01*
X122447425Y-95741720D01*
X122499581Y-95477100D01*
X122508782Y-95292277D01*
X167047009Y-95292277D01*
X167072625Y-95560769D01*
X167073710Y-95565203D01*
X167073711Y-95565209D01*
X167135645Y-95818312D01*
X167136731Y-95822750D01*
X167237985Y-96072733D01*
X167374265Y-96305482D01*
X167377118Y-96309049D01*
X167494686Y-96456060D01*
X167542716Y-96516119D01*
X167739809Y-96700234D01*
X167961416Y-96853968D01*
X167965499Y-96855999D01*
X167965502Y-96856001D01*
X168081013Y-96913466D01*
X168202894Y-96974101D01*
X168207228Y-96975522D01*
X168207231Y-96975523D01*
X168454853Y-97056698D01*
X168454859Y-97056699D01*
X168459186Y-97058118D01*
X168463677Y-97058898D01*
X168463678Y-97058898D01*
X168721140Y-97103601D01*
X168721148Y-97103602D01*
X168724921Y-97104257D01*
X168728758Y-97104448D01*
X168808578Y-97108422D01*
X168808586Y-97108422D01*
X168810149Y-97108500D01*
X168978512Y-97108500D01*
X168980780Y-97108335D01*
X168980792Y-97108335D01*
X169111884Y-97098823D01*
X169179004Y-97093953D01*
X169183459Y-97092969D01*
X169183462Y-97092969D01*
X169437912Y-97036791D01*
X169437916Y-97036790D01*
X169442372Y-97035806D01*
X169568480Y-96988028D01*
X169690318Y-96941868D01*
X169690321Y-96941867D01*
X169694588Y-96940250D01*
X169930368Y-96809286D01*
X170135837Y-96652477D01*
X170141141Y-96648429D01*
X170141142Y-96648428D01*
X170144773Y-96645657D01*
X170333312Y-96452792D01*
X170492034Y-96234730D01*
X170575190Y-96076676D01*
X170615490Y-96000079D01*
X170615493Y-96000073D01*
X170617615Y-95996039D01*
X170680378Y-95818312D01*
X170705902Y-95746033D01*
X170705902Y-95746032D01*
X170707425Y-95741720D01*
X170759581Y-95477100D01*
X170768782Y-95292277D01*
X170772764Y-95212292D01*
X170772764Y-95212286D01*
X170772991Y-95207723D01*
X170747375Y-94939231D01*
X170702042Y-94753967D01*
X170684355Y-94681688D01*
X170683269Y-94677250D01*
X170582015Y-94427267D01*
X170445735Y-94194518D01*
X170327928Y-94047208D01*
X170280136Y-93987447D01*
X170280135Y-93987445D01*
X170277284Y-93983881D01*
X170080191Y-93799766D01*
X169858584Y-93646032D01*
X169854501Y-93644001D01*
X169854498Y-93643999D01*
X169689606Y-93561967D01*
X169617106Y-93525899D01*
X169612772Y-93524478D01*
X169612769Y-93524477D01*
X169365147Y-93443302D01*
X169365141Y-93443301D01*
X169360814Y-93441882D01*
X169356322Y-93441102D01*
X169098860Y-93396399D01*
X169098852Y-93396398D01*
X169095079Y-93395743D01*
X169083817Y-93395182D01*
X169011422Y-93391578D01*
X169011414Y-93391578D01*
X169009851Y-93391500D01*
X168841488Y-93391500D01*
X168839220Y-93391665D01*
X168839208Y-93391665D01*
X168708116Y-93401177D01*
X168640996Y-93406047D01*
X168636541Y-93407031D01*
X168636538Y-93407031D01*
X168382088Y-93463209D01*
X168382084Y-93463210D01*
X168377628Y-93464194D01*
X168251520Y-93511972D01*
X168129682Y-93558132D01*
X168129679Y-93558133D01*
X168125412Y-93559750D01*
X167889632Y-93690714D01*
X167675227Y-93854343D01*
X167486688Y-94047208D01*
X167327966Y-94265270D01*
X167325844Y-94269304D01*
X167204510Y-94499921D01*
X167204507Y-94499927D01*
X167202385Y-94503961D01*
X167200865Y-94508266D01*
X167200863Y-94508270D01*
X167114098Y-94753967D01*
X167112575Y-94758280D01*
X167060419Y-95022900D01*
X167060192Y-95027453D01*
X167060192Y-95027456D01*
X167050991Y-95212292D01*
X167047009Y-95292277D01*
X122508782Y-95292277D01*
X122512764Y-95212292D01*
X122512764Y-95212286D01*
X122512991Y-95207723D01*
X122487375Y-94939231D01*
X122442042Y-94753967D01*
X122424355Y-94681688D01*
X122423269Y-94677250D01*
X122322015Y-94427267D01*
X122185735Y-94194518D01*
X122067928Y-94047208D01*
X122020136Y-93987447D01*
X122020135Y-93987445D01*
X122017284Y-93983881D01*
X121820191Y-93799766D01*
X121598584Y-93646032D01*
X121594501Y-93644001D01*
X121594498Y-93643999D01*
X121429606Y-93561967D01*
X121357106Y-93525899D01*
X121352772Y-93524478D01*
X121352769Y-93524477D01*
X121105147Y-93443302D01*
X121105141Y-93443301D01*
X121100814Y-93441882D01*
X121096322Y-93441102D01*
X120838860Y-93396399D01*
X120838852Y-93396398D01*
X120835079Y-93395743D01*
X120823817Y-93395182D01*
X120751422Y-93391578D01*
X120751414Y-93391578D01*
X120749851Y-93391500D01*
X120581488Y-93391500D01*
X120579220Y-93391665D01*
X120579208Y-93391665D01*
X120448116Y-93401177D01*
X120380996Y-93406047D01*
X120376541Y-93407031D01*
X120376538Y-93407031D01*
X120122088Y-93463209D01*
X120122084Y-93463210D01*
X120117628Y-93464194D01*
X119991520Y-93511972D01*
X119869682Y-93558132D01*
X119869679Y-93558133D01*
X119865412Y-93559750D01*
X119629632Y-93690714D01*
X119415227Y-93854343D01*
X119226688Y-94047208D01*
X119067966Y-94265270D01*
X119065844Y-94269304D01*
X118944510Y-94499921D01*
X118944507Y-94499927D01*
X118942385Y-94503961D01*
X118940865Y-94508266D01*
X118940863Y-94508270D01*
X118854098Y-94753967D01*
X118852575Y-94758280D01*
X118800419Y-95022900D01*
X118800192Y-95027453D01*
X118800192Y-95027456D01*
X118790991Y-95212292D01*
X118787009Y-95292277D01*
X117348000Y-95292277D01*
X117348000Y-90170000D01*
X125686502Y-90170000D01*
X125706457Y-90398087D01*
X125765716Y-90619243D01*
X125768039Y-90624224D01*
X125768039Y-90624225D01*
X125860151Y-90821762D01*
X125860154Y-90821767D01*
X125862477Y-90826749D01*
X125993802Y-91014300D01*
X126155700Y-91176198D01*
X126160208Y-91179355D01*
X126160211Y-91179357D01*
X126238389Y-91234098D01*
X126343251Y-91307523D01*
X126348233Y-91309846D01*
X126348238Y-91309849D01*
X126545775Y-91401961D01*
X126550757Y-91404284D01*
X126556065Y-91405706D01*
X126556067Y-91405707D01*
X126766598Y-91462119D01*
X126766600Y-91462119D01*
X126771913Y-91463543D01*
X127000000Y-91483498D01*
X127228087Y-91463543D01*
X127233400Y-91462119D01*
X127233402Y-91462119D01*
X127443933Y-91405707D01*
X127443935Y-91405706D01*
X127449243Y-91404284D01*
X127454225Y-91401961D01*
X127651762Y-91309849D01*
X127651767Y-91309846D01*
X127656749Y-91307523D01*
X127761611Y-91234098D01*
X127839789Y-91179357D01*
X127839792Y-91179355D01*
X127844300Y-91176198D01*
X128006198Y-91014300D01*
X128137523Y-90826749D01*
X128139846Y-90821767D01*
X128139849Y-90821762D01*
X128231961Y-90624225D01*
X128231961Y-90624224D01*
X128234284Y-90619243D01*
X128293543Y-90398087D01*
X128313498Y-90170000D01*
X130766502Y-90170000D01*
X130786457Y-90398087D01*
X130845716Y-90619243D01*
X130848039Y-90624224D01*
X130848039Y-90624225D01*
X130940151Y-90821762D01*
X130940154Y-90821767D01*
X130942477Y-90826749D01*
X131073802Y-91014300D01*
X131235700Y-91176198D01*
X131240208Y-91179355D01*
X131240211Y-91179357D01*
X131318389Y-91234098D01*
X131423251Y-91307523D01*
X131428233Y-91309846D01*
X131428238Y-91309849D01*
X131625775Y-91401961D01*
X131630757Y-91404284D01*
X131636065Y-91405706D01*
X131636067Y-91405707D01*
X131846598Y-91462119D01*
X131846600Y-91462119D01*
X131851913Y-91463543D01*
X132080000Y-91483498D01*
X132308087Y-91463543D01*
X132313400Y-91462119D01*
X132313402Y-91462119D01*
X132523933Y-91405707D01*
X132523935Y-91405706D01*
X132529243Y-91404284D01*
X132534225Y-91401961D01*
X132731762Y-91309849D01*
X132731767Y-91309846D01*
X132736749Y-91307523D01*
X132841611Y-91234098D01*
X132919789Y-91179357D01*
X132919792Y-91179355D01*
X132924300Y-91176198D01*
X133086198Y-91014300D01*
X133217523Y-90826749D01*
X133219846Y-90821767D01*
X133219849Y-90821762D01*
X133311961Y-90624225D01*
X133311961Y-90624224D01*
X133314284Y-90619243D01*
X133373543Y-90398087D01*
X133393498Y-90170000D01*
X135846502Y-90170000D01*
X135866457Y-90398087D01*
X135925716Y-90619243D01*
X135928039Y-90624224D01*
X135928039Y-90624225D01*
X136020151Y-90821762D01*
X136020154Y-90821767D01*
X136022477Y-90826749D01*
X136153802Y-91014300D01*
X136315700Y-91176198D01*
X136320208Y-91179355D01*
X136320211Y-91179357D01*
X136398389Y-91234098D01*
X136503251Y-91307523D01*
X136508233Y-91309846D01*
X136508238Y-91309849D01*
X136705775Y-91401961D01*
X136710757Y-91404284D01*
X136716065Y-91405706D01*
X136716067Y-91405707D01*
X136926598Y-91462119D01*
X136926600Y-91462119D01*
X136931913Y-91463543D01*
X137160000Y-91483498D01*
X137388087Y-91463543D01*
X137393400Y-91462119D01*
X137393402Y-91462119D01*
X137603933Y-91405707D01*
X137603935Y-91405706D01*
X137609243Y-91404284D01*
X137614225Y-91401961D01*
X137811762Y-91309849D01*
X137811767Y-91309846D01*
X137816749Y-91307523D01*
X137921611Y-91234098D01*
X137999789Y-91179357D01*
X137999792Y-91179355D01*
X138004300Y-91176198D01*
X138166198Y-91014300D01*
X138297523Y-90826749D01*
X138299846Y-90821767D01*
X138299849Y-90821762D01*
X138391961Y-90624225D01*
X138391961Y-90624224D01*
X138394284Y-90619243D01*
X138453543Y-90398087D01*
X138473498Y-90170000D01*
X140926502Y-90170000D01*
X140946457Y-90398087D01*
X141005716Y-90619243D01*
X141008039Y-90624224D01*
X141008039Y-90624225D01*
X141100151Y-90821762D01*
X141100154Y-90821767D01*
X141102477Y-90826749D01*
X141233802Y-91014300D01*
X141395700Y-91176198D01*
X141400208Y-91179355D01*
X141400211Y-91179357D01*
X141478389Y-91234098D01*
X141583251Y-91307523D01*
X141588233Y-91309846D01*
X141588238Y-91309849D01*
X141785775Y-91401961D01*
X141790757Y-91404284D01*
X141796065Y-91405706D01*
X141796067Y-91405707D01*
X142006598Y-91462119D01*
X142006600Y-91462119D01*
X142011913Y-91463543D01*
X142240000Y-91483498D01*
X142468087Y-91463543D01*
X142473400Y-91462119D01*
X142473402Y-91462119D01*
X142683933Y-91405707D01*
X142683935Y-91405706D01*
X142689243Y-91404284D01*
X142694225Y-91401961D01*
X142891762Y-91309849D01*
X142891767Y-91309846D01*
X142896749Y-91307523D01*
X143001611Y-91234098D01*
X143079789Y-91179357D01*
X143079792Y-91179355D01*
X143084300Y-91176198D01*
X143246198Y-91014300D01*
X143377523Y-90826749D01*
X143379846Y-90821767D01*
X143379849Y-90821762D01*
X143471961Y-90624225D01*
X143471961Y-90624224D01*
X143474284Y-90619243D01*
X143533543Y-90398087D01*
X143553498Y-90170000D01*
X146006502Y-90170000D01*
X146026457Y-90398087D01*
X146085716Y-90619243D01*
X146088039Y-90624224D01*
X146088039Y-90624225D01*
X146180151Y-90821762D01*
X146180154Y-90821767D01*
X146182477Y-90826749D01*
X146313802Y-91014300D01*
X146475700Y-91176198D01*
X146480208Y-91179355D01*
X146480211Y-91179357D01*
X146558389Y-91234098D01*
X146663251Y-91307523D01*
X146668233Y-91309846D01*
X146668238Y-91309849D01*
X146865775Y-91401961D01*
X146870757Y-91404284D01*
X146876065Y-91405706D01*
X146876067Y-91405707D01*
X147086598Y-91462119D01*
X147086600Y-91462119D01*
X147091913Y-91463543D01*
X147320000Y-91483498D01*
X147548087Y-91463543D01*
X147553400Y-91462119D01*
X147553402Y-91462119D01*
X147763933Y-91405707D01*
X147763935Y-91405706D01*
X147769243Y-91404284D01*
X147774225Y-91401961D01*
X147971762Y-91309849D01*
X147971767Y-91309846D01*
X147976749Y-91307523D01*
X148081611Y-91234098D01*
X148159789Y-91179357D01*
X148159792Y-91179355D01*
X148164300Y-91176198D01*
X148326198Y-91014300D01*
X148457523Y-90826749D01*
X148459846Y-90821767D01*
X148459849Y-90821762D01*
X148551961Y-90624225D01*
X148551961Y-90624224D01*
X148554284Y-90619243D01*
X148613543Y-90398087D01*
X148633498Y-90170000D01*
X151086502Y-90170000D01*
X151106457Y-90398087D01*
X151165716Y-90619243D01*
X151168039Y-90624224D01*
X151168039Y-90624225D01*
X151260151Y-90821762D01*
X151260154Y-90821767D01*
X151262477Y-90826749D01*
X151393802Y-91014300D01*
X151555700Y-91176198D01*
X151560208Y-91179355D01*
X151560211Y-91179357D01*
X151638389Y-91234098D01*
X151743251Y-91307523D01*
X151748233Y-91309846D01*
X151748238Y-91309849D01*
X151945775Y-91401961D01*
X151950757Y-91404284D01*
X151956065Y-91405706D01*
X151956067Y-91405707D01*
X152166598Y-91462119D01*
X152166600Y-91462119D01*
X152171913Y-91463543D01*
X152400000Y-91483498D01*
X152628087Y-91463543D01*
X152633400Y-91462119D01*
X152633402Y-91462119D01*
X152843933Y-91405707D01*
X152843935Y-91405706D01*
X152849243Y-91404284D01*
X152854225Y-91401961D01*
X153051762Y-91309849D01*
X153051767Y-91309846D01*
X153056749Y-91307523D01*
X153161611Y-91234098D01*
X153239789Y-91179357D01*
X153239792Y-91179355D01*
X153244300Y-91176198D01*
X153406198Y-91014300D01*
X153537523Y-90826749D01*
X153539846Y-90821767D01*
X153539849Y-90821762D01*
X153631961Y-90624225D01*
X153631961Y-90624224D01*
X153634284Y-90619243D01*
X153693543Y-90398087D01*
X153713498Y-90170000D01*
X156166502Y-90170000D01*
X156186457Y-90398087D01*
X156245716Y-90619243D01*
X156248039Y-90624224D01*
X156248039Y-90624225D01*
X156340151Y-90821762D01*
X156340154Y-90821767D01*
X156342477Y-90826749D01*
X156473802Y-91014300D01*
X156635700Y-91176198D01*
X156640208Y-91179355D01*
X156640211Y-91179357D01*
X156718389Y-91234098D01*
X156823251Y-91307523D01*
X156828233Y-91309846D01*
X156828238Y-91309849D01*
X157025775Y-91401961D01*
X157030757Y-91404284D01*
X157036065Y-91405706D01*
X157036067Y-91405707D01*
X157246598Y-91462119D01*
X157246600Y-91462119D01*
X157251913Y-91463543D01*
X157480000Y-91483498D01*
X157708087Y-91463543D01*
X157713400Y-91462119D01*
X157713402Y-91462119D01*
X157923933Y-91405707D01*
X157923935Y-91405706D01*
X157929243Y-91404284D01*
X157934225Y-91401961D01*
X158131762Y-91309849D01*
X158131767Y-91309846D01*
X158136749Y-91307523D01*
X158241611Y-91234098D01*
X158319789Y-91179357D01*
X158319792Y-91179355D01*
X158324300Y-91176198D01*
X158486198Y-91014300D01*
X158617523Y-90826749D01*
X158619846Y-90821767D01*
X158619849Y-90821762D01*
X158711961Y-90624225D01*
X158711961Y-90624224D01*
X158714284Y-90619243D01*
X158773543Y-90398087D01*
X158793498Y-90170000D01*
X161246502Y-90170000D01*
X161266457Y-90398087D01*
X161325716Y-90619243D01*
X161328039Y-90624224D01*
X161328039Y-90624225D01*
X161420151Y-90821762D01*
X161420154Y-90821767D01*
X161422477Y-90826749D01*
X161553802Y-91014300D01*
X161715700Y-91176198D01*
X161720208Y-91179355D01*
X161720211Y-91179357D01*
X161798389Y-91234098D01*
X161903251Y-91307523D01*
X161908233Y-91309846D01*
X161908238Y-91309849D01*
X162105775Y-91401961D01*
X162110757Y-91404284D01*
X162116065Y-91405706D01*
X162116067Y-91405707D01*
X162326598Y-91462119D01*
X162326600Y-91462119D01*
X162331913Y-91463543D01*
X162560000Y-91483498D01*
X162788087Y-91463543D01*
X162793400Y-91462119D01*
X162793402Y-91462119D01*
X163003933Y-91405707D01*
X163003935Y-91405706D01*
X163009243Y-91404284D01*
X163014225Y-91401961D01*
X163211762Y-91309849D01*
X163211767Y-91309846D01*
X163216749Y-91307523D01*
X163321611Y-91234098D01*
X163399789Y-91179357D01*
X163399792Y-91179355D01*
X163404300Y-91176198D01*
X163566198Y-91014300D01*
X163697523Y-90826749D01*
X163699846Y-90821767D01*
X163699849Y-90821762D01*
X163791961Y-90624225D01*
X163791961Y-90624224D01*
X163794284Y-90619243D01*
X163853543Y-90398087D01*
X163873498Y-90170000D01*
X163853543Y-89941913D01*
X163794284Y-89720757D01*
X163791961Y-89715775D01*
X163699849Y-89518238D01*
X163699846Y-89518233D01*
X163697523Y-89513251D01*
X163566198Y-89325700D01*
X163404300Y-89163802D01*
X163399792Y-89160645D01*
X163399789Y-89160643D01*
X163321611Y-89105902D01*
X163216749Y-89032477D01*
X163211767Y-89030154D01*
X163211762Y-89030151D01*
X163014225Y-88938039D01*
X163014224Y-88938039D01*
X163009243Y-88935716D01*
X163003935Y-88934294D01*
X163003933Y-88934293D01*
X162793402Y-88877881D01*
X162793400Y-88877881D01*
X162788087Y-88876457D01*
X162560000Y-88856502D01*
X162331913Y-88876457D01*
X162326600Y-88877881D01*
X162326598Y-88877881D01*
X162116067Y-88934293D01*
X162116065Y-88934294D01*
X162110757Y-88935716D01*
X162105776Y-88938039D01*
X162105775Y-88938039D01*
X161908238Y-89030151D01*
X161908233Y-89030154D01*
X161903251Y-89032477D01*
X161798389Y-89105902D01*
X161720211Y-89160643D01*
X161720208Y-89160645D01*
X161715700Y-89163802D01*
X161553802Y-89325700D01*
X161422477Y-89513251D01*
X161420154Y-89518233D01*
X161420151Y-89518238D01*
X161328039Y-89715775D01*
X161325716Y-89720757D01*
X161266457Y-89941913D01*
X161246502Y-90170000D01*
X158793498Y-90170000D01*
X158773543Y-89941913D01*
X158714284Y-89720757D01*
X158711961Y-89715775D01*
X158619849Y-89518238D01*
X158619846Y-89518233D01*
X158617523Y-89513251D01*
X158486198Y-89325700D01*
X158324300Y-89163802D01*
X158319792Y-89160645D01*
X158319789Y-89160643D01*
X158241611Y-89105902D01*
X158136749Y-89032477D01*
X158131767Y-89030154D01*
X158131762Y-89030151D01*
X157934225Y-88938039D01*
X157934224Y-88938039D01*
X157929243Y-88935716D01*
X157923935Y-88934294D01*
X157923933Y-88934293D01*
X157713402Y-88877881D01*
X157713400Y-88877881D01*
X157708087Y-88876457D01*
X157480000Y-88856502D01*
X157251913Y-88876457D01*
X157246600Y-88877881D01*
X157246598Y-88877881D01*
X157036067Y-88934293D01*
X157036065Y-88934294D01*
X157030757Y-88935716D01*
X157025776Y-88938039D01*
X157025775Y-88938039D01*
X156828238Y-89030151D01*
X156828233Y-89030154D01*
X156823251Y-89032477D01*
X156718389Y-89105902D01*
X156640211Y-89160643D01*
X156640208Y-89160645D01*
X156635700Y-89163802D01*
X156473802Y-89325700D01*
X156342477Y-89513251D01*
X156340154Y-89518233D01*
X156340151Y-89518238D01*
X156248039Y-89715775D01*
X156245716Y-89720757D01*
X156186457Y-89941913D01*
X156166502Y-90170000D01*
X153713498Y-90170000D01*
X153693543Y-89941913D01*
X153634284Y-89720757D01*
X153631961Y-89715775D01*
X153539849Y-89518238D01*
X153539846Y-89518233D01*
X153537523Y-89513251D01*
X153406198Y-89325700D01*
X153244300Y-89163802D01*
X153239792Y-89160645D01*
X153239789Y-89160643D01*
X153161611Y-89105902D01*
X153056749Y-89032477D01*
X153051767Y-89030154D01*
X153051762Y-89030151D01*
X152854225Y-88938039D01*
X152854224Y-88938039D01*
X152849243Y-88935716D01*
X152843935Y-88934294D01*
X152843933Y-88934293D01*
X152633402Y-88877881D01*
X152633400Y-88877881D01*
X152628087Y-88876457D01*
X152400000Y-88856502D01*
X152171913Y-88876457D01*
X152166600Y-88877881D01*
X152166598Y-88877881D01*
X151956067Y-88934293D01*
X151956065Y-88934294D01*
X151950757Y-88935716D01*
X151945776Y-88938039D01*
X151945775Y-88938039D01*
X151748238Y-89030151D01*
X151748233Y-89030154D01*
X151743251Y-89032477D01*
X151638389Y-89105902D01*
X151560211Y-89160643D01*
X151560208Y-89160645D01*
X151555700Y-89163802D01*
X151393802Y-89325700D01*
X151262477Y-89513251D01*
X151260154Y-89518233D01*
X151260151Y-89518238D01*
X151168039Y-89715775D01*
X151165716Y-89720757D01*
X151106457Y-89941913D01*
X151086502Y-90170000D01*
X148633498Y-90170000D01*
X148613543Y-89941913D01*
X148554284Y-89720757D01*
X148551961Y-89715775D01*
X148459849Y-89518238D01*
X148459846Y-89518233D01*
X148457523Y-89513251D01*
X148326198Y-89325700D01*
X148164300Y-89163802D01*
X148159792Y-89160645D01*
X148159789Y-89160643D01*
X148081611Y-89105902D01*
X147976749Y-89032477D01*
X147971767Y-89030154D01*
X147971762Y-89030151D01*
X147774225Y-88938039D01*
X147774224Y-88938039D01*
X147769243Y-88935716D01*
X147763935Y-88934294D01*
X147763933Y-88934293D01*
X147553402Y-88877881D01*
X147553400Y-88877881D01*
X147548087Y-88876457D01*
X147320000Y-88856502D01*
X147091913Y-88876457D01*
X147086600Y-88877881D01*
X147086598Y-88877881D01*
X146876067Y-88934293D01*
X146876065Y-88934294D01*
X146870757Y-88935716D01*
X146865776Y-88938039D01*
X146865775Y-88938039D01*
X146668238Y-89030151D01*
X146668233Y-89030154D01*
X146663251Y-89032477D01*
X146558389Y-89105902D01*
X146480211Y-89160643D01*
X146480208Y-89160645D01*
X146475700Y-89163802D01*
X146313802Y-89325700D01*
X146182477Y-89513251D01*
X146180154Y-89518233D01*
X146180151Y-89518238D01*
X146088039Y-89715775D01*
X146085716Y-89720757D01*
X146026457Y-89941913D01*
X146006502Y-90170000D01*
X143553498Y-90170000D01*
X143533543Y-89941913D01*
X143474284Y-89720757D01*
X143471961Y-89715775D01*
X143379849Y-89518238D01*
X143379846Y-89518233D01*
X143377523Y-89513251D01*
X143246198Y-89325700D01*
X143084300Y-89163802D01*
X143079792Y-89160645D01*
X143079789Y-89160643D01*
X143001611Y-89105902D01*
X142896749Y-89032477D01*
X142891767Y-89030154D01*
X142891762Y-89030151D01*
X142694225Y-88938039D01*
X142694224Y-88938039D01*
X142689243Y-88935716D01*
X142683935Y-88934294D01*
X142683933Y-88934293D01*
X142473402Y-88877881D01*
X142473400Y-88877881D01*
X142468087Y-88876457D01*
X142240000Y-88856502D01*
X142011913Y-88876457D01*
X142006600Y-88877881D01*
X142006598Y-88877881D01*
X141796067Y-88934293D01*
X141796065Y-88934294D01*
X141790757Y-88935716D01*
X141785776Y-88938039D01*
X141785775Y-88938039D01*
X141588238Y-89030151D01*
X141588233Y-89030154D01*
X141583251Y-89032477D01*
X141478389Y-89105902D01*
X141400211Y-89160643D01*
X141400208Y-89160645D01*
X141395700Y-89163802D01*
X141233802Y-89325700D01*
X141102477Y-89513251D01*
X141100154Y-89518233D01*
X141100151Y-89518238D01*
X141008039Y-89715775D01*
X141005716Y-89720757D01*
X140946457Y-89941913D01*
X140926502Y-90170000D01*
X138473498Y-90170000D01*
X138453543Y-89941913D01*
X138394284Y-89720757D01*
X138391961Y-89715775D01*
X138299849Y-89518238D01*
X138299846Y-89518233D01*
X138297523Y-89513251D01*
X138166198Y-89325700D01*
X138004300Y-89163802D01*
X137999792Y-89160645D01*
X137999789Y-89160643D01*
X137921611Y-89105902D01*
X137816749Y-89032477D01*
X137811767Y-89030154D01*
X137811762Y-89030151D01*
X137614225Y-88938039D01*
X137614224Y-88938039D01*
X137609243Y-88935716D01*
X137603935Y-88934294D01*
X137603933Y-88934293D01*
X137393402Y-88877881D01*
X137393400Y-88877881D01*
X137388087Y-88876457D01*
X137160000Y-88856502D01*
X136931913Y-88876457D01*
X136926600Y-88877881D01*
X136926598Y-88877881D01*
X136716067Y-88934293D01*
X136716065Y-88934294D01*
X136710757Y-88935716D01*
X136705776Y-88938039D01*
X136705775Y-88938039D01*
X136508238Y-89030151D01*
X136508233Y-89030154D01*
X136503251Y-89032477D01*
X136398389Y-89105902D01*
X136320211Y-89160643D01*
X136320208Y-89160645D01*
X136315700Y-89163802D01*
X136153802Y-89325700D01*
X136022477Y-89513251D01*
X136020154Y-89518233D01*
X136020151Y-89518238D01*
X135928039Y-89715775D01*
X135925716Y-89720757D01*
X135866457Y-89941913D01*
X135846502Y-90170000D01*
X133393498Y-90170000D01*
X133373543Y-89941913D01*
X133314284Y-89720757D01*
X133311961Y-89715775D01*
X133219849Y-89518238D01*
X133219846Y-89518233D01*
X133217523Y-89513251D01*
X133086198Y-89325700D01*
X132924300Y-89163802D01*
X132919792Y-89160645D01*
X132919789Y-89160643D01*
X132841611Y-89105902D01*
X132736749Y-89032477D01*
X132731767Y-89030154D01*
X132731762Y-89030151D01*
X132534225Y-88938039D01*
X132534224Y-88938039D01*
X132529243Y-88935716D01*
X132523935Y-88934294D01*
X132523933Y-88934293D01*
X132313402Y-88877881D01*
X132313400Y-88877881D01*
X132308087Y-88876457D01*
X132080000Y-88856502D01*
X131851913Y-88876457D01*
X131846600Y-88877881D01*
X131846598Y-88877881D01*
X131636067Y-88934293D01*
X131636065Y-88934294D01*
X131630757Y-88935716D01*
X131625776Y-88938039D01*
X131625775Y-88938039D01*
X131428238Y-89030151D01*
X131428233Y-89030154D01*
X131423251Y-89032477D01*
X131318389Y-89105902D01*
X131240211Y-89160643D01*
X131240208Y-89160645D01*
X131235700Y-89163802D01*
X131073802Y-89325700D01*
X130942477Y-89513251D01*
X130940154Y-89518233D01*
X130940151Y-89518238D01*
X130848039Y-89715775D01*
X130845716Y-89720757D01*
X130786457Y-89941913D01*
X130766502Y-90170000D01*
X128313498Y-90170000D01*
X128293543Y-89941913D01*
X128234284Y-89720757D01*
X128231961Y-89715775D01*
X128139849Y-89518238D01*
X128139846Y-89518233D01*
X128137523Y-89513251D01*
X128006198Y-89325700D01*
X127844300Y-89163802D01*
X127839792Y-89160645D01*
X127839789Y-89160643D01*
X127761611Y-89105902D01*
X127656749Y-89032477D01*
X127651767Y-89030154D01*
X127651762Y-89030151D01*
X127454225Y-88938039D01*
X127454224Y-88938039D01*
X127449243Y-88935716D01*
X127443935Y-88934294D01*
X127443933Y-88934293D01*
X127233402Y-88877881D01*
X127233400Y-88877881D01*
X127228087Y-88876457D01*
X127000000Y-88856502D01*
X126771913Y-88876457D01*
X126766600Y-88877881D01*
X126766598Y-88877881D01*
X126556067Y-88934293D01*
X126556065Y-88934294D01*
X126550757Y-88935716D01*
X126545776Y-88938039D01*
X126545775Y-88938039D01*
X126348238Y-89030151D01*
X126348233Y-89030154D01*
X126343251Y-89032477D01*
X126238389Y-89105902D01*
X126160211Y-89160643D01*
X126160208Y-89160645D01*
X126155700Y-89163802D01*
X125993802Y-89325700D01*
X125862477Y-89513251D01*
X125860154Y-89518233D01*
X125860151Y-89518238D01*
X125768039Y-89715775D01*
X125765716Y-89720757D01*
X125706457Y-89941913D01*
X125686502Y-90170000D01*
X117348000Y-90170000D01*
X117348000Y-83444669D01*
X124372001Y-83444669D01*
X124372371Y-83451490D01*
X124377895Y-83502352D01*
X124381521Y-83517604D01*
X124426676Y-83638054D01*
X124435214Y-83653649D01*
X124511715Y-83755724D01*
X124524276Y-83768285D01*
X124626351Y-83844786D01*
X124641946Y-83853324D01*
X124762394Y-83898478D01*
X124777649Y-83902105D01*
X124828514Y-83907631D01*
X124835328Y-83908000D01*
X125457885Y-83908000D01*
X125473124Y-83903525D01*
X125474329Y-83902135D01*
X125476000Y-83894452D01*
X125476000Y-83889884D01*
X125984000Y-83889884D01*
X125988475Y-83905123D01*
X125989865Y-83906328D01*
X125997548Y-83907999D01*
X126624669Y-83907999D01*
X126631490Y-83907629D01*
X126682352Y-83902105D01*
X126697604Y-83898479D01*
X126818054Y-83853324D01*
X126833649Y-83844786D01*
X126935724Y-83768285D01*
X126948285Y-83755724D01*
X127024786Y-83653649D01*
X127033324Y-83638054D01*
X127074225Y-83528952D01*
X127116867Y-83472188D01*
X127183428Y-83447488D01*
X127252777Y-83462696D01*
X127287444Y-83490684D01*
X127312865Y-83520031D01*
X127312869Y-83520035D01*
X127316250Y-83523938D01*
X127488126Y-83666632D01*
X127681000Y-83779338D01*
X127889692Y-83859030D01*
X127894760Y-83860061D01*
X127894763Y-83860062D01*
X127989862Y-83879410D01*
X128108597Y-83903567D01*
X128113772Y-83903757D01*
X128113774Y-83903757D01*
X128326673Y-83911564D01*
X128326677Y-83911564D01*
X128331837Y-83911753D01*
X128336957Y-83911097D01*
X128336959Y-83911097D01*
X128548288Y-83884025D01*
X128548289Y-83884025D01*
X128553416Y-83883368D01*
X128558366Y-83881883D01*
X128762429Y-83820661D01*
X128762434Y-83820659D01*
X128767384Y-83819174D01*
X128967994Y-83720896D01*
X129149860Y-83591173D01*
X129308096Y-83433489D01*
X129438453Y-83252077D01*
X129439640Y-83252930D01*
X129486960Y-83209362D01*
X129556897Y-83197145D01*
X129622338Y-83224678D01*
X129650166Y-83256511D01*
X129707694Y-83350388D01*
X129713777Y-83358699D01*
X129853213Y-83519667D01*
X129860580Y-83526883D01*
X130024434Y-83662916D01*
X130032881Y-83668831D01*
X130216756Y-83776279D01*
X130226042Y-83780729D01*
X130425001Y-83856703D01*
X130434899Y-83859579D01*
X130538250Y-83880606D01*
X130552299Y-83879410D01*
X130556000Y-83869065D01*
X130556000Y-83868517D01*
X131064000Y-83868517D01*
X131068064Y-83882359D01*
X131081478Y-83884393D01*
X131088184Y-83883534D01*
X131098262Y-83881392D01*
X131302255Y-83820191D01*
X131311842Y-83816433D01*
X131503095Y-83722739D01*
X131511945Y-83717464D01*
X131685328Y-83593792D01*
X131693200Y-83587139D01*
X131844052Y-83436812D01*
X131850730Y-83428965D01*
X131978022Y-83251819D01*
X131979279Y-83252722D01*
X132026373Y-83209362D01*
X132096311Y-83197145D01*
X132161751Y-83224678D01*
X132189579Y-83256511D01*
X132249987Y-83355088D01*
X132396250Y-83523938D01*
X132568126Y-83666632D01*
X132761000Y-83779338D01*
X132969692Y-83859030D01*
X132974760Y-83860061D01*
X132974763Y-83860062D01*
X133069862Y-83879410D01*
X133188597Y-83903567D01*
X133193772Y-83903757D01*
X133193774Y-83903757D01*
X133406673Y-83911564D01*
X133406677Y-83911564D01*
X133411837Y-83911753D01*
X133416957Y-83911097D01*
X133416959Y-83911097D01*
X133628288Y-83884025D01*
X133628289Y-83884025D01*
X133633416Y-83883368D01*
X133638366Y-83881883D01*
X133842429Y-83820661D01*
X133842434Y-83820659D01*
X133847384Y-83819174D01*
X134047994Y-83720896D01*
X134229860Y-83591173D01*
X134388096Y-83433489D01*
X134518453Y-83252077D01*
X134519640Y-83252930D01*
X134566960Y-83209362D01*
X134636897Y-83197145D01*
X134702338Y-83224678D01*
X134730166Y-83256511D01*
X134787694Y-83350388D01*
X134793777Y-83358699D01*
X134933213Y-83519667D01*
X134940580Y-83526883D01*
X135104434Y-83662916D01*
X135112881Y-83668831D01*
X135296756Y-83776279D01*
X135306042Y-83780729D01*
X135505001Y-83856703D01*
X135514899Y-83859579D01*
X135618250Y-83880606D01*
X135632299Y-83879410D01*
X135636000Y-83869065D01*
X135636000Y-83868517D01*
X136144000Y-83868517D01*
X136148064Y-83882359D01*
X136161478Y-83884393D01*
X136168184Y-83883534D01*
X136178262Y-83881392D01*
X136382255Y-83820191D01*
X136391842Y-83816433D01*
X136583095Y-83722739D01*
X136591945Y-83717464D01*
X136765328Y-83593792D01*
X136773200Y-83587139D01*
X136924052Y-83436812D01*
X136930730Y-83428965D01*
X137058022Y-83251819D01*
X137059279Y-83252722D01*
X137106373Y-83209362D01*
X137176311Y-83197145D01*
X137241751Y-83224678D01*
X137269579Y-83256511D01*
X137329987Y-83355088D01*
X137476250Y-83523938D01*
X137648126Y-83666632D01*
X137841000Y-83779338D01*
X138049692Y-83859030D01*
X138054760Y-83860061D01*
X138054763Y-83860062D01*
X138149862Y-83879410D01*
X138268597Y-83903567D01*
X138273772Y-83903757D01*
X138273774Y-83903757D01*
X138486673Y-83911564D01*
X138486677Y-83911564D01*
X138491837Y-83911753D01*
X138496957Y-83911097D01*
X138496959Y-83911097D01*
X138708288Y-83884025D01*
X138708289Y-83884025D01*
X138713416Y-83883368D01*
X138718366Y-83881883D01*
X138922429Y-83820661D01*
X138922434Y-83820659D01*
X138927384Y-83819174D01*
X139127994Y-83720896D01*
X139309860Y-83591173D01*
X139468096Y-83433489D01*
X139598453Y-83252077D01*
X139599640Y-83252930D01*
X139646960Y-83209362D01*
X139716897Y-83197145D01*
X139782338Y-83224678D01*
X139810166Y-83256511D01*
X139867694Y-83350388D01*
X139873777Y-83358699D01*
X140013213Y-83519667D01*
X140020580Y-83526883D01*
X140184434Y-83662916D01*
X140192881Y-83668831D01*
X140376756Y-83776279D01*
X140386042Y-83780729D01*
X140585001Y-83856703D01*
X140594899Y-83859579D01*
X140698250Y-83880606D01*
X140712299Y-83879410D01*
X140716000Y-83869065D01*
X140716000Y-83868517D01*
X141224000Y-83868517D01*
X141228064Y-83882359D01*
X141241478Y-83884393D01*
X141248184Y-83883534D01*
X141258262Y-83881392D01*
X141462255Y-83820191D01*
X141471842Y-83816433D01*
X141663095Y-83722739D01*
X141671945Y-83717464D01*
X141845328Y-83593792D01*
X141853200Y-83587139D01*
X142004052Y-83436812D01*
X142010730Y-83428965D01*
X142138022Y-83251819D01*
X142139279Y-83252722D01*
X142186373Y-83209362D01*
X142256311Y-83197145D01*
X142321751Y-83224678D01*
X142349579Y-83256511D01*
X142409987Y-83355088D01*
X142556250Y-83523938D01*
X142728126Y-83666632D01*
X142921000Y-83779338D01*
X143129692Y-83859030D01*
X143134760Y-83860061D01*
X143134763Y-83860062D01*
X143229862Y-83879410D01*
X143348597Y-83903567D01*
X143353772Y-83903757D01*
X143353774Y-83903757D01*
X143566673Y-83911564D01*
X143566677Y-83911564D01*
X143571837Y-83911753D01*
X143576957Y-83911097D01*
X143576959Y-83911097D01*
X143788288Y-83884025D01*
X143788289Y-83884025D01*
X143793416Y-83883368D01*
X143798366Y-83881883D01*
X144002429Y-83820661D01*
X144002434Y-83820659D01*
X144007384Y-83819174D01*
X144207994Y-83720896D01*
X144389860Y-83591173D01*
X144548096Y-83433489D01*
X144678453Y-83252077D01*
X144679640Y-83252930D01*
X144726960Y-83209362D01*
X144796897Y-83197145D01*
X144862338Y-83224678D01*
X144890166Y-83256511D01*
X144947694Y-83350388D01*
X144953777Y-83358699D01*
X145093213Y-83519667D01*
X145100580Y-83526883D01*
X145264434Y-83662916D01*
X145272881Y-83668831D01*
X145456756Y-83776279D01*
X145466042Y-83780729D01*
X145665001Y-83856703D01*
X145674899Y-83859579D01*
X145778250Y-83880606D01*
X145792299Y-83879410D01*
X145796000Y-83869065D01*
X145796000Y-83868517D01*
X146304000Y-83868517D01*
X146308064Y-83882359D01*
X146321478Y-83884393D01*
X146328184Y-83883534D01*
X146338262Y-83881392D01*
X146542255Y-83820191D01*
X146551842Y-83816433D01*
X146743095Y-83722739D01*
X146751945Y-83717464D01*
X146925328Y-83593792D01*
X146933200Y-83587139D01*
X147084052Y-83436812D01*
X147090730Y-83428965D01*
X147218022Y-83251819D01*
X147219279Y-83252722D01*
X147266373Y-83209362D01*
X147336311Y-83197145D01*
X147401751Y-83224678D01*
X147429579Y-83256511D01*
X147489987Y-83355088D01*
X147636250Y-83523938D01*
X147808126Y-83666632D01*
X148001000Y-83779338D01*
X148209692Y-83859030D01*
X148214760Y-83860061D01*
X148214763Y-83860062D01*
X148309862Y-83879410D01*
X148428597Y-83903567D01*
X148433772Y-83903757D01*
X148433774Y-83903757D01*
X148646673Y-83911564D01*
X148646677Y-83911564D01*
X148651837Y-83911753D01*
X148656957Y-83911097D01*
X148656959Y-83911097D01*
X148868288Y-83884025D01*
X148868289Y-83884025D01*
X148873416Y-83883368D01*
X148878366Y-83881883D01*
X149082429Y-83820661D01*
X149082434Y-83820659D01*
X149087384Y-83819174D01*
X149287994Y-83720896D01*
X149469860Y-83591173D01*
X149628096Y-83433489D01*
X149758453Y-83252077D01*
X149759640Y-83252930D01*
X149806960Y-83209362D01*
X149876897Y-83197145D01*
X149942338Y-83224678D01*
X149970166Y-83256511D01*
X150027694Y-83350388D01*
X150033777Y-83358699D01*
X150173213Y-83519667D01*
X150180580Y-83526883D01*
X150344434Y-83662916D01*
X150352881Y-83668831D01*
X150536756Y-83776279D01*
X150546042Y-83780729D01*
X150745001Y-83856703D01*
X150754899Y-83859579D01*
X150858250Y-83880606D01*
X150872299Y-83879410D01*
X150876000Y-83869065D01*
X150876000Y-83868517D01*
X151384000Y-83868517D01*
X151388064Y-83882359D01*
X151401478Y-83884393D01*
X151408184Y-83883534D01*
X151418262Y-83881392D01*
X151622255Y-83820191D01*
X151631842Y-83816433D01*
X151823095Y-83722739D01*
X151831945Y-83717464D01*
X152005328Y-83593792D01*
X152013200Y-83587139D01*
X152164052Y-83436812D01*
X152170730Y-83428965D01*
X152298022Y-83251819D01*
X152299279Y-83252722D01*
X152346373Y-83209362D01*
X152416311Y-83197145D01*
X152481751Y-83224678D01*
X152509579Y-83256511D01*
X152569987Y-83355088D01*
X152716250Y-83523938D01*
X152888126Y-83666632D01*
X153081000Y-83779338D01*
X153289692Y-83859030D01*
X153294760Y-83860061D01*
X153294763Y-83860062D01*
X153389862Y-83879410D01*
X153508597Y-83903567D01*
X153513772Y-83903757D01*
X153513774Y-83903757D01*
X153726673Y-83911564D01*
X153726677Y-83911564D01*
X153731837Y-83911753D01*
X153736957Y-83911097D01*
X153736959Y-83911097D01*
X153948288Y-83884025D01*
X153948289Y-83884025D01*
X153953416Y-83883368D01*
X153958366Y-83881883D01*
X154162429Y-83820661D01*
X154162434Y-83820659D01*
X154167384Y-83819174D01*
X154367994Y-83720896D01*
X154549860Y-83591173D01*
X154708096Y-83433489D01*
X154838453Y-83252077D01*
X154839640Y-83252930D01*
X154886960Y-83209362D01*
X154956897Y-83197145D01*
X155022338Y-83224678D01*
X155050166Y-83256511D01*
X155107694Y-83350388D01*
X155113777Y-83358699D01*
X155253213Y-83519667D01*
X155260580Y-83526883D01*
X155424434Y-83662916D01*
X155432881Y-83668831D01*
X155616756Y-83776279D01*
X155626042Y-83780729D01*
X155825001Y-83856703D01*
X155834899Y-83859579D01*
X155938250Y-83880606D01*
X155952299Y-83879410D01*
X155956000Y-83869065D01*
X155956000Y-83868517D01*
X156464000Y-83868517D01*
X156468064Y-83882359D01*
X156481478Y-83884393D01*
X156488184Y-83883534D01*
X156498262Y-83881392D01*
X156702255Y-83820191D01*
X156711842Y-83816433D01*
X156903095Y-83722739D01*
X156911945Y-83717464D01*
X157085328Y-83593792D01*
X157093200Y-83587139D01*
X157244052Y-83436812D01*
X157250730Y-83428965D01*
X157378022Y-83251819D01*
X157379279Y-83252722D01*
X157426373Y-83209362D01*
X157496311Y-83197145D01*
X157561751Y-83224678D01*
X157589579Y-83256511D01*
X157649987Y-83355088D01*
X157796250Y-83523938D01*
X157968126Y-83666632D01*
X158161000Y-83779338D01*
X158369692Y-83859030D01*
X158374760Y-83860061D01*
X158374763Y-83860062D01*
X158469862Y-83879410D01*
X158588597Y-83903567D01*
X158593772Y-83903757D01*
X158593774Y-83903757D01*
X158806673Y-83911564D01*
X158806677Y-83911564D01*
X158811837Y-83911753D01*
X158816957Y-83911097D01*
X158816959Y-83911097D01*
X159028288Y-83884025D01*
X159028289Y-83884025D01*
X159033416Y-83883368D01*
X159038366Y-83881883D01*
X159242429Y-83820661D01*
X159242434Y-83820659D01*
X159247384Y-83819174D01*
X159447994Y-83720896D01*
X159629860Y-83591173D01*
X159788096Y-83433489D01*
X159918453Y-83252077D01*
X159919640Y-83252930D01*
X159966960Y-83209362D01*
X160036897Y-83197145D01*
X160102338Y-83224678D01*
X160130166Y-83256511D01*
X160187694Y-83350388D01*
X160193777Y-83358699D01*
X160333213Y-83519667D01*
X160340580Y-83526883D01*
X160504434Y-83662916D01*
X160512881Y-83668831D01*
X160696756Y-83776279D01*
X160706042Y-83780729D01*
X160905001Y-83856703D01*
X160914899Y-83859579D01*
X161018250Y-83880606D01*
X161032299Y-83879410D01*
X161036000Y-83869065D01*
X161036000Y-83868517D01*
X161544000Y-83868517D01*
X161548064Y-83882359D01*
X161561478Y-83884393D01*
X161568184Y-83883534D01*
X161578262Y-83881392D01*
X161782255Y-83820191D01*
X161791842Y-83816433D01*
X161983095Y-83722739D01*
X161991945Y-83717464D01*
X162165328Y-83593792D01*
X162173200Y-83587139D01*
X162324052Y-83436812D01*
X162330730Y-83428965D01*
X162458022Y-83251819D01*
X162459279Y-83252722D01*
X162506373Y-83209362D01*
X162576311Y-83197145D01*
X162641751Y-83224678D01*
X162669579Y-83256511D01*
X162729987Y-83355088D01*
X162876250Y-83523938D01*
X163048126Y-83666632D01*
X163241000Y-83779338D01*
X163449692Y-83859030D01*
X163454760Y-83860061D01*
X163454763Y-83860062D01*
X163549862Y-83879410D01*
X163668597Y-83903567D01*
X163673772Y-83903757D01*
X163673774Y-83903757D01*
X163886673Y-83911564D01*
X163886677Y-83911564D01*
X163891837Y-83911753D01*
X163896957Y-83911097D01*
X163896959Y-83911097D01*
X164108288Y-83884025D01*
X164108289Y-83884025D01*
X164113416Y-83883368D01*
X164118366Y-83881883D01*
X164322429Y-83820661D01*
X164322434Y-83820659D01*
X164327384Y-83819174D01*
X164527994Y-83720896D01*
X164709860Y-83591173D01*
X164868096Y-83433489D01*
X164998453Y-83252077D01*
X165011995Y-83224678D01*
X165095136Y-83056453D01*
X165095137Y-83056451D01*
X165097430Y-83051811D01*
X165162370Y-82838069D01*
X165191529Y-82616590D01*
X165193156Y-82550000D01*
X165174852Y-82327361D01*
X165120431Y-82110702D01*
X165031354Y-81905840D01*
X164910014Y-81718277D01*
X164759670Y-81553051D01*
X164755619Y-81549852D01*
X164755615Y-81549848D01*
X164588414Y-81417800D01*
X164588410Y-81417798D01*
X164584359Y-81414598D01*
X164548028Y-81394542D01*
X164456970Y-81344276D01*
X164388789Y-81306638D01*
X164383920Y-81304914D01*
X164383916Y-81304912D01*
X164183087Y-81233795D01*
X164183083Y-81233794D01*
X164178212Y-81232069D01*
X164173119Y-81231162D01*
X164173116Y-81231161D01*
X163963373Y-81193800D01*
X163963367Y-81193799D01*
X163958284Y-81192894D01*
X163884452Y-81191992D01*
X163740081Y-81190228D01*
X163740079Y-81190228D01*
X163734911Y-81190165D01*
X163514091Y-81223955D01*
X163301756Y-81293357D01*
X163103607Y-81396507D01*
X163099474Y-81399610D01*
X163099471Y-81399612D01*
X163016450Y-81461946D01*
X162924965Y-81530635D01*
X162770629Y-81692138D01*
X162767715Y-81696410D01*
X162767714Y-81696411D01*
X162662898Y-81850066D01*
X162607987Y-81895069D01*
X162537462Y-81903240D01*
X162473715Y-81871986D01*
X162453018Y-81847502D01*
X162372426Y-81722926D01*
X162366136Y-81714757D01*
X162222806Y-81557240D01*
X162215273Y-81550215D01*
X162048139Y-81418222D01*
X162039552Y-81412517D01*
X161853117Y-81309599D01*
X161843705Y-81305369D01*
X161642959Y-81234280D01*
X161632988Y-81231646D01*
X161561837Y-81218972D01*
X161548540Y-81220432D01*
X161544000Y-81234989D01*
X161544000Y-83868517D01*
X161036000Y-83868517D01*
X161036000Y-81233102D01*
X161032082Y-81219758D01*
X161017806Y-81217771D01*
X160979324Y-81223660D01*
X160969288Y-81226051D01*
X160766868Y-81292212D01*
X160757359Y-81296209D01*
X160568463Y-81394542D01*
X160559738Y-81400036D01*
X160389433Y-81527905D01*
X160381726Y-81534748D01*
X160234590Y-81688717D01*
X160228109Y-81696722D01*
X160123498Y-81850074D01*
X160068587Y-81895076D01*
X159998062Y-81903247D01*
X159934315Y-81871993D01*
X159913618Y-81847509D01*
X159832822Y-81722617D01*
X159832820Y-81722614D01*
X159830014Y-81718277D01*
X159679670Y-81553051D01*
X159675619Y-81549852D01*
X159675615Y-81549848D01*
X159508414Y-81417800D01*
X159508410Y-81417798D01*
X159504359Y-81414598D01*
X159468028Y-81394542D01*
X159376970Y-81344276D01*
X159308789Y-81306638D01*
X159303920Y-81304914D01*
X159303916Y-81304912D01*
X159103087Y-81233795D01*
X159103083Y-81233794D01*
X159098212Y-81232069D01*
X159093119Y-81231162D01*
X159093116Y-81231161D01*
X158883373Y-81193800D01*
X158883367Y-81193799D01*
X158878284Y-81192894D01*
X158804452Y-81191992D01*
X158660081Y-81190228D01*
X158660079Y-81190228D01*
X158654911Y-81190165D01*
X158434091Y-81223955D01*
X158221756Y-81293357D01*
X158023607Y-81396507D01*
X158019474Y-81399610D01*
X158019471Y-81399612D01*
X157936450Y-81461946D01*
X157844965Y-81530635D01*
X157690629Y-81692138D01*
X157687715Y-81696410D01*
X157687714Y-81696411D01*
X157582898Y-81850066D01*
X157527987Y-81895069D01*
X157457462Y-81903240D01*
X157393715Y-81871986D01*
X157373018Y-81847502D01*
X157292426Y-81722926D01*
X157286136Y-81714757D01*
X157142806Y-81557240D01*
X157135273Y-81550215D01*
X156968139Y-81418222D01*
X156959552Y-81412517D01*
X156773117Y-81309599D01*
X156763705Y-81305369D01*
X156562959Y-81234280D01*
X156552988Y-81231646D01*
X156481837Y-81218972D01*
X156468540Y-81220432D01*
X156464000Y-81234989D01*
X156464000Y-83868517D01*
X155956000Y-83868517D01*
X155956000Y-81233102D01*
X155952082Y-81219758D01*
X155937806Y-81217771D01*
X155899324Y-81223660D01*
X155889288Y-81226051D01*
X155686868Y-81292212D01*
X155677359Y-81296209D01*
X155488463Y-81394542D01*
X155479738Y-81400036D01*
X155309433Y-81527905D01*
X155301726Y-81534748D01*
X155154590Y-81688717D01*
X155148109Y-81696722D01*
X155043498Y-81850074D01*
X154988587Y-81895076D01*
X154918062Y-81903247D01*
X154854315Y-81871993D01*
X154833618Y-81847509D01*
X154752822Y-81722617D01*
X154752820Y-81722614D01*
X154750014Y-81718277D01*
X154599670Y-81553051D01*
X154595619Y-81549852D01*
X154595615Y-81549848D01*
X154428414Y-81417800D01*
X154428410Y-81417798D01*
X154424359Y-81414598D01*
X154388028Y-81394542D01*
X154296970Y-81344276D01*
X154228789Y-81306638D01*
X154223920Y-81304914D01*
X154223916Y-81304912D01*
X154023087Y-81233795D01*
X154023083Y-81233794D01*
X154018212Y-81232069D01*
X154013119Y-81231162D01*
X154013116Y-81231161D01*
X153803373Y-81193800D01*
X153803367Y-81193799D01*
X153798284Y-81192894D01*
X153724452Y-81191992D01*
X153580081Y-81190228D01*
X153580079Y-81190228D01*
X153574911Y-81190165D01*
X153354091Y-81223955D01*
X153141756Y-81293357D01*
X152943607Y-81396507D01*
X152939474Y-81399610D01*
X152939471Y-81399612D01*
X152856450Y-81461946D01*
X152764965Y-81530635D01*
X152610629Y-81692138D01*
X152607715Y-81696410D01*
X152607714Y-81696411D01*
X152502898Y-81850066D01*
X152447987Y-81895069D01*
X152377462Y-81903240D01*
X152313715Y-81871986D01*
X152293018Y-81847502D01*
X152212426Y-81722926D01*
X152206136Y-81714757D01*
X152062806Y-81557240D01*
X152055273Y-81550215D01*
X151888139Y-81418222D01*
X151879552Y-81412517D01*
X151693117Y-81309599D01*
X151683705Y-81305369D01*
X151482959Y-81234280D01*
X151472988Y-81231646D01*
X151401837Y-81218972D01*
X151388540Y-81220432D01*
X151384000Y-81234989D01*
X151384000Y-83868517D01*
X150876000Y-83868517D01*
X150876000Y-81233102D01*
X150872082Y-81219758D01*
X150857806Y-81217771D01*
X150819324Y-81223660D01*
X150809288Y-81226051D01*
X150606868Y-81292212D01*
X150597359Y-81296209D01*
X150408463Y-81394542D01*
X150399738Y-81400036D01*
X150229433Y-81527905D01*
X150221726Y-81534748D01*
X150074590Y-81688717D01*
X150068109Y-81696722D01*
X149963498Y-81850074D01*
X149908587Y-81895076D01*
X149838062Y-81903247D01*
X149774315Y-81871993D01*
X149753618Y-81847509D01*
X149672822Y-81722617D01*
X149672820Y-81722614D01*
X149670014Y-81718277D01*
X149519670Y-81553051D01*
X149515619Y-81549852D01*
X149515615Y-81549848D01*
X149348414Y-81417800D01*
X149348410Y-81417798D01*
X149344359Y-81414598D01*
X149308028Y-81394542D01*
X149216970Y-81344276D01*
X149148789Y-81306638D01*
X149143920Y-81304914D01*
X149143916Y-81304912D01*
X148943087Y-81233795D01*
X148943083Y-81233794D01*
X148938212Y-81232069D01*
X148933119Y-81231162D01*
X148933116Y-81231161D01*
X148723373Y-81193800D01*
X148723367Y-81193799D01*
X148718284Y-81192894D01*
X148644452Y-81191992D01*
X148500081Y-81190228D01*
X148500079Y-81190228D01*
X148494911Y-81190165D01*
X148274091Y-81223955D01*
X148061756Y-81293357D01*
X147863607Y-81396507D01*
X147859474Y-81399610D01*
X147859471Y-81399612D01*
X147776450Y-81461946D01*
X147684965Y-81530635D01*
X147530629Y-81692138D01*
X147527715Y-81696410D01*
X147527714Y-81696411D01*
X147422898Y-81850066D01*
X147367987Y-81895069D01*
X147297462Y-81903240D01*
X147233715Y-81871986D01*
X147213018Y-81847502D01*
X147132426Y-81722926D01*
X147126136Y-81714757D01*
X146982806Y-81557240D01*
X146975273Y-81550215D01*
X146808139Y-81418222D01*
X146799552Y-81412517D01*
X146613117Y-81309599D01*
X146603705Y-81305369D01*
X146402959Y-81234280D01*
X146392988Y-81231646D01*
X146321837Y-81218972D01*
X146308540Y-81220432D01*
X146304000Y-81234989D01*
X146304000Y-83868517D01*
X145796000Y-83868517D01*
X145796000Y-81233102D01*
X145792082Y-81219758D01*
X145777806Y-81217771D01*
X145739324Y-81223660D01*
X145729288Y-81226051D01*
X145526868Y-81292212D01*
X145517359Y-81296209D01*
X145328463Y-81394542D01*
X145319738Y-81400036D01*
X145149433Y-81527905D01*
X145141726Y-81534748D01*
X144994590Y-81688717D01*
X144988109Y-81696722D01*
X144883498Y-81850074D01*
X144828587Y-81895076D01*
X144758062Y-81903247D01*
X144694315Y-81871993D01*
X144673618Y-81847509D01*
X144592822Y-81722617D01*
X144592820Y-81722614D01*
X144590014Y-81718277D01*
X144439670Y-81553051D01*
X144435619Y-81549852D01*
X144435615Y-81549848D01*
X144268414Y-81417800D01*
X144268410Y-81417798D01*
X144264359Y-81414598D01*
X144228028Y-81394542D01*
X144136970Y-81344276D01*
X144068789Y-81306638D01*
X144063920Y-81304914D01*
X144063916Y-81304912D01*
X143863087Y-81233795D01*
X143863083Y-81233794D01*
X143858212Y-81232069D01*
X143853119Y-81231162D01*
X143853116Y-81231161D01*
X143643373Y-81193800D01*
X143643367Y-81193799D01*
X143638284Y-81192894D01*
X143564452Y-81191992D01*
X143420081Y-81190228D01*
X143420079Y-81190228D01*
X143414911Y-81190165D01*
X143194091Y-81223955D01*
X142981756Y-81293357D01*
X142783607Y-81396507D01*
X142779474Y-81399610D01*
X142779471Y-81399612D01*
X142696450Y-81461946D01*
X142604965Y-81530635D01*
X142450629Y-81692138D01*
X142447715Y-81696410D01*
X142447714Y-81696411D01*
X142342898Y-81850066D01*
X142287987Y-81895069D01*
X142217462Y-81903240D01*
X142153715Y-81871986D01*
X142133018Y-81847502D01*
X142052426Y-81722926D01*
X142046136Y-81714757D01*
X141902806Y-81557240D01*
X141895273Y-81550215D01*
X141728139Y-81418222D01*
X141719552Y-81412517D01*
X141533117Y-81309599D01*
X141523705Y-81305369D01*
X141322959Y-81234280D01*
X141312988Y-81231646D01*
X141241837Y-81218972D01*
X141228540Y-81220432D01*
X141224000Y-81234989D01*
X141224000Y-83868517D01*
X140716000Y-83868517D01*
X140716000Y-81233102D01*
X140712082Y-81219758D01*
X140697806Y-81217771D01*
X140659324Y-81223660D01*
X140649288Y-81226051D01*
X140446868Y-81292212D01*
X140437359Y-81296209D01*
X140248463Y-81394542D01*
X140239738Y-81400036D01*
X140069433Y-81527905D01*
X140061726Y-81534748D01*
X139914590Y-81688717D01*
X139908109Y-81696722D01*
X139803498Y-81850074D01*
X139748587Y-81895076D01*
X139678062Y-81903247D01*
X139614315Y-81871993D01*
X139593618Y-81847509D01*
X139512822Y-81722617D01*
X139512820Y-81722614D01*
X139510014Y-81718277D01*
X139359670Y-81553051D01*
X139355619Y-81549852D01*
X139355615Y-81549848D01*
X139188414Y-81417800D01*
X139188410Y-81417798D01*
X139184359Y-81414598D01*
X139148028Y-81394542D01*
X139056970Y-81344276D01*
X138988789Y-81306638D01*
X138983920Y-81304914D01*
X138983916Y-81304912D01*
X138783087Y-81233795D01*
X138783083Y-81233794D01*
X138778212Y-81232069D01*
X138773119Y-81231162D01*
X138773116Y-81231161D01*
X138563373Y-81193800D01*
X138563367Y-81193799D01*
X138558284Y-81192894D01*
X138484452Y-81191992D01*
X138340081Y-81190228D01*
X138340079Y-81190228D01*
X138334911Y-81190165D01*
X138114091Y-81223955D01*
X137901756Y-81293357D01*
X137703607Y-81396507D01*
X137699474Y-81399610D01*
X137699471Y-81399612D01*
X137616450Y-81461946D01*
X137524965Y-81530635D01*
X137370629Y-81692138D01*
X137367715Y-81696410D01*
X137367714Y-81696411D01*
X137262898Y-81850066D01*
X137207987Y-81895069D01*
X137137462Y-81903240D01*
X137073715Y-81871986D01*
X137053018Y-81847502D01*
X136972426Y-81722926D01*
X136966136Y-81714757D01*
X136822806Y-81557240D01*
X136815273Y-81550215D01*
X136648139Y-81418222D01*
X136639552Y-81412517D01*
X136453117Y-81309599D01*
X136443705Y-81305369D01*
X136242959Y-81234280D01*
X136232988Y-81231646D01*
X136161837Y-81218972D01*
X136148540Y-81220432D01*
X136144000Y-81234989D01*
X136144000Y-83868517D01*
X135636000Y-83868517D01*
X135636000Y-81233102D01*
X135632082Y-81219758D01*
X135617806Y-81217771D01*
X135579324Y-81223660D01*
X135569288Y-81226051D01*
X135366868Y-81292212D01*
X135357359Y-81296209D01*
X135168463Y-81394542D01*
X135159738Y-81400036D01*
X134989433Y-81527905D01*
X134981726Y-81534748D01*
X134834590Y-81688717D01*
X134828109Y-81696722D01*
X134723498Y-81850074D01*
X134668587Y-81895076D01*
X134598062Y-81903247D01*
X134534315Y-81871993D01*
X134513618Y-81847509D01*
X134432822Y-81722617D01*
X134432820Y-81722614D01*
X134430014Y-81718277D01*
X134279670Y-81553051D01*
X134275619Y-81549852D01*
X134275615Y-81549848D01*
X134108414Y-81417800D01*
X134108410Y-81417798D01*
X134104359Y-81414598D01*
X134068028Y-81394542D01*
X133976970Y-81344276D01*
X133908789Y-81306638D01*
X133903920Y-81304914D01*
X133903916Y-81304912D01*
X133703087Y-81233795D01*
X133703083Y-81233794D01*
X133698212Y-81232069D01*
X133693119Y-81231162D01*
X133693116Y-81231161D01*
X133483373Y-81193800D01*
X133483367Y-81193799D01*
X133478284Y-81192894D01*
X133404452Y-81191992D01*
X133260081Y-81190228D01*
X133260079Y-81190228D01*
X133254911Y-81190165D01*
X133034091Y-81223955D01*
X132821756Y-81293357D01*
X132623607Y-81396507D01*
X132619474Y-81399610D01*
X132619471Y-81399612D01*
X132536450Y-81461946D01*
X132444965Y-81530635D01*
X132290629Y-81692138D01*
X132287715Y-81696410D01*
X132287714Y-81696411D01*
X132182898Y-81850066D01*
X132127987Y-81895069D01*
X132057462Y-81903240D01*
X131993715Y-81871986D01*
X131973018Y-81847502D01*
X131892426Y-81722926D01*
X131886136Y-81714757D01*
X131742806Y-81557240D01*
X131735273Y-81550215D01*
X131568139Y-81418222D01*
X131559552Y-81412517D01*
X131373117Y-81309599D01*
X131363705Y-81305369D01*
X131162959Y-81234280D01*
X131152988Y-81231646D01*
X131081837Y-81218972D01*
X131068540Y-81220432D01*
X131064000Y-81234989D01*
X131064000Y-83868517D01*
X130556000Y-83868517D01*
X130556000Y-81233102D01*
X130552082Y-81219758D01*
X130537806Y-81217771D01*
X130499324Y-81223660D01*
X130489288Y-81226051D01*
X130286868Y-81292212D01*
X130277359Y-81296209D01*
X130088463Y-81394542D01*
X130079738Y-81400036D01*
X129909433Y-81527905D01*
X129901726Y-81534748D01*
X129754590Y-81688717D01*
X129748109Y-81696722D01*
X129643498Y-81850074D01*
X129588587Y-81895076D01*
X129518062Y-81903247D01*
X129454315Y-81871993D01*
X129433618Y-81847509D01*
X129352822Y-81722617D01*
X129352820Y-81722614D01*
X129350014Y-81718277D01*
X129199670Y-81553051D01*
X129195619Y-81549852D01*
X129195615Y-81549848D01*
X129028414Y-81417800D01*
X129028410Y-81417798D01*
X129024359Y-81414598D01*
X128988028Y-81394542D01*
X128896970Y-81344276D01*
X128828789Y-81306638D01*
X128823920Y-81304914D01*
X128823916Y-81304912D01*
X128623087Y-81233795D01*
X128623083Y-81233794D01*
X128618212Y-81232069D01*
X128613119Y-81231162D01*
X128613116Y-81231161D01*
X128403373Y-81193800D01*
X128403367Y-81193799D01*
X128398284Y-81192894D01*
X128324452Y-81191992D01*
X128180081Y-81190228D01*
X128180079Y-81190228D01*
X128174911Y-81190165D01*
X127954091Y-81223955D01*
X127741756Y-81293357D01*
X127543607Y-81396507D01*
X127539474Y-81399610D01*
X127539471Y-81399612D01*
X127456450Y-81461946D01*
X127364965Y-81530635D01*
X127361393Y-81534373D01*
X127283898Y-81615466D01*
X127222374Y-81650895D01*
X127151462Y-81647438D01*
X127093676Y-81606192D01*
X127074823Y-81572644D01*
X127033324Y-81461946D01*
X127024786Y-81446351D01*
X126948285Y-81344276D01*
X126935724Y-81331715D01*
X126833649Y-81255214D01*
X126818054Y-81246676D01*
X126697606Y-81201522D01*
X126682351Y-81197895D01*
X126631486Y-81192369D01*
X126624672Y-81192000D01*
X126002115Y-81192000D01*
X125986876Y-81196475D01*
X125985671Y-81197865D01*
X125984000Y-81205548D01*
X125984000Y-83889884D01*
X125476000Y-83889884D01*
X125476000Y-82822115D01*
X125471525Y-82806876D01*
X125470135Y-82805671D01*
X125462452Y-82804000D01*
X124390116Y-82804000D01*
X124374877Y-82808475D01*
X124373672Y-82809865D01*
X124372001Y-82817548D01*
X124372001Y-83444669D01*
X117348000Y-83444669D01*
X117348000Y-82277885D01*
X124372000Y-82277885D01*
X124376475Y-82293124D01*
X124377865Y-82294329D01*
X124385548Y-82296000D01*
X125457885Y-82296000D01*
X125473124Y-82291525D01*
X125474329Y-82290135D01*
X125476000Y-82282452D01*
X125476000Y-81210116D01*
X125471525Y-81194877D01*
X125470135Y-81193672D01*
X125462452Y-81192001D01*
X124835331Y-81192001D01*
X124828510Y-81192371D01*
X124777648Y-81197895D01*
X124762396Y-81201521D01*
X124641946Y-81246676D01*
X124626351Y-81255214D01*
X124524276Y-81331715D01*
X124511715Y-81344276D01*
X124435214Y-81446351D01*
X124426676Y-81461946D01*
X124381522Y-81582394D01*
X124377895Y-81597649D01*
X124372369Y-81648514D01*
X124372000Y-81655328D01*
X124372000Y-82277885D01*
X117348000Y-82277885D01*
X117348000Y-75564000D01*
X117368002Y-75495879D01*
X117421658Y-75449386D01*
X117474000Y-75438000D01*
X172086000Y-75438000D01*
X172154121Y-75458002D01*
G37*
G04 #@! TD.AperFunction*
G04 #@! TD*
M02*
