G04 #@! TF.GenerationSoftware,KiCad,Pcbnew,(6.0.1)*
G04 #@! TF.CreationDate,2022-02-07T21:51:52+01:00*
G04 #@! TF.ProjectId,RC-LightDistribution,52432d4c-6967-4687-9444-697374726962,rev?*
G04 #@! TF.SameCoordinates,Original*
G04 #@! TF.FileFunction,Legend,Top*
G04 #@! TF.FilePolarity,Positive*
%FSLAX46Y46*%
G04 Gerber Fmt 4.6, Leading zero omitted, Abs format (unit mm)*
G04 Created by KiCad (PCBNEW (6.0.1)) date 2022-02-07 21:51:52*
%MOMM*%
%LPD*%
G01*
G04 APERTURE LIST*
%ADD10C,0.150000*%
%ADD11C,0.120000*%
G04 APERTURE END LIST*
D10*
G04 #@! TO.C,R7*
X160302380Y-94146666D02*
X159826190Y-94480000D01*
X160302380Y-94718095D02*
X159302380Y-94718095D01*
X159302380Y-94337142D01*
X159350000Y-94241904D01*
X159397619Y-94194285D01*
X159492857Y-94146666D01*
X159635714Y-94146666D01*
X159730952Y-94194285D01*
X159778571Y-94241904D01*
X159826190Y-94337142D01*
X159826190Y-94718095D01*
X159302380Y-93813333D02*
X159302380Y-93146666D01*
X160302380Y-93575238D01*
G04 #@! TO.C,TP1*
X118118095Y-104227380D02*
X118689523Y-104227380D01*
X118403809Y-105227380D02*
X118403809Y-104227380D01*
X119022857Y-105227380D02*
X119022857Y-104227380D01*
X119403809Y-104227380D01*
X119499047Y-104275000D01*
X119546666Y-104322619D01*
X119594285Y-104417857D01*
X119594285Y-104560714D01*
X119546666Y-104655952D01*
X119499047Y-104703571D01*
X119403809Y-104751190D01*
X119022857Y-104751190D01*
X120546666Y-105227380D02*
X119975238Y-105227380D01*
X120260952Y-105227380D02*
X120260952Y-104227380D01*
X120165714Y-104370238D01*
X120070476Y-104465476D01*
X119975238Y-104513095D01*
G04 #@! TO.C,JP7*
X159186666Y-103592380D02*
X159186666Y-104306666D01*
X159139047Y-104449523D01*
X159043809Y-104544761D01*
X158900952Y-104592380D01*
X158805714Y-104592380D01*
X159662857Y-104592380D02*
X159662857Y-103592380D01*
X160043809Y-103592380D01*
X160139047Y-103640000D01*
X160186666Y-103687619D01*
X160234285Y-103782857D01*
X160234285Y-103925714D01*
X160186666Y-104020952D01*
X160139047Y-104068571D01*
X160043809Y-104116190D01*
X159662857Y-104116190D01*
X160567619Y-103592380D02*
X161234285Y-103592380D01*
X160805714Y-104592380D01*
G04 #@! TO.C,TP20*
X162302380Y-79208095D02*
X162302380Y-78636666D01*
X163302380Y-78922380D02*
X162302380Y-78922380D01*
X163302380Y-78303333D02*
X162302380Y-78303333D01*
X162302380Y-77922380D01*
X162350000Y-77827142D01*
X162397619Y-77779523D01*
X162492857Y-77731904D01*
X162635714Y-77731904D01*
X162730952Y-77779523D01*
X162778571Y-77827142D01*
X162826190Y-77922380D01*
X162826190Y-78303333D01*
X162397619Y-77350952D02*
X162350000Y-77303333D01*
X162302380Y-77208095D01*
X162302380Y-76970000D01*
X162350000Y-76874761D01*
X162397619Y-76827142D01*
X162492857Y-76779523D01*
X162588095Y-76779523D01*
X162730952Y-76827142D01*
X163302380Y-77398571D01*
X163302380Y-76779523D01*
X162302380Y-76160476D02*
X162302380Y-76065238D01*
X162350000Y-75970000D01*
X162397619Y-75922380D01*
X162492857Y-75874761D01*
X162683333Y-75827142D01*
X162921428Y-75827142D01*
X163111904Y-75874761D01*
X163207142Y-75922380D01*
X163254761Y-75970000D01*
X163302380Y-76065238D01*
X163302380Y-76160476D01*
X163254761Y-76255714D01*
X163207142Y-76303333D01*
X163111904Y-76350952D01*
X162921428Y-76398571D01*
X162683333Y-76398571D01*
X162492857Y-76350952D01*
X162397619Y-76303333D01*
X162350000Y-76255714D01*
X162302380Y-76160476D01*
G04 #@! TO.C,TP18*
X157222380Y-79208095D02*
X157222380Y-78636666D01*
X158222380Y-78922380D02*
X157222380Y-78922380D01*
X158222380Y-78303333D02*
X157222380Y-78303333D01*
X157222380Y-77922380D01*
X157270000Y-77827142D01*
X157317619Y-77779523D01*
X157412857Y-77731904D01*
X157555714Y-77731904D01*
X157650952Y-77779523D01*
X157698571Y-77827142D01*
X157746190Y-77922380D01*
X157746190Y-78303333D01*
X158222380Y-76779523D02*
X158222380Y-77350952D01*
X158222380Y-77065238D02*
X157222380Y-77065238D01*
X157365238Y-77160476D01*
X157460476Y-77255714D01*
X157508095Y-77350952D01*
X157650952Y-76208095D02*
X157603333Y-76303333D01*
X157555714Y-76350952D01*
X157460476Y-76398571D01*
X157412857Y-76398571D01*
X157317619Y-76350952D01*
X157270000Y-76303333D01*
X157222380Y-76208095D01*
X157222380Y-76017619D01*
X157270000Y-75922380D01*
X157317619Y-75874761D01*
X157412857Y-75827142D01*
X157460476Y-75827142D01*
X157555714Y-75874761D01*
X157603333Y-75922380D01*
X157650952Y-76017619D01*
X157650952Y-76208095D01*
X157698571Y-76303333D01*
X157746190Y-76350952D01*
X157841428Y-76398571D01*
X158031904Y-76398571D01*
X158127142Y-76350952D01*
X158174761Y-76303333D01*
X158222380Y-76208095D01*
X158222380Y-76017619D01*
X158174761Y-75922380D01*
X158127142Y-75874761D01*
X158031904Y-75827142D01*
X157841428Y-75827142D01*
X157746190Y-75874761D01*
X157698571Y-75922380D01*
X157650952Y-76017619D01*
G04 #@! TO.C,TP2*
X123198095Y-103592380D02*
X123769523Y-103592380D01*
X123483809Y-104592380D02*
X123483809Y-103592380D01*
X124102857Y-104592380D02*
X124102857Y-103592380D01*
X124483809Y-103592380D01*
X124579047Y-103640000D01*
X124626666Y-103687619D01*
X124674285Y-103782857D01*
X124674285Y-103925714D01*
X124626666Y-104020952D01*
X124579047Y-104068571D01*
X124483809Y-104116190D01*
X124102857Y-104116190D01*
X125055238Y-103687619D02*
X125102857Y-103640000D01*
X125198095Y-103592380D01*
X125436190Y-103592380D01*
X125531428Y-103640000D01*
X125579047Y-103687619D01*
X125626666Y-103782857D01*
X125626666Y-103878095D01*
X125579047Y-104020952D01*
X125007619Y-104592380D01*
X125626666Y-104592380D01*
G04 #@! TO.C,TP19*
X145792380Y-109688095D02*
X145792380Y-109116666D01*
X146792380Y-109402380D02*
X145792380Y-109402380D01*
X146792380Y-108783333D02*
X145792380Y-108783333D01*
X145792380Y-108402380D01*
X145840000Y-108307142D01*
X145887619Y-108259523D01*
X145982857Y-108211904D01*
X146125714Y-108211904D01*
X146220952Y-108259523D01*
X146268571Y-108307142D01*
X146316190Y-108402380D01*
X146316190Y-108783333D01*
X146792380Y-107259523D02*
X146792380Y-107830952D01*
X146792380Y-107545238D02*
X145792380Y-107545238D01*
X145935238Y-107640476D01*
X146030476Y-107735714D01*
X146078095Y-107830952D01*
X146792380Y-106783333D02*
X146792380Y-106592857D01*
X146744761Y-106497619D01*
X146697142Y-106450000D01*
X146554285Y-106354761D01*
X146363809Y-106307142D01*
X145982857Y-106307142D01*
X145887619Y-106354761D01*
X145840000Y-106402380D01*
X145792380Y-106497619D01*
X145792380Y-106688095D01*
X145840000Y-106783333D01*
X145887619Y-106830952D01*
X145982857Y-106878571D01*
X146220952Y-106878571D01*
X146316190Y-106830952D01*
X146363809Y-106783333D01*
X146411428Y-106688095D01*
X146411428Y-106497619D01*
X146363809Y-106402380D01*
X146316190Y-106354761D01*
X146220952Y-106307142D01*
G04 #@! TO.C,TP27*
X163361904Y-103592380D02*
X163933333Y-103592380D01*
X163647619Y-104592380D02*
X163647619Y-103592380D01*
X164266666Y-104592380D02*
X164266666Y-103592380D01*
X164647619Y-103592380D01*
X164742857Y-103640000D01*
X164790476Y-103687619D01*
X164838095Y-103782857D01*
X164838095Y-103925714D01*
X164790476Y-104020952D01*
X164742857Y-104068571D01*
X164647619Y-104116190D01*
X164266666Y-104116190D01*
X165219047Y-103687619D02*
X165266666Y-103640000D01*
X165361904Y-103592380D01*
X165600000Y-103592380D01*
X165695238Y-103640000D01*
X165742857Y-103687619D01*
X165790476Y-103782857D01*
X165790476Y-103878095D01*
X165742857Y-104020952D01*
X165171428Y-104592380D01*
X165790476Y-104592380D01*
X166123809Y-103592380D02*
X166790476Y-103592380D01*
X166361904Y-104592380D01*
G04 #@! TO.C,TP17*
X153412380Y-79208095D02*
X153412380Y-78636666D01*
X154412380Y-78922380D02*
X153412380Y-78922380D01*
X154412380Y-78303333D02*
X153412380Y-78303333D01*
X153412380Y-77922380D01*
X153460000Y-77827142D01*
X153507619Y-77779523D01*
X153602857Y-77731904D01*
X153745714Y-77731904D01*
X153840952Y-77779523D01*
X153888571Y-77827142D01*
X153936190Y-77922380D01*
X153936190Y-78303333D01*
X154412380Y-76779523D02*
X154412380Y-77350952D01*
X154412380Y-77065238D02*
X153412380Y-77065238D01*
X153555238Y-77160476D01*
X153650476Y-77255714D01*
X153698095Y-77350952D01*
X153412380Y-76446190D02*
X153412380Y-75779523D01*
X154412380Y-76208095D01*
G04 #@! TO.C,R3*
X139982380Y-94146666D02*
X139506190Y-94480000D01*
X139982380Y-94718095D02*
X138982380Y-94718095D01*
X138982380Y-94337142D01*
X139030000Y-94241904D01*
X139077619Y-94194285D01*
X139172857Y-94146666D01*
X139315714Y-94146666D01*
X139410952Y-94194285D01*
X139458571Y-94241904D01*
X139506190Y-94337142D01*
X139506190Y-94718095D01*
X138982380Y-93813333D02*
X138982380Y-93194285D01*
X139363333Y-93527619D01*
X139363333Y-93384761D01*
X139410952Y-93289523D01*
X139458571Y-93241904D01*
X139553809Y-93194285D01*
X139791904Y-93194285D01*
X139887142Y-93241904D01*
X139934761Y-93289523D01*
X139982380Y-93384761D01*
X139982380Y-93670476D01*
X139934761Y-93765714D01*
X139887142Y-93813333D01*
G04 #@! TO.C,J1*
X119271666Y-98512380D02*
X119271666Y-99226666D01*
X119224047Y-99369523D01*
X119128809Y-99464761D01*
X118985952Y-99512380D01*
X118890714Y-99512380D01*
X120271666Y-99512380D02*
X119700238Y-99512380D01*
X119985952Y-99512380D02*
X119985952Y-98512380D01*
X119890714Y-98655238D01*
X119795476Y-98750476D01*
X119700238Y-98798095D01*
G04 #@! TO.C,JP5*
X145216666Y-85812380D02*
X145216666Y-86526666D01*
X145169047Y-86669523D01*
X145073809Y-86764761D01*
X144930952Y-86812380D01*
X144835714Y-86812380D01*
X145692857Y-86812380D02*
X145692857Y-85812380D01*
X146073809Y-85812380D01*
X146169047Y-85860000D01*
X146216666Y-85907619D01*
X146264285Y-86002857D01*
X146264285Y-86145714D01*
X146216666Y-86240952D01*
X146169047Y-86288571D01*
X146073809Y-86336190D01*
X145692857Y-86336190D01*
X147169047Y-85812380D02*
X146692857Y-85812380D01*
X146645238Y-86288571D01*
X146692857Y-86240952D01*
X146788095Y-86193333D01*
X147026190Y-86193333D01*
X147121428Y-86240952D01*
X147169047Y-86288571D01*
X147216666Y-86383809D01*
X147216666Y-86621904D01*
X147169047Y-86717142D01*
X147121428Y-86764761D01*
X147026190Y-86812380D01*
X146788095Y-86812380D01*
X146692857Y-86764761D01*
X146645238Y-86717142D01*
G04 #@! TO.C,TP26*
X159762380Y-109688095D02*
X159762380Y-109116666D01*
X160762380Y-109402380D02*
X159762380Y-109402380D01*
X160762380Y-108783333D02*
X159762380Y-108783333D01*
X159762380Y-108402380D01*
X159810000Y-108307142D01*
X159857619Y-108259523D01*
X159952857Y-108211904D01*
X160095714Y-108211904D01*
X160190952Y-108259523D01*
X160238571Y-108307142D01*
X160286190Y-108402380D01*
X160286190Y-108783333D01*
X159857619Y-107830952D02*
X159810000Y-107783333D01*
X159762380Y-107688095D01*
X159762380Y-107450000D01*
X159810000Y-107354761D01*
X159857619Y-107307142D01*
X159952857Y-107259523D01*
X160048095Y-107259523D01*
X160190952Y-107307142D01*
X160762380Y-107878571D01*
X160762380Y-107259523D01*
X159762380Y-106402380D02*
X159762380Y-106592857D01*
X159810000Y-106688095D01*
X159857619Y-106735714D01*
X160000476Y-106830952D01*
X160190952Y-106878571D01*
X160571904Y-106878571D01*
X160667142Y-106830952D01*
X160714761Y-106783333D01*
X160762380Y-106688095D01*
X160762380Y-106497619D01*
X160714761Y-106402380D01*
X160667142Y-106354761D01*
X160571904Y-106307142D01*
X160333809Y-106307142D01*
X160238571Y-106354761D01*
X160190952Y-106402380D01*
X160143333Y-106497619D01*
X160143333Y-106688095D01*
X160190952Y-106783333D01*
X160238571Y-106830952D01*
X160333809Y-106878571D01*
G04 #@! TO.C,TP12*
X130552380Y-79208095D02*
X130552380Y-78636666D01*
X131552380Y-78922380D02*
X130552380Y-78922380D01*
X131552380Y-78303333D02*
X130552380Y-78303333D01*
X130552380Y-77922380D01*
X130600000Y-77827142D01*
X130647619Y-77779523D01*
X130742857Y-77731904D01*
X130885714Y-77731904D01*
X130980952Y-77779523D01*
X131028571Y-77827142D01*
X131076190Y-77922380D01*
X131076190Y-78303333D01*
X131552380Y-76779523D02*
X131552380Y-77350952D01*
X131552380Y-77065238D02*
X130552380Y-77065238D01*
X130695238Y-77160476D01*
X130790476Y-77255714D01*
X130838095Y-77350952D01*
X130647619Y-76398571D02*
X130600000Y-76350952D01*
X130552380Y-76255714D01*
X130552380Y-76017619D01*
X130600000Y-75922380D01*
X130647619Y-75874761D01*
X130742857Y-75827142D01*
X130838095Y-75827142D01*
X130980952Y-75874761D01*
X131552380Y-76446190D01*
X131552380Y-75827142D01*
G04 #@! TO.C,JP3*
X143946666Y-98512380D02*
X143946666Y-99226666D01*
X143899047Y-99369523D01*
X143803809Y-99464761D01*
X143660952Y-99512380D01*
X143565714Y-99512380D01*
X144422857Y-99512380D02*
X144422857Y-98512380D01*
X144803809Y-98512380D01*
X144899047Y-98560000D01*
X144946666Y-98607619D01*
X144994285Y-98702857D01*
X144994285Y-98845714D01*
X144946666Y-98940952D01*
X144899047Y-98988571D01*
X144803809Y-99036190D01*
X144422857Y-99036190D01*
X145327619Y-98512380D02*
X145946666Y-98512380D01*
X145613333Y-98893333D01*
X145756190Y-98893333D01*
X145851428Y-98940952D01*
X145899047Y-98988571D01*
X145946666Y-99083809D01*
X145946666Y-99321904D01*
X145899047Y-99417142D01*
X145851428Y-99464761D01*
X145756190Y-99512380D01*
X145470476Y-99512380D01*
X145375238Y-99464761D01*
X145327619Y-99417142D01*
G04 #@! TO.C,JP4*
X135706666Y-85812380D02*
X135706666Y-86526666D01*
X135659047Y-86669523D01*
X135563809Y-86764761D01*
X135420952Y-86812380D01*
X135325714Y-86812380D01*
X136182857Y-86812380D02*
X136182857Y-85812380D01*
X136563809Y-85812380D01*
X136659047Y-85860000D01*
X136706666Y-85907619D01*
X136754285Y-86002857D01*
X136754285Y-86145714D01*
X136706666Y-86240952D01*
X136659047Y-86288571D01*
X136563809Y-86336190D01*
X136182857Y-86336190D01*
X137611428Y-86145714D02*
X137611428Y-86812380D01*
X137373333Y-85764761D02*
X137135238Y-86479047D01*
X137754285Y-86479047D01*
G04 #@! TO.C,JP1*
X131246666Y-103592380D02*
X131246666Y-104306666D01*
X131199047Y-104449523D01*
X131103809Y-104544761D01*
X130960952Y-104592380D01*
X130865714Y-104592380D01*
X131722857Y-104592380D02*
X131722857Y-103592380D01*
X132103809Y-103592380D01*
X132199047Y-103640000D01*
X132246666Y-103687619D01*
X132294285Y-103782857D01*
X132294285Y-103925714D01*
X132246666Y-104020952D01*
X132199047Y-104068571D01*
X132103809Y-104116190D01*
X131722857Y-104116190D01*
X133246666Y-104592380D02*
X132675238Y-104592380D01*
X132960952Y-104592380D02*
X132960952Y-103592380D01*
X132865714Y-103735238D01*
X132770476Y-103830476D01*
X132675238Y-103878095D01*
G04 #@! TO.C,TP25*
X167381904Y-89622380D02*
X167953333Y-89622380D01*
X167667619Y-90622380D02*
X167667619Y-89622380D01*
X168286666Y-90622380D02*
X168286666Y-89622380D01*
X168667619Y-89622380D01*
X168762857Y-89670000D01*
X168810476Y-89717619D01*
X168858095Y-89812857D01*
X168858095Y-89955714D01*
X168810476Y-90050952D01*
X168762857Y-90098571D01*
X168667619Y-90146190D01*
X168286666Y-90146190D01*
X169239047Y-89717619D02*
X169286666Y-89670000D01*
X169381904Y-89622380D01*
X169620000Y-89622380D01*
X169715238Y-89670000D01*
X169762857Y-89717619D01*
X169810476Y-89812857D01*
X169810476Y-89908095D01*
X169762857Y-90050952D01*
X169191428Y-90622380D01*
X169810476Y-90622380D01*
X170715238Y-89622380D02*
X170239047Y-89622380D01*
X170191428Y-90098571D01*
X170239047Y-90050952D01*
X170334285Y-90003333D01*
X170572380Y-90003333D01*
X170667619Y-90050952D01*
X170715238Y-90098571D01*
X170762857Y-90193809D01*
X170762857Y-90431904D01*
X170715238Y-90527142D01*
X170667619Y-90574761D01*
X170572380Y-90622380D01*
X170334285Y-90622380D01*
X170239047Y-90574761D01*
X170191428Y-90527142D01*
G04 #@! TO.C,R1*
X129822380Y-94146666D02*
X129346190Y-94480000D01*
X129822380Y-94718095D02*
X128822380Y-94718095D01*
X128822380Y-94337142D01*
X128870000Y-94241904D01*
X128917619Y-94194285D01*
X129012857Y-94146666D01*
X129155714Y-94146666D01*
X129250952Y-94194285D01*
X129298571Y-94241904D01*
X129346190Y-94337142D01*
X129346190Y-94718095D01*
X129822380Y-93194285D02*
X129822380Y-93765714D01*
X129822380Y-93480000D02*
X128822380Y-93480000D01*
X128965238Y-93575238D01*
X129060476Y-93670476D01*
X129108095Y-93765714D01*
G04 #@! TO.C,TP21*
X151296904Y-104227380D02*
X151868333Y-104227380D01*
X151582619Y-105227380D02*
X151582619Y-104227380D01*
X152201666Y-105227380D02*
X152201666Y-104227380D01*
X152582619Y-104227380D01*
X152677857Y-104275000D01*
X152725476Y-104322619D01*
X152773095Y-104417857D01*
X152773095Y-104560714D01*
X152725476Y-104655952D01*
X152677857Y-104703571D01*
X152582619Y-104751190D01*
X152201666Y-104751190D01*
X153154047Y-104322619D02*
X153201666Y-104275000D01*
X153296904Y-104227380D01*
X153535000Y-104227380D01*
X153630238Y-104275000D01*
X153677857Y-104322619D01*
X153725476Y-104417857D01*
X153725476Y-104513095D01*
X153677857Y-104655952D01*
X153106428Y-105227380D01*
X153725476Y-105227380D01*
X154677857Y-105227380D02*
X154106428Y-105227380D01*
X154392142Y-105227380D02*
X154392142Y-104227380D01*
X154296904Y-104370238D01*
X154201666Y-104465476D01*
X154106428Y-104513095D01*
G04 #@! TO.C,TP7*
X119388095Y-81022380D02*
X119959523Y-81022380D01*
X119673809Y-82022380D02*
X119673809Y-81022380D01*
X120292857Y-82022380D02*
X120292857Y-81022380D01*
X120673809Y-81022380D01*
X120769047Y-81070000D01*
X120816666Y-81117619D01*
X120864285Y-81212857D01*
X120864285Y-81355714D01*
X120816666Y-81450952D01*
X120769047Y-81498571D01*
X120673809Y-81546190D01*
X120292857Y-81546190D01*
X121197619Y-81022380D02*
X121864285Y-81022380D01*
X121435714Y-82022380D01*
G04 #@! TO.C,TP11*
X126742380Y-79208095D02*
X126742380Y-78636666D01*
X127742380Y-78922380D02*
X126742380Y-78922380D01*
X127742380Y-78303333D02*
X126742380Y-78303333D01*
X126742380Y-77922380D01*
X126790000Y-77827142D01*
X126837619Y-77779523D01*
X126932857Y-77731904D01*
X127075714Y-77731904D01*
X127170952Y-77779523D01*
X127218571Y-77827142D01*
X127266190Y-77922380D01*
X127266190Y-78303333D01*
X127742380Y-76779523D02*
X127742380Y-77350952D01*
X127742380Y-77065238D02*
X126742380Y-77065238D01*
X126885238Y-77160476D01*
X126980476Y-77255714D01*
X127028095Y-77350952D01*
X127742380Y-75827142D02*
X127742380Y-76398571D01*
X127742380Y-76112857D02*
X126742380Y-76112857D01*
X126885238Y-76208095D01*
X126980476Y-76303333D01*
X127028095Y-76398571D01*
G04 #@! TO.C,TP4*
X131822380Y-109211904D02*
X131822380Y-108640476D01*
X132822380Y-108926190D02*
X131822380Y-108926190D01*
X132822380Y-108307142D02*
X131822380Y-108307142D01*
X131822380Y-107926190D01*
X131870000Y-107830952D01*
X131917619Y-107783333D01*
X132012857Y-107735714D01*
X132155714Y-107735714D01*
X132250952Y-107783333D01*
X132298571Y-107830952D01*
X132346190Y-107926190D01*
X132346190Y-108307142D01*
X132155714Y-106878571D02*
X132822380Y-106878571D01*
X131774761Y-107116666D02*
X132489047Y-107354761D01*
X132489047Y-106735714D01*
G04 #@! TO.C,TP24*
X167381904Y-81022380D02*
X167953333Y-81022380D01*
X167667619Y-82022380D02*
X167667619Y-81022380D01*
X168286666Y-82022380D02*
X168286666Y-81022380D01*
X168667619Y-81022380D01*
X168762857Y-81070000D01*
X168810476Y-81117619D01*
X168858095Y-81212857D01*
X168858095Y-81355714D01*
X168810476Y-81450952D01*
X168762857Y-81498571D01*
X168667619Y-81546190D01*
X168286666Y-81546190D01*
X169239047Y-81117619D02*
X169286666Y-81070000D01*
X169381904Y-81022380D01*
X169620000Y-81022380D01*
X169715238Y-81070000D01*
X169762857Y-81117619D01*
X169810476Y-81212857D01*
X169810476Y-81308095D01*
X169762857Y-81450952D01*
X169191428Y-82022380D01*
X169810476Y-82022380D01*
X170667619Y-81355714D02*
X170667619Y-82022380D01*
X170429523Y-80974761D02*
X170191428Y-81689047D01*
X170810476Y-81689047D01*
G04 #@! TO.C,J4*
X149526666Y-99147380D02*
X149526666Y-99861666D01*
X149479047Y-100004523D01*
X149383809Y-100099761D01*
X149240952Y-100147380D01*
X149145714Y-100147380D01*
X150431428Y-99480714D02*
X150431428Y-100147380D01*
X150193333Y-99099761D02*
X149955238Y-99814047D01*
X150574285Y-99814047D01*
G04 #@! TO.C,JP2*
X124896666Y-85812380D02*
X124896666Y-86526666D01*
X124849047Y-86669523D01*
X124753809Y-86764761D01*
X124610952Y-86812380D01*
X124515714Y-86812380D01*
X125372857Y-86812380D02*
X125372857Y-85812380D01*
X125753809Y-85812380D01*
X125849047Y-85860000D01*
X125896666Y-85907619D01*
X125944285Y-86002857D01*
X125944285Y-86145714D01*
X125896666Y-86240952D01*
X125849047Y-86288571D01*
X125753809Y-86336190D01*
X125372857Y-86336190D01*
X126325238Y-85907619D02*
X126372857Y-85860000D01*
X126468095Y-85812380D01*
X126706190Y-85812380D01*
X126801428Y-85860000D01*
X126849047Y-85907619D01*
X126896666Y-86002857D01*
X126896666Y-86098095D01*
X126849047Y-86240952D01*
X126277619Y-86812380D01*
X126896666Y-86812380D01*
G04 #@! TO.C,TP16*
X148332380Y-79208095D02*
X148332380Y-78636666D01*
X149332380Y-78922380D02*
X148332380Y-78922380D01*
X149332380Y-78303333D02*
X148332380Y-78303333D01*
X148332380Y-77922380D01*
X148380000Y-77827142D01*
X148427619Y-77779523D01*
X148522857Y-77731904D01*
X148665714Y-77731904D01*
X148760952Y-77779523D01*
X148808571Y-77827142D01*
X148856190Y-77922380D01*
X148856190Y-78303333D01*
X149332380Y-76779523D02*
X149332380Y-77350952D01*
X149332380Y-77065238D02*
X148332380Y-77065238D01*
X148475238Y-77160476D01*
X148570476Y-77255714D01*
X148618095Y-77350952D01*
X148332380Y-75922380D02*
X148332380Y-76112857D01*
X148380000Y-76208095D01*
X148427619Y-76255714D01*
X148570476Y-76350952D01*
X148760952Y-76398571D01*
X149141904Y-76398571D01*
X149237142Y-76350952D01*
X149284761Y-76303333D01*
X149332380Y-76208095D01*
X149332380Y-76017619D01*
X149284761Y-75922380D01*
X149237142Y-75874761D01*
X149141904Y-75827142D01*
X148903809Y-75827142D01*
X148808571Y-75874761D01*
X148760952Y-75922380D01*
X148713333Y-76017619D01*
X148713333Y-76208095D01*
X148760952Y-76303333D01*
X148808571Y-76350952D01*
X148903809Y-76398571D01*
G04 #@! TO.C,H1*
X119888095Y-92002380D02*
X119888095Y-91002380D01*
X119888095Y-91478571D02*
X120459523Y-91478571D01*
X120459523Y-92002380D02*
X120459523Y-91002380D01*
X121459523Y-92002380D02*
X120888095Y-92002380D01*
X121173809Y-92002380D02*
X121173809Y-91002380D01*
X121078571Y-91145238D01*
X120983333Y-91240476D01*
X120888095Y-91288095D01*
G04 #@! TO.C,TP22*
X170902380Y-79208095D02*
X170902380Y-78636666D01*
X171902380Y-78922380D02*
X170902380Y-78922380D01*
X171902380Y-78303333D02*
X170902380Y-78303333D01*
X170902380Y-77922380D01*
X170950000Y-77827142D01*
X170997619Y-77779523D01*
X171092857Y-77731904D01*
X171235714Y-77731904D01*
X171330952Y-77779523D01*
X171378571Y-77827142D01*
X171426190Y-77922380D01*
X171426190Y-78303333D01*
X170997619Y-77350952D02*
X170950000Y-77303333D01*
X170902380Y-77208095D01*
X170902380Y-76970000D01*
X170950000Y-76874761D01*
X170997619Y-76827142D01*
X171092857Y-76779523D01*
X171188095Y-76779523D01*
X171330952Y-76827142D01*
X171902380Y-77398571D01*
X171902380Y-76779523D01*
X170997619Y-76398571D02*
X170950000Y-76350952D01*
X170902380Y-76255714D01*
X170902380Y-76017619D01*
X170950000Y-75922380D01*
X170997619Y-75874761D01*
X171092857Y-75827142D01*
X171188095Y-75827142D01*
X171330952Y-75874761D01*
X171902380Y-76446190D01*
X171902380Y-75827142D01*
G04 #@! TO.C,TP13*
X135632380Y-79208095D02*
X135632380Y-78636666D01*
X136632380Y-78922380D02*
X135632380Y-78922380D01*
X136632380Y-78303333D02*
X135632380Y-78303333D01*
X135632380Y-77922380D01*
X135680000Y-77827142D01*
X135727619Y-77779523D01*
X135822857Y-77731904D01*
X135965714Y-77731904D01*
X136060952Y-77779523D01*
X136108571Y-77827142D01*
X136156190Y-77922380D01*
X136156190Y-78303333D01*
X136632380Y-76779523D02*
X136632380Y-77350952D01*
X136632380Y-77065238D02*
X135632380Y-77065238D01*
X135775238Y-77160476D01*
X135870476Y-77255714D01*
X135918095Y-77350952D01*
X135632380Y-76446190D02*
X135632380Y-75827142D01*
X136013333Y-76160476D01*
X136013333Y-76017619D01*
X136060952Y-75922380D01*
X136108571Y-75874761D01*
X136203809Y-75827142D01*
X136441904Y-75827142D01*
X136537142Y-75874761D01*
X136584761Y-75922380D01*
X136632380Y-76017619D01*
X136632380Y-76303333D01*
X136584761Y-76398571D01*
X136537142Y-76446190D01*
G04 #@! TO.C,TP8*
X120658095Y-89622380D02*
X121229523Y-89622380D01*
X120943809Y-90622380D02*
X120943809Y-89622380D01*
X121562857Y-90622380D02*
X121562857Y-89622380D01*
X121943809Y-89622380D01*
X122039047Y-89670000D01*
X122086666Y-89717619D01*
X122134285Y-89812857D01*
X122134285Y-89955714D01*
X122086666Y-90050952D01*
X122039047Y-90098571D01*
X121943809Y-90146190D01*
X121562857Y-90146190D01*
X122705714Y-90050952D02*
X122610476Y-90003333D01*
X122562857Y-89955714D01*
X122515238Y-89860476D01*
X122515238Y-89812857D01*
X122562857Y-89717619D01*
X122610476Y-89670000D01*
X122705714Y-89622380D01*
X122896190Y-89622380D01*
X122991428Y-89670000D01*
X123039047Y-89717619D01*
X123086666Y-89812857D01*
X123086666Y-89860476D01*
X123039047Y-89955714D01*
X122991428Y-90003333D01*
X122896190Y-90050952D01*
X122705714Y-90050952D01*
X122610476Y-90098571D01*
X122562857Y-90146190D01*
X122515238Y-90241428D01*
X122515238Y-90431904D01*
X122562857Y-90527142D01*
X122610476Y-90574761D01*
X122705714Y-90622380D01*
X122896190Y-90622380D01*
X122991428Y-90574761D01*
X123039047Y-90527142D01*
X123086666Y-90431904D01*
X123086666Y-90241428D01*
X123039047Y-90146190D01*
X122991428Y-90098571D01*
X122896190Y-90050952D01*
G04 #@! TO.C,R2*
X134902380Y-94146666D02*
X134426190Y-94480000D01*
X134902380Y-94718095D02*
X133902380Y-94718095D01*
X133902380Y-94337142D01*
X133950000Y-94241904D01*
X133997619Y-94194285D01*
X134092857Y-94146666D01*
X134235714Y-94146666D01*
X134330952Y-94194285D01*
X134378571Y-94241904D01*
X134426190Y-94337142D01*
X134426190Y-94718095D01*
X133997619Y-93765714D02*
X133950000Y-93718095D01*
X133902380Y-93622857D01*
X133902380Y-93384761D01*
X133950000Y-93289523D01*
X133997619Y-93241904D01*
X134092857Y-93194285D01*
X134188095Y-93194285D01*
X134330952Y-93241904D01*
X134902380Y-93813333D01*
X134902380Y-93194285D01*
G04 #@! TO.C,J2*
X130476666Y-98092380D02*
X130476666Y-98806666D01*
X130429047Y-98949523D01*
X130333809Y-99044761D01*
X130190952Y-99092380D01*
X130095714Y-99092380D01*
X130905238Y-98187619D02*
X130952857Y-98140000D01*
X131048095Y-98092380D01*
X131286190Y-98092380D01*
X131381428Y-98140000D01*
X131429047Y-98187619D01*
X131476666Y-98282857D01*
X131476666Y-98378095D01*
X131429047Y-98520952D01*
X130857619Y-99092380D01*
X131476666Y-99092380D01*
G04 #@! TO.C,R8*
X165382380Y-94146666D02*
X164906190Y-94480000D01*
X165382380Y-94718095D02*
X164382380Y-94718095D01*
X164382380Y-94337142D01*
X164430000Y-94241904D01*
X164477619Y-94194285D01*
X164572857Y-94146666D01*
X164715714Y-94146666D01*
X164810952Y-94194285D01*
X164858571Y-94241904D01*
X164906190Y-94337142D01*
X164906190Y-94718095D01*
X164810952Y-93575238D02*
X164763333Y-93670476D01*
X164715714Y-93718095D01*
X164620476Y-93765714D01*
X164572857Y-93765714D01*
X164477619Y-93718095D01*
X164430000Y-93670476D01*
X164382380Y-93575238D01*
X164382380Y-93384761D01*
X164430000Y-93289523D01*
X164477619Y-93241904D01*
X164572857Y-93194285D01*
X164620476Y-93194285D01*
X164715714Y-93241904D01*
X164763333Y-93289523D01*
X164810952Y-93384761D01*
X164810952Y-93575238D01*
X164858571Y-93670476D01*
X164906190Y-93718095D01*
X165001428Y-93765714D01*
X165191904Y-93765714D01*
X165287142Y-93718095D01*
X165334761Y-93670476D01*
X165382380Y-93575238D01*
X165382380Y-93384761D01*
X165334761Y-93289523D01*
X165287142Y-93241904D01*
X165191904Y-93194285D01*
X165001428Y-93194285D01*
X164906190Y-93241904D01*
X164858571Y-93289523D01*
X164810952Y-93384761D01*
G04 #@! TO.C,J3*
X122852380Y-82883333D02*
X123566666Y-82883333D01*
X123709523Y-82930952D01*
X123804761Y-83026190D01*
X123852380Y-83169047D01*
X123852380Y-83264285D01*
X122852380Y-82502380D02*
X122852380Y-81883333D01*
X123233333Y-82216666D01*
X123233333Y-82073809D01*
X123280952Y-81978571D01*
X123328571Y-81930952D01*
X123423809Y-81883333D01*
X123661904Y-81883333D01*
X123757142Y-81930952D01*
X123804761Y-81978571D01*
X123852380Y-82073809D01*
X123852380Y-82359523D01*
X123804761Y-82454761D01*
X123757142Y-82502380D01*
G04 #@! TO.C,R4*
X145062380Y-94146666D02*
X144586190Y-94480000D01*
X145062380Y-94718095D02*
X144062380Y-94718095D01*
X144062380Y-94337142D01*
X144110000Y-94241904D01*
X144157619Y-94194285D01*
X144252857Y-94146666D01*
X144395714Y-94146666D01*
X144490952Y-94194285D01*
X144538571Y-94241904D01*
X144586190Y-94337142D01*
X144586190Y-94718095D01*
X144395714Y-93289523D02*
X145062380Y-93289523D01*
X144014761Y-93527619D02*
X144729047Y-93765714D01*
X144729047Y-93146666D01*
G04 #@! TO.C,JP6*
X155376666Y-85812380D02*
X155376666Y-86526666D01*
X155329047Y-86669523D01*
X155233809Y-86764761D01*
X155090952Y-86812380D01*
X154995714Y-86812380D01*
X155852857Y-86812380D02*
X155852857Y-85812380D01*
X156233809Y-85812380D01*
X156329047Y-85860000D01*
X156376666Y-85907619D01*
X156424285Y-86002857D01*
X156424285Y-86145714D01*
X156376666Y-86240952D01*
X156329047Y-86288571D01*
X156233809Y-86336190D01*
X155852857Y-86336190D01*
X157281428Y-85812380D02*
X157090952Y-85812380D01*
X156995714Y-85860000D01*
X156948095Y-85907619D01*
X156852857Y-86050476D01*
X156805238Y-86240952D01*
X156805238Y-86621904D01*
X156852857Y-86717142D01*
X156900476Y-86764761D01*
X156995714Y-86812380D01*
X157186190Y-86812380D01*
X157281428Y-86764761D01*
X157329047Y-86717142D01*
X157376666Y-86621904D01*
X157376666Y-86383809D01*
X157329047Y-86288571D01*
X157281428Y-86240952D01*
X157186190Y-86193333D01*
X156995714Y-86193333D01*
X156900476Y-86240952D01*
X156852857Y-86288571D01*
X156805238Y-86383809D01*
G04 #@! TO.C,R5*
X150142380Y-94146666D02*
X149666190Y-94480000D01*
X150142380Y-94718095D02*
X149142380Y-94718095D01*
X149142380Y-94337142D01*
X149190000Y-94241904D01*
X149237619Y-94194285D01*
X149332857Y-94146666D01*
X149475714Y-94146666D01*
X149570952Y-94194285D01*
X149618571Y-94241904D01*
X149666190Y-94337142D01*
X149666190Y-94718095D01*
X149142380Y-93241904D02*
X149142380Y-93718095D01*
X149618571Y-93765714D01*
X149570952Y-93718095D01*
X149523333Y-93622857D01*
X149523333Y-93384761D01*
X149570952Y-93289523D01*
X149618571Y-93241904D01*
X149713809Y-93194285D01*
X149951904Y-93194285D01*
X150047142Y-93241904D01*
X150094761Y-93289523D01*
X150142380Y-93384761D01*
X150142380Y-93622857D01*
X150094761Y-93718095D01*
X150047142Y-93765714D01*
G04 #@! TO.C,TP15*
X144522380Y-79208095D02*
X144522380Y-78636666D01*
X145522380Y-78922380D02*
X144522380Y-78922380D01*
X145522380Y-78303333D02*
X144522380Y-78303333D01*
X144522380Y-77922380D01*
X144570000Y-77827142D01*
X144617619Y-77779523D01*
X144712857Y-77731904D01*
X144855714Y-77731904D01*
X144950952Y-77779523D01*
X144998571Y-77827142D01*
X145046190Y-77922380D01*
X145046190Y-78303333D01*
X145522380Y-76779523D02*
X145522380Y-77350952D01*
X145522380Y-77065238D02*
X144522380Y-77065238D01*
X144665238Y-77160476D01*
X144760476Y-77255714D01*
X144808095Y-77350952D01*
X144522380Y-75874761D02*
X144522380Y-76350952D01*
X144998571Y-76398571D01*
X144950952Y-76350952D01*
X144903333Y-76255714D01*
X144903333Y-76017619D01*
X144950952Y-75922380D01*
X144998571Y-75874761D01*
X145093809Y-75827142D01*
X145331904Y-75827142D01*
X145427142Y-75874761D01*
X145474761Y-75922380D01*
X145522380Y-76017619D01*
X145522380Y-76255714D01*
X145474761Y-76350952D01*
X145427142Y-76398571D01*
G04 #@! TO.C,TP14*
X139442380Y-79208095D02*
X139442380Y-78636666D01*
X140442380Y-78922380D02*
X139442380Y-78922380D01*
X140442380Y-78303333D02*
X139442380Y-78303333D01*
X139442380Y-77922380D01*
X139490000Y-77827142D01*
X139537619Y-77779523D01*
X139632857Y-77731904D01*
X139775714Y-77731904D01*
X139870952Y-77779523D01*
X139918571Y-77827142D01*
X139966190Y-77922380D01*
X139966190Y-78303333D01*
X140442380Y-76779523D02*
X140442380Y-77350952D01*
X140442380Y-77065238D02*
X139442380Y-77065238D01*
X139585238Y-77160476D01*
X139680476Y-77255714D01*
X139728095Y-77350952D01*
X139775714Y-75922380D02*
X140442380Y-75922380D01*
X139394761Y-76160476D02*
X140109047Y-76398571D01*
X140109047Y-75779523D01*
G04 #@! TO.C,J5*
X169846666Y-98512380D02*
X169846666Y-99226666D01*
X169799047Y-99369523D01*
X169703809Y-99464761D01*
X169560952Y-99512380D01*
X169465714Y-99512380D01*
X170799047Y-98512380D02*
X170322857Y-98512380D01*
X170275238Y-98988571D01*
X170322857Y-98940952D01*
X170418095Y-98893333D01*
X170656190Y-98893333D01*
X170751428Y-98940952D01*
X170799047Y-98988571D01*
X170846666Y-99083809D01*
X170846666Y-99321904D01*
X170799047Y-99417142D01*
X170751428Y-99464761D01*
X170656190Y-99512380D01*
X170418095Y-99512380D01*
X170322857Y-99464761D01*
X170275238Y-99417142D01*
G04 #@! TO.C,TP28*
X168441904Y-103592380D02*
X169013333Y-103592380D01*
X168727619Y-104592380D02*
X168727619Y-103592380D01*
X169346666Y-104592380D02*
X169346666Y-103592380D01*
X169727619Y-103592380D01*
X169822857Y-103640000D01*
X169870476Y-103687619D01*
X169918095Y-103782857D01*
X169918095Y-103925714D01*
X169870476Y-104020952D01*
X169822857Y-104068571D01*
X169727619Y-104116190D01*
X169346666Y-104116190D01*
X170299047Y-103687619D02*
X170346666Y-103640000D01*
X170441904Y-103592380D01*
X170680000Y-103592380D01*
X170775238Y-103640000D01*
X170822857Y-103687619D01*
X170870476Y-103782857D01*
X170870476Y-103878095D01*
X170822857Y-104020952D01*
X170251428Y-104592380D01*
X170870476Y-104592380D01*
X171441904Y-104020952D02*
X171346666Y-103973333D01*
X171299047Y-103925714D01*
X171251428Y-103830476D01*
X171251428Y-103782857D01*
X171299047Y-103687619D01*
X171346666Y-103640000D01*
X171441904Y-103592380D01*
X171632380Y-103592380D01*
X171727619Y-103640000D01*
X171775238Y-103687619D01*
X171822857Y-103782857D01*
X171822857Y-103830476D01*
X171775238Y-103925714D01*
X171727619Y-103973333D01*
X171632380Y-104020952D01*
X171441904Y-104020952D01*
X171346666Y-104068571D01*
X171299047Y-104116190D01*
X171251428Y-104211428D01*
X171251428Y-104401904D01*
X171299047Y-104497142D01*
X171346666Y-104544761D01*
X171441904Y-104592380D01*
X171632380Y-104592380D01*
X171727619Y-104544761D01*
X171775238Y-104497142D01*
X171822857Y-104401904D01*
X171822857Y-104211428D01*
X171775238Y-104116190D01*
X171727619Y-104068571D01*
X171632380Y-104020952D01*
G04 #@! TO.C,R6*
X155222380Y-94146666D02*
X154746190Y-94480000D01*
X155222380Y-94718095D02*
X154222380Y-94718095D01*
X154222380Y-94337142D01*
X154270000Y-94241904D01*
X154317619Y-94194285D01*
X154412857Y-94146666D01*
X154555714Y-94146666D01*
X154650952Y-94194285D01*
X154698571Y-94241904D01*
X154746190Y-94337142D01*
X154746190Y-94718095D01*
X154222380Y-93289523D02*
X154222380Y-93480000D01*
X154270000Y-93575238D01*
X154317619Y-93622857D01*
X154460476Y-93718095D01*
X154650952Y-93765714D01*
X155031904Y-93765714D01*
X155127142Y-93718095D01*
X155174761Y-93670476D01*
X155222380Y-93575238D01*
X155222380Y-93384761D01*
X155174761Y-93289523D01*
X155127142Y-93241904D01*
X155031904Y-93194285D01*
X154793809Y-93194285D01*
X154698571Y-93241904D01*
X154650952Y-93289523D01*
X154603333Y-93384761D01*
X154603333Y-93575238D01*
X154650952Y-93670476D01*
X154698571Y-93718095D01*
X154793809Y-93765714D01*
G04 #@! TO.C,TP9*
X117852380Y-78731904D02*
X117852380Y-78160476D01*
X118852380Y-78446190D02*
X117852380Y-78446190D01*
X118852380Y-77827142D02*
X117852380Y-77827142D01*
X117852380Y-77446190D01*
X117900000Y-77350952D01*
X117947619Y-77303333D01*
X118042857Y-77255714D01*
X118185714Y-77255714D01*
X118280952Y-77303333D01*
X118328571Y-77350952D01*
X118376190Y-77446190D01*
X118376190Y-77827142D01*
X118852380Y-76779523D02*
X118852380Y-76589047D01*
X118804761Y-76493809D01*
X118757142Y-76446190D01*
X118614285Y-76350952D01*
X118423809Y-76303333D01*
X118042857Y-76303333D01*
X117947619Y-76350952D01*
X117900000Y-76398571D01*
X117852380Y-76493809D01*
X117852380Y-76684285D01*
X117900000Y-76779523D01*
X117947619Y-76827142D01*
X118042857Y-76874761D01*
X118280952Y-76874761D01*
X118376190Y-76827142D01*
X118423809Y-76779523D01*
X118471428Y-76684285D01*
X118471428Y-76493809D01*
X118423809Y-76398571D01*
X118376190Y-76350952D01*
X118280952Y-76303333D01*
G04 #@! TO.C,TP5*
X137882380Y-105401904D02*
X137882380Y-104830476D01*
X138882380Y-105116190D02*
X137882380Y-105116190D01*
X138882380Y-104497142D02*
X137882380Y-104497142D01*
X137882380Y-104116190D01*
X137930000Y-104020952D01*
X137977619Y-103973333D01*
X138072857Y-103925714D01*
X138215714Y-103925714D01*
X138310952Y-103973333D01*
X138358571Y-104020952D01*
X138406190Y-104116190D01*
X138406190Y-104497142D01*
X137882380Y-103020952D02*
X137882380Y-103497142D01*
X138358571Y-103544761D01*
X138310952Y-103497142D01*
X138263333Y-103401904D01*
X138263333Y-103163809D01*
X138310952Y-103068571D01*
X138358571Y-103020952D01*
X138453809Y-102973333D01*
X138691904Y-102973333D01*
X138787142Y-103020952D01*
X138834761Y-103068571D01*
X138882380Y-103163809D01*
X138882380Y-103401904D01*
X138834761Y-103497142D01*
X138787142Y-103544761D01*
G04 #@! TO.C,H2*
X168148095Y-92002380D02*
X168148095Y-91002380D01*
X168148095Y-91478571D02*
X168719523Y-91478571D01*
X168719523Y-92002380D02*
X168719523Y-91002380D01*
X169148095Y-91097619D02*
X169195714Y-91050000D01*
X169290952Y-91002380D01*
X169529047Y-91002380D01*
X169624285Y-91050000D01*
X169671904Y-91097619D01*
X169719523Y-91192857D01*
X169719523Y-91288095D01*
X169671904Y-91430952D01*
X169100476Y-92002380D01*
X169719523Y-92002380D01*
G04 #@! TO.C,TP3*
X127008095Y-104862380D02*
X127579523Y-104862380D01*
X127293809Y-105862380D02*
X127293809Y-104862380D01*
X127912857Y-105862380D02*
X127912857Y-104862380D01*
X128293809Y-104862380D01*
X128389047Y-104910000D01*
X128436666Y-104957619D01*
X128484285Y-105052857D01*
X128484285Y-105195714D01*
X128436666Y-105290952D01*
X128389047Y-105338571D01*
X128293809Y-105386190D01*
X127912857Y-105386190D01*
X128817619Y-104862380D02*
X129436666Y-104862380D01*
X129103333Y-105243333D01*
X129246190Y-105243333D01*
X129341428Y-105290952D01*
X129389047Y-105338571D01*
X129436666Y-105433809D01*
X129436666Y-105671904D01*
X129389047Y-105767142D01*
X129341428Y-105814761D01*
X129246190Y-105862380D01*
X128960476Y-105862380D01*
X128865238Y-105814761D01*
X128817619Y-105767142D01*
G04 #@! TO.C,TP23*
X155106904Y-104862380D02*
X155678333Y-104862380D01*
X155392619Y-105862380D02*
X155392619Y-104862380D01*
X156011666Y-105862380D02*
X156011666Y-104862380D01*
X156392619Y-104862380D01*
X156487857Y-104910000D01*
X156535476Y-104957619D01*
X156583095Y-105052857D01*
X156583095Y-105195714D01*
X156535476Y-105290952D01*
X156487857Y-105338571D01*
X156392619Y-105386190D01*
X156011666Y-105386190D01*
X156964047Y-104957619D02*
X157011666Y-104910000D01*
X157106904Y-104862380D01*
X157345000Y-104862380D01*
X157440238Y-104910000D01*
X157487857Y-104957619D01*
X157535476Y-105052857D01*
X157535476Y-105148095D01*
X157487857Y-105290952D01*
X156916428Y-105862380D01*
X157535476Y-105862380D01*
X157868809Y-104862380D02*
X158487857Y-104862380D01*
X158154523Y-105243333D01*
X158297380Y-105243333D01*
X158392619Y-105290952D01*
X158440238Y-105338571D01*
X158487857Y-105433809D01*
X158487857Y-105671904D01*
X158440238Y-105767142D01*
X158392619Y-105814761D01*
X158297380Y-105862380D01*
X158011666Y-105862380D01*
X157916428Y-105814761D01*
X157868809Y-105767142D01*
G04 #@! TO.C,TP10*
X121662380Y-79208095D02*
X121662380Y-78636666D01*
X122662380Y-78922380D02*
X121662380Y-78922380D01*
X122662380Y-78303333D02*
X121662380Y-78303333D01*
X121662380Y-77922380D01*
X121710000Y-77827142D01*
X121757619Y-77779523D01*
X121852857Y-77731904D01*
X121995714Y-77731904D01*
X122090952Y-77779523D01*
X122138571Y-77827142D01*
X122186190Y-77922380D01*
X122186190Y-78303333D01*
X122662380Y-76779523D02*
X122662380Y-77350952D01*
X122662380Y-77065238D02*
X121662380Y-77065238D01*
X121805238Y-77160476D01*
X121900476Y-77255714D01*
X121948095Y-77350952D01*
X121662380Y-76160476D02*
X121662380Y-76065238D01*
X121710000Y-75970000D01*
X121757619Y-75922380D01*
X121852857Y-75874761D01*
X122043333Y-75827142D01*
X122281428Y-75827142D01*
X122471904Y-75874761D01*
X122567142Y-75922380D01*
X122614761Y-75970000D01*
X122662380Y-76065238D01*
X122662380Y-76160476D01*
X122614761Y-76255714D01*
X122567142Y-76303333D01*
X122471904Y-76350952D01*
X122281428Y-76398571D01*
X122043333Y-76398571D01*
X121852857Y-76350952D01*
X121757619Y-76303333D01*
X121710000Y-76255714D01*
X121662380Y-76160476D01*
G04 #@! TO.C,TP6*
X141692380Y-105401904D02*
X141692380Y-104830476D01*
X142692380Y-105116190D02*
X141692380Y-105116190D01*
X142692380Y-104497142D02*
X141692380Y-104497142D01*
X141692380Y-104116190D01*
X141740000Y-104020952D01*
X141787619Y-103973333D01*
X141882857Y-103925714D01*
X142025714Y-103925714D01*
X142120952Y-103973333D01*
X142168571Y-104020952D01*
X142216190Y-104116190D01*
X142216190Y-104497142D01*
X141692380Y-103068571D02*
X141692380Y-103259047D01*
X141740000Y-103354285D01*
X141787619Y-103401904D01*
X141930476Y-103497142D01*
X142120952Y-103544761D01*
X142501904Y-103544761D01*
X142597142Y-103497142D01*
X142644761Y-103449523D01*
X142692380Y-103354285D01*
X142692380Y-103163809D01*
X142644761Y-103068571D01*
X142597142Y-103020952D01*
X142501904Y-102973333D01*
X142263809Y-102973333D01*
X142168571Y-103020952D01*
X142120952Y-103068571D01*
X142073333Y-103163809D01*
X142073333Y-103354285D01*
X142120952Y-103449523D01*
X142168571Y-103497142D01*
X142263809Y-103544761D01*
D11*
G04 #@! TO.C,R7*
X158850000Y-90710000D02*
X158850000Y-97250000D01*
X158520000Y-90710000D02*
X158850000Y-90710000D01*
X156440000Y-90710000D02*
X156110000Y-90710000D01*
X156110000Y-90710000D02*
X156110000Y-97250000D01*
X158850000Y-97250000D02*
X158520000Y-97250000D01*
X156110000Y-97250000D02*
X156440000Y-97250000D01*
D10*
G04 #@! TO.C,TP1*
X121750000Y-106050000D02*
X121750000Y-109850000D01*
X119550000Y-109850000D02*
X119550000Y-106050000D01*
X121750000Y-109850000D02*
X119550000Y-109850000D01*
X119550000Y-106050000D02*
X121750000Y-106050000D01*
D11*
G04 #@! TO.C,JP7*
X159750000Y-103000000D02*
X157750000Y-103000000D01*
X159750000Y-100200000D02*
X159750000Y-103000000D01*
X157750000Y-103000000D02*
X157750000Y-100200000D01*
X157750000Y-100200000D02*
X159750000Y-100200000D01*
D10*
G04 #@! TO.C,TP20*
X164000000Y-79370000D02*
X164000000Y-75570000D01*
X166200000Y-79370000D02*
X164000000Y-79370000D01*
X166200000Y-75570000D02*
X166200000Y-79370000D01*
X164000000Y-75570000D02*
X166200000Y-75570000D01*
G04 #@! TO.C,TP18*
X158920000Y-75570000D02*
X161120000Y-75570000D01*
X158920000Y-79370000D02*
X158920000Y-75570000D01*
X161120000Y-79370000D02*
X158920000Y-79370000D01*
X161120000Y-75570000D02*
X161120000Y-79370000D01*
G04 #@! TO.C,TP2*
X123360000Y-106050000D02*
X125560000Y-106050000D01*
X125560000Y-109850000D02*
X123360000Y-109850000D01*
X125560000Y-106050000D02*
X125560000Y-109850000D01*
X123360000Y-109850000D02*
X123360000Y-106050000D01*
G04 #@! TO.C,TP19*
X149690000Y-109850000D02*
X147490000Y-109850000D01*
X147490000Y-106050000D02*
X149690000Y-106050000D01*
X147490000Y-109850000D02*
X147490000Y-106050000D01*
X149690000Y-106050000D02*
X149690000Y-109850000D01*
G04 #@! TO.C,TP27*
X167470000Y-109850000D02*
X165270000Y-109850000D01*
X165270000Y-106050000D02*
X167470000Y-106050000D01*
X165270000Y-109850000D02*
X165270000Y-106050000D01*
X167470000Y-106050000D02*
X167470000Y-109850000D01*
G04 #@! TO.C,TP17*
X157310000Y-75570000D02*
X157310000Y-79370000D01*
X155110000Y-75570000D02*
X157310000Y-75570000D01*
X157310000Y-79370000D02*
X155110000Y-79370000D01*
X155110000Y-79370000D02*
X155110000Y-75570000D01*
D11*
G04 #@! TO.C,R3*
X135790000Y-90710000D02*
X135790000Y-97250000D01*
X135790000Y-97250000D02*
X136120000Y-97250000D01*
X138530000Y-90710000D02*
X138530000Y-97250000D01*
X138200000Y-90710000D02*
X138530000Y-90710000D01*
X136120000Y-90710000D02*
X135790000Y-90710000D01*
X138530000Y-97250000D02*
X138200000Y-97250000D01*
G04 #@! TO.C,J1*
X123205000Y-102930000D02*
X123205000Y-100270000D01*
X121935000Y-102930000D02*
X120605000Y-102930000D01*
X128345000Y-102930000D02*
X128345000Y-100270000D01*
X123205000Y-100270000D02*
X128345000Y-100270000D01*
X123205000Y-102930000D02*
X128345000Y-102930000D01*
X120605000Y-102930000D02*
X120605000Y-101600000D01*
G04 #@! TO.C,JP5*
X148460000Y-85360000D02*
X151260000Y-85360000D01*
X151260000Y-85360000D02*
X151260000Y-87360000D01*
X151260000Y-87360000D02*
X148460000Y-87360000D01*
X148460000Y-87360000D02*
X148460000Y-85360000D01*
D10*
G04 #@! TO.C,TP26*
X161460000Y-109850000D02*
X161460000Y-106050000D01*
X161460000Y-106050000D02*
X163660000Y-106050000D01*
X163660000Y-106050000D02*
X163660000Y-109850000D01*
X163660000Y-109850000D02*
X161460000Y-109850000D01*
G04 #@! TO.C,TP12*
X132250000Y-79370000D02*
X132250000Y-75570000D01*
X134450000Y-79370000D02*
X132250000Y-79370000D01*
X132250000Y-75570000D02*
X134450000Y-75570000D01*
X134450000Y-75570000D02*
X134450000Y-79370000D01*
D11*
G04 #@! TO.C,JP3*
X145780000Y-100200000D02*
X145780000Y-103000000D01*
X143780000Y-100200000D02*
X145780000Y-100200000D01*
X143780000Y-103000000D02*
X143780000Y-100200000D01*
X145780000Y-103000000D02*
X143780000Y-103000000D01*
G04 #@! TO.C,JP4*
X138300000Y-85360000D02*
X141100000Y-85360000D01*
X138300000Y-87360000D02*
X138300000Y-85360000D01*
X141100000Y-85360000D02*
X141100000Y-87360000D01*
X141100000Y-87360000D02*
X138300000Y-87360000D01*
G04 #@! TO.C,JP1*
X131810000Y-102805000D02*
X129810000Y-102805000D01*
X131810000Y-100005000D02*
X131810000Y-102805000D01*
X129810000Y-102805000D02*
X129810000Y-100005000D01*
X129810000Y-100005000D02*
X131810000Y-100005000D01*
D10*
G04 #@! TO.C,TP25*
X171020000Y-86530000D02*
X171020000Y-88730000D01*
X167220000Y-86530000D02*
X171020000Y-86530000D01*
X167220000Y-88730000D02*
X167220000Y-86530000D01*
X171020000Y-88730000D02*
X167220000Y-88730000D01*
D11*
G04 #@! TO.C,R1*
X128370000Y-90710000D02*
X128370000Y-97250000D01*
X128040000Y-90710000D02*
X128370000Y-90710000D01*
X125960000Y-90710000D02*
X125630000Y-90710000D01*
X128370000Y-97250000D02*
X128040000Y-97250000D01*
X125630000Y-90710000D02*
X125630000Y-97250000D01*
X125630000Y-97250000D02*
X125960000Y-97250000D01*
D10*
G04 #@! TO.C,TP21*
X153500000Y-106050000D02*
X153500000Y-109850000D01*
X151300000Y-109850000D02*
X151300000Y-106050000D01*
X153500000Y-109850000D02*
X151300000Y-109850000D01*
X151300000Y-106050000D02*
X153500000Y-106050000D01*
G04 #@! TO.C,TP7*
X122550000Y-84920000D02*
X118750000Y-84920000D01*
X122550000Y-82720000D02*
X122550000Y-84920000D01*
X118750000Y-82720000D02*
X122550000Y-82720000D01*
X118750000Y-84920000D02*
X118750000Y-82720000D01*
G04 #@! TO.C,TP11*
X128440000Y-75570000D02*
X130640000Y-75570000D01*
X130640000Y-79370000D02*
X128440000Y-79370000D01*
X130640000Y-75570000D02*
X130640000Y-79370000D01*
X128440000Y-79370000D02*
X128440000Y-75570000D01*
G04 #@! TO.C,TP4*
X133520000Y-106050000D02*
X135720000Y-106050000D01*
X135720000Y-106050000D02*
X135720000Y-109850000D01*
X133520000Y-109850000D02*
X133520000Y-106050000D01*
X135720000Y-109850000D02*
X133520000Y-109850000D01*
G04 #@! TO.C,TP24*
X167220000Y-82720000D02*
X171020000Y-82720000D01*
X171020000Y-84920000D02*
X167220000Y-84920000D01*
X167220000Y-84920000D02*
X167220000Y-82720000D01*
X171020000Y-82720000D02*
X171020000Y-84920000D01*
D11*
G04 #@! TO.C,J4*
X151145000Y-102930000D02*
X156285000Y-102930000D01*
X148545000Y-102930000D02*
X148545000Y-101600000D01*
X151145000Y-102930000D02*
X151145000Y-100270000D01*
X151145000Y-100270000D02*
X156285000Y-100270000D01*
X149875000Y-102930000D02*
X148545000Y-102930000D01*
X156285000Y-102930000D02*
X156285000Y-100270000D01*
G04 #@! TO.C,JP2*
X128140000Y-85360000D02*
X130940000Y-85360000D01*
X130940000Y-85360000D02*
X130940000Y-87360000D01*
X130940000Y-87360000D02*
X128140000Y-87360000D01*
X128140000Y-87360000D02*
X128140000Y-85360000D01*
D10*
G04 #@! TO.C,TP16*
X152230000Y-79370000D02*
X150030000Y-79370000D01*
X150030000Y-75570000D02*
X152230000Y-75570000D01*
X150030000Y-79370000D02*
X150030000Y-75570000D01*
X152230000Y-75570000D02*
X152230000Y-79370000D01*
G04 #@! TO.C,TP22*
X167810000Y-79370000D02*
X167810000Y-75570000D01*
X170010000Y-75570000D02*
X170010000Y-79370000D01*
X170010000Y-79370000D02*
X167810000Y-79370000D01*
X167810000Y-75570000D02*
X170010000Y-75570000D01*
G04 #@! TO.C,TP13*
X139530000Y-79370000D02*
X137330000Y-79370000D01*
X137330000Y-79370000D02*
X137330000Y-75570000D01*
X139530000Y-75570000D02*
X139530000Y-79370000D01*
X137330000Y-75570000D02*
X139530000Y-75570000D01*
G04 #@! TO.C,TP8*
X122550000Y-88730000D02*
X118750000Y-88730000D01*
X118750000Y-86530000D02*
X122550000Y-86530000D01*
X122550000Y-86530000D02*
X122550000Y-88730000D01*
X118750000Y-88730000D02*
X118750000Y-86530000D01*
D11*
G04 #@! TO.C,R2*
X130710000Y-90710000D02*
X130710000Y-97250000D01*
X131040000Y-90710000D02*
X130710000Y-90710000D01*
X133120000Y-90710000D02*
X133450000Y-90710000D01*
X130710000Y-97250000D02*
X131040000Y-97250000D01*
X133450000Y-97250000D02*
X133120000Y-97250000D01*
X133450000Y-90710000D02*
X133450000Y-97250000D01*
G04 #@! TO.C,J2*
X135905000Y-102930000D02*
X134575000Y-102930000D01*
X134575000Y-102930000D02*
X134575000Y-101600000D01*
X137175000Y-100270000D02*
X142315000Y-100270000D01*
X137175000Y-102930000D02*
X142315000Y-102930000D01*
X142315000Y-102930000D02*
X142315000Y-100270000D01*
X137175000Y-102930000D02*
X137175000Y-100270000D01*
G04 #@! TO.C,R8*
X161190000Y-90710000D02*
X161190000Y-97250000D01*
X163930000Y-90710000D02*
X163930000Y-97250000D01*
X163600000Y-90710000D02*
X163930000Y-90710000D01*
X163930000Y-97250000D02*
X163600000Y-97250000D01*
X161520000Y-90710000D02*
X161190000Y-90710000D01*
X161190000Y-97250000D02*
X161520000Y-97250000D01*
G04 #@! TO.C,J3*
X127000000Y-81220000D02*
X165160000Y-81220000D01*
X125730000Y-83880000D02*
X124400000Y-83880000D01*
X165160000Y-83880000D02*
X165160000Y-81220000D01*
X124400000Y-83880000D02*
X124400000Y-82550000D01*
X127000000Y-83880000D02*
X127000000Y-81220000D01*
X127000000Y-83880000D02*
X165160000Y-83880000D01*
G04 #@! TO.C,R4*
X140870000Y-90710000D02*
X140870000Y-97250000D01*
X141200000Y-90710000D02*
X140870000Y-90710000D01*
X140870000Y-97250000D02*
X141200000Y-97250000D01*
X143610000Y-97250000D02*
X143280000Y-97250000D01*
X143610000Y-90710000D02*
X143610000Y-97250000D01*
X143280000Y-90710000D02*
X143610000Y-90710000D01*
G04 #@! TO.C,JP6*
X161420000Y-85360000D02*
X161420000Y-87360000D01*
X161420000Y-87360000D02*
X158620000Y-87360000D01*
X158620000Y-85360000D02*
X161420000Y-85360000D01*
X158620000Y-87360000D02*
X158620000Y-85360000D01*
G04 #@! TO.C,R5*
X145950000Y-90710000D02*
X145950000Y-97250000D01*
X145950000Y-97250000D02*
X146280000Y-97250000D01*
X146280000Y-90710000D02*
X145950000Y-90710000D01*
X148360000Y-90710000D02*
X148690000Y-90710000D01*
X148690000Y-90710000D02*
X148690000Y-97250000D01*
X148690000Y-97250000D02*
X148360000Y-97250000D01*
D10*
G04 #@! TO.C,TP15*
X148420000Y-79370000D02*
X146220000Y-79370000D01*
X148420000Y-75570000D02*
X148420000Y-79370000D01*
X146220000Y-75570000D02*
X148420000Y-75570000D01*
X146220000Y-79370000D02*
X146220000Y-75570000D01*
G04 #@! TO.C,TP14*
X143340000Y-75570000D02*
X143340000Y-79370000D01*
X141140000Y-75570000D02*
X143340000Y-75570000D01*
X143340000Y-79370000D02*
X141140000Y-79370000D01*
X141140000Y-79370000D02*
X141140000Y-75570000D01*
D11*
G04 #@! TO.C,J5*
X162515000Y-102930000D02*
X162515000Y-101600000D01*
X165115000Y-102930000D02*
X170255000Y-102930000D01*
X165115000Y-100270000D02*
X170255000Y-100270000D01*
X170255000Y-102930000D02*
X170255000Y-100270000D01*
X165115000Y-102930000D02*
X165115000Y-100270000D01*
X163845000Y-102930000D02*
X162515000Y-102930000D01*
D10*
G04 #@! TO.C,TP28*
X171280000Y-106050000D02*
X171280000Y-109850000D01*
X169080000Y-109850000D02*
X169080000Y-106050000D01*
X169080000Y-106050000D02*
X171280000Y-106050000D01*
X171280000Y-109850000D02*
X169080000Y-109850000D01*
D11*
G04 #@! TO.C,R6*
X153770000Y-90710000D02*
X153770000Y-97250000D01*
X151360000Y-90710000D02*
X151030000Y-90710000D01*
X153440000Y-90710000D02*
X153770000Y-90710000D01*
X151030000Y-97250000D02*
X151360000Y-97250000D01*
X151030000Y-90710000D02*
X151030000Y-97250000D01*
X153770000Y-97250000D02*
X153440000Y-97250000D01*
D10*
G04 #@! TO.C,TP9*
X121750000Y-75570000D02*
X121750000Y-79370000D01*
X119550000Y-75570000D02*
X121750000Y-75570000D01*
X121750000Y-79370000D02*
X119550000Y-79370000D01*
X119550000Y-79370000D02*
X119550000Y-75570000D01*
G04 #@! TO.C,TP5*
X137330000Y-106050000D02*
X139530000Y-106050000D01*
X139530000Y-109850000D02*
X137330000Y-109850000D01*
X137330000Y-109850000D02*
X137330000Y-106050000D01*
X139530000Y-106050000D02*
X139530000Y-109850000D01*
G04 #@! TO.C,TP3*
X129370000Y-109850000D02*
X127170000Y-109850000D01*
X127170000Y-109850000D02*
X127170000Y-106050000D01*
X129370000Y-106050000D02*
X129370000Y-109850000D01*
X127170000Y-106050000D02*
X129370000Y-106050000D01*
G04 #@! TO.C,TP23*
X157310000Y-109850000D02*
X155110000Y-109850000D01*
X155110000Y-106050000D02*
X157310000Y-106050000D01*
X157310000Y-106050000D02*
X157310000Y-109850000D01*
X155110000Y-109850000D02*
X155110000Y-106050000D01*
G04 #@! TO.C,TP10*
X123360000Y-79370000D02*
X123360000Y-75570000D01*
X123360000Y-75570000D02*
X125560000Y-75570000D01*
X125560000Y-75570000D02*
X125560000Y-79370000D01*
X125560000Y-79370000D02*
X123360000Y-79370000D01*
G04 #@! TO.C,TP6*
X141140000Y-106050000D02*
X143340000Y-106050000D01*
X141140000Y-109850000D02*
X141140000Y-106050000D01*
X143340000Y-109850000D02*
X141140000Y-109850000D01*
X143340000Y-106050000D02*
X143340000Y-109850000D01*
G04 #@! TD*
M02*
